<?xml version="1.0" encoding="us-ascii" standalone="no"?><svg xmlns="http://www.w3.org/2000/svg" xmlns:xlink="http://www.w3.org/1999/xlink" contentStyleType="text/css" height="574px" preserveAspectRatio="none" style="width:265px;height:574px;background:#FFFFFF;" version="1.1" viewBox="0 0 265 574" width="265px" zoomAndPan="magnify"><defs/><g><ellipse cx="129" cy="16" fill="#222222" rx="10" ry="10" style="stroke:none;stroke-width:1.0;"/><g id="NotMinted"><rect fill="#F1F1F1" height="50" rx="12.5" ry="12.5" style="stroke:#181818;stroke-width:0.5;" width="96" x="81" y="87"/><line style="stroke:#181818;stroke-width:0.5;" x1="81" x2="177" y1="113.2969" y2="113.2969"/><text fill="#000000" font-family="sans-serif" font-size="14" lengthAdjust="spacing" textLength="76" x="91" y="104.9951">NotMinted</text></g><path d="M19.5,214 L239,214 A12.5,12.5 0 0 1 251.5,226.5 L251.5,240.2969 L7,240.2969 L7,226.5 A12.5,12.5 0 0 1 19.5,214 " fill="#F1F1F1" style="stroke:#F1F1F1;stroke-width:1.0;"/><rect fill="none" height="257.2969" rx="12.5" ry="12.5" style="stroke:#181818;stroke-width:0.5;" width="244.5" x="7" y="214"/><line style="stroke:#181818;stroke-width:0.5;" x1="7" x2="251.5" y1="240.2969" y2="240.2969"/><text fill="#000000" font-family="sans-serif" font-size="14" lengthAdjust="spacing" textLength="50" x="104.25" y="231.9951">Minted</text><ellipse cx="107.5" cy="261.2969" fill="#222222" rx="10" ry="10" style="stroke:none;stroke-width:1.0;"/><g id="Minted.Available"><rect fill="#F1F1F1" height="50" rx="12.5" ry="12.5" style="stroke:#181818;stroke-width:0.5;" width="85" x="65" y="308.2969"/><line style="stroke:#181818;stroke-width:0.5;" x1="65" x2="150" y1="334.5938" y2="334.5938"/><text fill="#000000" font-family="sans-serif" font-size="14" lengthAdjust="spacing" textLength="65" x="75" y="326.292">Available</text></g><g id="Minted.Burned"><rect fill="#F1F1F1" height="50" rx="12.5" ry="12.5" style="stroke:#181818;stroke-width:0.5;" width="71" x="19" y="411.2969"/><line style="stroke:#181818;stroke-width:0.5;" x1="19" x2="90" y1="437.5938" y2="437.5938"/><text fill="#000000" font-family="sans-serif" font-size="14" lengthAdjust="spacing" textLength="51" x="29" y="429.292">Burned</text></g><g id="Minted.Transferred"><rect fill="#F1F1F1" height="50" rx="12.5" ry="12.5" style="stroke:#181818;stroke-width:0.5;" width="104" x="108.5" y="411.2969"/><line style="stroke:#181818;stroke-width:0.5;" x1="108.5" x2="212.5" y1="437.5938" y2="437.5938"/><text fill="#000000" font-family="sans-serif" font-size="14" lengthAdjust="spacing" textLength="84" x="118.5" y="429.292">Transferred</text></g><!--link *start*Minted to Available--><g id="link_*start*Minted_Available"><path d="M107.5,271.4479 C107.5,279.4829 107.5,291.6229 107.5,302.9509 " fill="none" id="*start*Minted-to-Available" style="stroke:#181818;stroke-width:1.0;"/><polygon fill="#181818" points="107.5,308.0809,111.5,299.0809,107.5,303.0809,103.5,299.0809,107.5,308.0809" style="stroke:#181818;stroke-width:1.0;"/></g><!--link Available to Burned--><g id="link_Available_Burned"><path d="M80.0797,358.7389 C75.3016,364.1142 70.8107,370.0742 67.5,376.2969 C62.6755,385.365 59.6397,396.1291 57.7302,405.9646 " fill="none" id="Available-to-Burned" style="stroke:#181818;stroke-width:1.0;"/><polygon fill="#181818" points="56.8308,411.0094,62.3483,402.8511,57.7084,406.087,54.4725,401.447,56.8308,411.0094" style="stroke:#181818;stroke-width:1.0;"/><text fill="#000000" font-family="sans-serif" font-size="13" lengthAdjust="spacing" textLength="69" x="68.5" y="389.3638">Burn token</text></g><!--link Available to Transferred--><g id="link_Available_Transferred"><path d="M127.061,358.4069 C131.155,364.0783 135.22,370.2404 138.5,376.2969 C143.554,385.6287 147.939,396.3673 151.435,406.1039 " fill="none" id="Available-to-Transferred" style="stroke:#181818;stroke-width:1.0;"/><polygon fill="#181818" points="153.181,411.0914,153.9818,401.2751,151.5285,406.3723,146.4313,403.9191,153.181,411.0914" style="stroke:#181818;stroke-width:1.0;"/><text fill="#000000" font-family="sans-serif" font-size="13" lengthAdjust="spacing" textLength="94" x="147.5" y="389.3638">Transfer token</text></g><ellipse cx="129" cy="558" fill="none" rx="10" ry="10" style="stroke:#222222;stroke-width:1.0;"/><ellipse cx="129.5" cy="558.5" fill="#222222" rx="6" ry="6" style="stroke:none;stroke-width:1.0;"/><!--link *start* to NotMinted--><g id="link_*start*_NotMinted"><path d="M129,26.013 C129,38.698 129,62.409 129,81.57 " fill="none" id="*start*-to-NotMinted" style="stroke:#181818;stroke-width:1.0;"/><polygon fill="#181818" points="129,86.84,133,77.84,129,81.84,125,77.84,129,86.84" style="stroke:#181818;stroke-width:1.0;"/></g><!--link NotMinted to Minted--><g id="link_NotMinted_Minted"><path d="M129,137.022 C129,154.982 129,181.11 129,208.721 " fill="none" id="NotMinted-to-Minted" style="stroke:#181818;stroke-width:1.0;"/><polygon fill="#181818" points="129,213.892,133,204.892,129,208.892,125,204.892,129,213.892" style="stroke:#181818;stroke-width:1.0;"/><text fill="#000000" font-family="sans-serif" font-size="13" lengthAdjust="spacing" textLength="66" x="130" y="180.0669">Mint token</text></g><!--link Minted to *end*--><g id="link_Minted_*end*"><path d="M129,471.0843 C129,499.9547 129,526.7097 129,542.4537 " fill="none" id="Minted-to-*end*" style="stroke:#181818;stroke-width:1.0;"/><polygon fill="#181818" points="129,547.7394,133,538.7394,129,542.7394,125,538.7394,129,547.7394" style="stroke:#181818;stroke-width:1.0;"/><text fill="#000000" font-family="sans-serif" font-size="13" lengthAdjust="spacing" textLength="69" x="130" y="514.0669">Burn token</text></g><!--SRC=[YzQALT3LjLFmoo_npSmhIKtXuYekIIn9HGWeL7FLmWJX8Wf040tLwbYMc9cJc9IJ2XQ5yy1oJgL5UK0DLc26Gab-TceU5bKXHObvnMcfHKLWfJ0UL3dSSgXPICv1rWSMHZWQP2oKQGLcG4tZGf87UG3PPG00]--></g></svg>