<?xml version="1.0" encoding="us-ascii" standalone="no"?><svg xmlns="http://www.w3.org/2000/svg" xmlns:xlink="http://www.w3.org/1999/xlink" contentStyleType="text/css" height="381px" preserveAspectRatio="none" style="width:1155px;height:381px;background:#FFFFFF;" version="1.1" viewBox="0 0 1155 381" width="1155px" zoomAndPan="magnify"><defs/><g><!--class CarbonToken--><g id="elem_CarbonToken"><rect codeLine="3" fill="#F1F1F1" height="162.0781" id="CarbonToken" rx="2.5" ry="2.5" style="stroke:#181818;stroke-width:0.5;" width="131" x="337" y="7"/><ellipse cx="352.9" cy="23" fill="#ADD1B2" rx="11" ry="11" style="stroke:#181818;stroke-width:1.0;"/><path d="M355.2438,18.6719 C354.3063,18.2344 353.7125,18.0938 352.8375,18.0938 C350.2125,18.0938 348.2125,20.1719 348.2125,22.8906 L348.2125,24.0156 C348.2125,26.5938 350.3219,28.4844 353.2125,28.4844 C354.4313,28.4844 355.5875,28.1875 356.3375,27.6406 C356.9156,27.2344 357.2438,26.7813 357.2438,26.3906 C357.2438,25.9375 356.8531,25.5469 356.3844,25.5469 C356.1656,25.5469 355.9625,25.625 355.775,25.8125 C355.3219,26.2969 355.3219,26.2969 355.1344,26.3906 C354.7125,26.6563 354.025,26.7813 353.2594,26.7813 C351.2125,26.7813 349.9156,25.6875 349.9156,23.9844 L349.9156,22.8906 C349.9156,21.1094 351.1656,19.7969 352.9,19.7969 C353.4781,19.7969 354.0875,19.9531 354.5563,20.2031 C355.0406,20.4844 355.2125,20.7031 355.3063,21.1094 C355.3688,21.5156 355.4,21.6406 355.5406,21.7656 C355.6813,21.9063 355.9156,22.0156 356.1344,22.0156 C356.4,22.0156 356.6656,21.875 356.8375,21.6563 C356.9469,21.5 356.9781,21.3125 356.9781,20.8906 L356.9781,19.4688 C356.9781,19.0313 356.9625,18.9063 356.8688,18.75 C356.7125,18.4844 356.4313,18.3438 356.1344,18.3438 C355.8375,18.3438 355.6344,18.4375 355.4156,18.75 L355.2438,18.6719 Z " fill="#000000"/><text fill="#000000" font-family="sans-serif" font-size="14" lengthAdjust="spacing" textLength="97" x="367.1" y="27.8467">CarbonToken</text><line style="stroke:#181818;stroke-width:0.5;" x1="338" x2="467" y1="39" y2="39"/><line style="stroke:#181818;stroke-width:0.5;" x1="338" x2="467" y1="47" y2="47"/><ellipse cx="348" cy="60.6484" fill="#84BE84" rx="3" ry="3" style="stroke:#038048;stroke-width:1.0;"/><text fill="#000000" font-family="sans-serif" font-size="14" lengthAdjust="spacing" textLength="44" x="357" y="63.9951">mint()</text><ellipse cx="348" cy="76.9453" fill="#84BE84" rx="3" ry="3" style="stroke:#038048;stroke-width:1.0;"/><text fill="#000000" font-family="sans-serif" font-size="14" lengthAdjust="spacing" textLength="43" x="357" y="80.292">burn()</text><ellipse cx="348" cy="93.2422" fill="#84BE84" rx="3" ry="3" style="stroke:#038048;stroke-width:1.0;"/><text fill="#000000" font-family="sans-serif" font-size="14" lengthAdjust="spacing" textLength="68" x="357" y="96.5889">transfer()</text><ellipse cx="348" cy="109.5391" fill="#84BE84" rx="3" ry="3" style="stroke:#038048;stroke-width:1.0;"/><text fill="#000000" font-family="sans-serif" font-size="14" lengthAdjust="spacing" textLength="70" x="357" y="112.8857">approve()</text><ellipse cx="348" cy="125.8359" fill="#84BE84" rx="3" ry="3" style="stroke:#038048;stroke-width:1.0;"/><text fill="#000000" font-family="sans-serif" font-size="14" lengthAdjust="spacing" textLength="105" x="357" y="129.1826">transferFrom()</text><ellipse cx="348" cy="142.1328" fill="#84BE84" rx="3" ry="3" style="stroke:#038048;stroke-width:1.0;"/><text fill="#000000" font-family="sans-serif" font-size="14" lengthAdjust="spacing" textLength="83" x="357" y="145.4795">balanceOf()</text><ellipse cx="348" cy="158.4297" fill="#84BE84" rx="3" ry="3" style="stroke:#038048;stroke-width:1.0;"/><text fill="#000000" font-family="sans-serif" font-size="14" lengthAdjust="spacing" textLength="80" x="357" y="161.7764">allowance()</text></g><!--class Tokenomics--><g id="elem_Tokenomics"><rect codeLine="13" fill="#F1F1F1" height="96.8906" id="Tokenomics" rx="2.5" ry="2.5" style="stroke:#181818;stroke-width:0.5;" width="231" x="7" y="253.5"/><ellipse cx="74.75" cy="269.5" fill="#ADD1B2" rx="11" ry="11" style="stroke:#181818;stroke-width:1.0;"/><path d="M77.0938,265.1719 C76.1563,264.7344 75.5625,264.5938 74.6875,264.5938 C72.0625,264.5938 70.0625,266.6719 70.0625,269.3906 L70.0625,270.5156 C70.0625,273.0938 72.1719,274.9844 75.0625,274.9844 C76.2813,274.9844 77.4375,274.6875 78.1875,274.1406 C78.7656,273.7344 79.0938,273.2813 79.0938,272.8906 C79.0938,272.4375 78.7031,272.0469 78.2344,272.0469 C78.0156,272.0469 77.8125,272.125 77.625,272.3125 C77.1719,272.7969 77.1719,272.7969 76.9844,272.8906 C76.5625,273.1563 75.875,273.2813 75.1094,273.2813 C73.0625,273.2813 71.7656,272.1875 71.7656,270.4844 L71.7656,269.3906 C71.7656,267.6094 73.0156,266.2969 74.75,266.2969 C75.3281,266.2969 75.9375,266.4531 76.4063,266.7031 C76.8906,266.9844 77.0625,267.2031 77.1563,267.6094 C77.2188,268.0156 77.25,268.1406 77.3906,268.2656 C77.5313,268.4063 77.7656,268.5156 77.9844,268.5156 C78.25,268.5156 78.5156,268.375 78.6875,268.1563 C78.7969,268 78.8281,267.8125 78.8281,267.3906 L78.8281,265.9688 C78.8281,265.5313 78.8125,265.4063 78.7188,265.25 C78.5625,264.9844 78.2813,264.8438 77.9844,264.8438 C77.6875,264.8438 77.4844,264.9375 77.2656,265.25 L77.0938,265.1719 Z " fill="#000000"/><text fill="#000000" font-family="sans-serif" font-size="14" lengthAdjust="spacing" textLength="87" x="95.25" y="274.3467">Tokenomics</text><line style="stroke:#181818;stroke-width:0.5;" x1="8" x2="237" y1="285.5" y2="285.5"/><line style="stroke:#181818;stroke-width:0.5;" x1="8" x2="237" y1="293.5" y2="293.5"/><ellipse cx="18" cy="307.1484" fill="#84BE84" rx="3" ry="3" style="stroke:#038048;stroke-width:1.0;"/><text fill="#000000" font-family="sans-serif" font-size="14" lengthAdjust="spacing" textLength="183" x="27" y="310.4951">setTokenomicsStrategy()</text><ellipse cx="18" cy="323.4453" fill="#84BE84" rx="3" ry="3" style="stroke:#038048;stroke-width:1.0;"/><text fill="#000000" font-family="sans-serif" font-size="14" lengthAdjust="spacing" textLength="205" x="27" y="326.792">calculateTokenDistribution()</text><ellipse cx="18" cy="339.7422" fill="#84BE84" rx="3" ry="3" style="stroke:#038048;stroke-width:1.0;"/><text fill="#000000" font-family="sans-serif" font-size="14" lengthAdjust="spacing" textLength="162" x="27" y="343.0889">calculateTokenUtility()</text></g><!--class TokenSale--><g id="elem_TokenSale"><rect codeLine="19" fill="#F1F1F1" height="113.1875" id="TokenSale" rx="2.5" ry="2.5" style="stroke:#181818;stroke-width:0.5;" width="259" x="273" y="245.5"/><ellipse cx="360.75" cy="261.5" fill="#ADD1B2" rx="11" ry="11" style="stroke:#181818;stroke-width:1.0;"/><path d="M363.0938,257.1719 C362.1563,256.7344 361.5625,256.5938 360.6875,256.5938 C358.0625,256.5938 356.0625,258.6719 356.0625,261.3906 L356.0625,262.5156 C356.0625,265.0938 358.1719,266.9844 361.0625,266.9844 C362.2813,266.9844 363.4375,266.6875 364.1875,266.1406 C364.7656,265.7344 365.0938,265.2813 365.0938,264.8906 C365.0938,264.4375 364.7031,264.0469 364.2344,264.0469 C364.0156,264.0469 363.8125,264.125 363.625,264.3125 C363.1719,264.7969 363.1719,264.7969 362.9844,264.8906 C362.5625,265.1563 361.875,265.2813 361.1094,265.2813 C359.0625,265.2813 357.7656,264.1875 357.7656,262.4844 L357.7656,261.3906 C357.7656,259.6094 359.0156,258.2969 360.75,258.2969 C361.3281,258.2969 361.9375,258.4531 362.4063,258.7031 C362.8906,258.9844 363.0625,259.2031 363.1563,259.6094 C363.2188,260.0156 363.25,260.1406 363.3906,260.2656 C363.5313,260.4063 363.7656,260.5156 363.9844,260.5156 C364.25,260.5156 364.5156,260.375 364.6875,260.1563 C364.7969,260 364.8281,259.8125 364.8281,259.3906 L364.8281,257.9688 C364.8281,257.5313 364.8125,257.4063 364.7188,257.25 C364.5625,256.9844 364.2813,256.8438 363.9844,256.8438 C363.6875,256.8438 363.4844,256.9375 363.2656,257.25 L363.0938,257.1719 Z " fill="#000000"/><text fill="#000000" font-family="sans-serif" font-size="14" lengthAdjust="spacing" textLength="75" x="381.25" y="266.3467">TokenSale</text><line style="stroke:#181818;stroke-width:0.5;" x1="274" x2="531" y1="277.5" y2="277.5"/><line style="stroke:#181818;stroke-width:0.5;" x1="274" x2="531" y1="285.5" y2="285.5"/><ellipse cx="284" cy="299.1484" fill="#84BE84" rx="3" ry="3" style="stroke:#038048;stroke-width:1.0;"/><text fill="#000000" font-family="sans-serif" font-size="14" lengthAdjust="spacing" textLength="114" x="293" y="302.4951">setTokenPrice()</text><ellipse cx="284" cy="315.4453" fill="#84BE84" rx="3" ry="3" style="stroke:#038048;stroke-width:1.0;"/><text fill="#000000" font-family="sans-serif" font-size="14" lengthAdjust="spacing" textLength="233" x="293" y="318.792">setMinMaxInvestmentAmounts()</text><ellipse cx="284" cy="331.7422" fill="#84BE84" rx="3" ry="3" style="stroke:#038048;stroke-width:1.0;"/><text fill="#000000" font-family="sans-serif" font-size="14" lengthAdjust="spacing" textLength="88" x="293" y="335.0889">buyTokens()</text><ellipse cx="284" cy="348.0391" fill="#84BE84" rx="3" ry="3" style="stroke:#038048;stroke-width:1.0;"/><text fill="#000000" font-family="sans-serif" font-size="14" lengthAdjust="spacing" textLength="130" x="293" y="351.3857">querySaleDetails()</text></g><!--class ReforestationTracking--><g id="elem_ReforestationTracking"><rect codeLine="26" fill="#F1F1F1" height="96.8906" id="ReforestationTracking" rx="2.5" ry="2.5" style="stroke:#181818;stroke-width:0.5;" width="319" x="829" y="39.5"/><ellipse cx="903.25" cy="55.5" fill="#ADD1B2" rx="11" ry="11" style="stroke:#181818;stroke-width:1.0;"/><path d="M905.5938,51.1719 C904.6563,50.7344 904.0625,50.5938 903.1875,50.5938 C900.5625,50.5938 898.5625,52.6719 898.5625,55.3906 L898.5625,56.5156 C898.5625,59.0938 900.6719,60.9844 903.5625,60.9844 C904.7813,60.9844 905.9375,60.6875 906.6875,60.1406 C907.2656,59.7344 907.5938,59.2813 907.5938,58.8906 C907.5938,58.4375 907.2031,58.0469 906.7344,58.0469 C906.5156,58.0469 906.3125,58.125 906.125,58.3125 C905.6719,58.7969 905.6719,58.7969 905.4844,58.8906 C905.0625,59.1563 904.375,59.2813 903.6094,59.2813 C901.5625,59.2813 900.2656,58.1875 900.2656,56.4844 L900.2656,55.3906 C900.2656,53.6094 901.5156,52.2969 903.25,52.2969 C903.8281,52.2969 904.4375,52.4531 904.9063,52.7031 C905.3906,52.9844 905.5625,53.2031 905.6563,53.6094 C905.7188,54.0156 905.75,54.1406 905.8906,54.2656 C906.0313,54.4063 906.2656,54.5156 906.4844,54.5156 C906.75,54.5156 907.0156,54.375 907.1875,54.1563 C907.2969,54 907.3281,53.8125 907.3281,53.3906 L907.3281,51.9688 C907.3281,51.5313 907.3125,51.4063 907.2188,51.25 C907.0625,50.9844 906.7813,50.8438 906.4844,50.8438 C906.1875,50.8438 905.9844,50.9375 905.7656,51.25 L905.5938,51.1719 Z " fill="#000000"/><text fill="#000000" font-family="sans-serif" font-size="14" lengthAdjust="spacing" textLength="162" x="923.75" y="60.3467">ReforestationTracking</text><line style="stroke:#181818;stroke-width:0.5;" x1="830" x2="1147" y1="71.5" y2="71.5"/><line style="stroke:#181818;stroke-width:0.5;" x1="830" x2="1147" y1="79.5" y2="79.5"/><ellipse cx="840" cy="93.1484" fill="#84BE84" rx="3" ry="3" style="stroke:#038048;stroke-width:1.0;"/><text fill="#000000" font-family="sans-serif" font-size="14" lengthAdjust="spacing" textLength="170" x="849" y="96.4951">addReforestationData()</text><ellipse cx="840" cy="109.4453" fill="#84BE84" rx="3" ry="3" style="stroke:#038048;stroke-width:1.0;"/><text fill="#000000" font-family="sans-serif" font-size="14" lengthAdjust="spacing" textLength="293" x="849" y="112.792">updateCarbonOffsettingMeasurements()</text><ellipse cx="840" cy="125.7422" fill="#84BE84" rx="3" ry="3" style="stroke:#038048;stroke-width:1.0;"/><text fill="#000000" font-family="sans-serif" font-size="14" lengthAdjust="spacing" textLength="239" x="849" y="129.0889">queryCarbonOffsettingProgress()</text></g><!--class CarbonOffsettingDashboard--><g id="elem_CarbonOffsettingDashboard"><rect codeLine="32" fill="#F1F1F1" height="96.8906" id="CarbonOffsettingDashboard" rx="2.5" ry="2.5" style="stroke:#181818;stroke-width:0.5;" width="319" x="829" y="253.5"/><ellipse cx="882.25" cy="269.5" fill="#ADD1B2" rx="11" ry="11" style="stroke:#181818;stroke-width:1.0;"/><path d="M884.5938,265.1719 C883.6563,264.7344 883.0625,264.5938 882.1875,264.5938 C879.5625,264.5938 877.5625,266.6719 877.5625,269.3906 L877.5625,270.5156 C877.5625,273.0938 879.6719,274.9844 882.5625,274.9844 C883.7813,274.9844 884.9375,274.6875 885.6875,274.1406 C886.2656,273.7344 886.5938,273.2813 886.5938,272.8906 C886.5938,272.4375 886.2031,272.0469 885.7344,272.0469 C885.5156,272.0469 885.3125,272.125 885.125,272.3125 C884.6719,272.7969 884.6719,272.7969 884.4844,272.8906 C884.0625,273.1563 883.375,273.2813 882.6094,273.2813 C880.5625,273.2813 879.2656,272.1875 879.2656,270.4844 L879.2656,269.3906 C879.2656,267.6094 880.5156,266.2969 882.25,266.2969 C882.8281,266.2969 883.4375,266.4531 883.9063,266.7031 C884.3906,266.9844 884.5625,267.2031 884.6563,267.6094 C884.7188,268.0156 884.75,268.1406 884.8906,268.2656 C885.0313,268.4063 885.2656,268.5156 885.4844,268.5156 C885.75,268.5156 886.0156,268.375 886.1875,268.1563 C886.2969,268 886.3281,267.8125 886.3281,267.3906 L886.3281,265.9688 C886.3281,265.5313 886.3125,265.4063 886.2188,265.25 C886.0625,264.9844 885.7813,264.8438 885.4844,264.8438 C885.1875,264.8438 884.9844,264.9375 884.7656,265.25 L884.5938,265.1719 Z " fill="#000000"/><text fill="#000000" font-family="sans-serif" font-size="14" lengthAdjust="spacing" textLength="204" x="902.75" y="274.3467">CarbonOffsettingDashboard</text><line style="stroke:#181818;stroke-width:0.5;" x1="830" x2="1147" y1="285.5" y2="285.5"/><line style="stroke:#181818;stroke-width:0.5;" x1="830" x2="1147" y1="293.5" y2="293.5"/><ellipse cx="840" cy="307.1484" fill="#84BE84" rx="3" ry="3" style="stroke:#038048;stroke-width:1.0;"/><text fill="#000000" font-family="sans-serif" font-size="14" lengthAdjust="spacing" textLength="234" x="849" y="310.4951">queryUserCarbonTokenBalance()</text><ellipse cx="840" cy="323.4453" fill="#84BE84" rx="3" ry="3" style="stroke:#038048;stroke-width:1.0;"/><text fill="#000000" font-family="sans-serif" font-size="14" lengthAdjust="spacing" textLength="270" x="849" y="326.792">queryUserCarbonOffsettingProgress()</text><ellipse cx="840" cy="339.7422" fill="#84BE84" rx="3" ry="3" style="stroke:#038048;stroke-width:1.0;"/><text fill="#000000" font-family="sans-serif" font-size="14" lengthAdjust="spacing" textLength="293" x="849" y="343.0889">queryOverallCarbonOffsettingAchieved()</text></g><!--class ReforestationIncentive--><g id="elem_ReforestationIncentive"><rect codeLine="38" fill="#F1F1F1" height="145.7813" id="ReforestationIncentive" rx="2.5" ry="2.5" style="stroke:#181818;stroke-width:0.5;" width="227" x="567" y="229"/><ellipse cx="594.6" cy="245" fill="#ADD1B2" rx="11" ry="11" style="stroke:#181818;stroke-width:1.0;"/><path d="M596.9438,240.6719 C596.0063,240.2344 595.4125,240.0938 594.5375,240.0938 C591.9125,240.0938 589.9125,242.1719 589.9125,244.8906 L589.9125,246.0156 C589.9125,248.5938 592.0219,250.4844 594.9125,250.4844 C596.1313,250.4844 597.2875,250.1875 598.0375,249.6406 C598.6156,249.2344 598.9438,248.7813 598.9438,248.3906 C598.9438,247.9375 598.5531,247.5469 598.0844,247.5469 C597.8656,247.5469 597.6625,247.625 597.475,247.8125 C597.0219,248.2969 597.0219,248.2969 596.8344,248.3906 C596.4125,248.6563 595.725,248.7813 594.9594,248.7813 C592.9125,248.7813 591.6156,247.6875 591.6156,245.9844 L591.6156,244.8906 C591.6156,243.1094 592.8656,241.7969 594.6,241.7969 C595.1781,241.7969 595.7875,241.9531 596.2563,242.2031 C596.7406,242.4844 596.9125,242.7031 597.0063,243.1094 C597.0688,243.5156 597.1,243.6406 597.2406,243.7656 C597.3813,243.9063 597.6156,244.0156 597.8344,244.0156 C598.1,244.0156 598.3656,243.875 598.5375,243.6563 C598.6469,243.5 598.6781,243.3125 598.6781,242.8906 L598.6781,241.4688 C598.6781,241.0313 598.6625,240.9063 598.5688,240.75 C598.4125,240.4844 598.1313,240.3438 597.8344,240.3438 C597.5375,240.3438 597.3344,240.4375 597.1156,240.75 L596.9438,240.6719 Z " fill="#000000"/><text fill="#000000" font-family="sans-serif" font-size="14" lengthAdjust="spacing" textLength="167" x="611.4" y="249.8467">ReforestationIncentive</text><line style="stroke:#181818;stroke-width:0.5;" x1="568" x2="793" y1="261" y2="261"/><line style="stroke:#181818;stroke-width:0.5;" x1="568" x2="793" y1="269" y2="269"/><ellipse cx="578" cy="282.6484" fill="#84BE84" rx="3" ry="3" style="stroke:#038048;stroke-width:1.0;"/><text fill="#000000" font-family="sans-serif" font-size="14" lengthAdjust="spacing" textLength="169" x="587" y="285.9951">setRewardParameters()</text><ellipse cx="578" cy="298.9453" fill="#84BE84" rx="3" ry="3" style="stroke:#038048;stroke-width:1.0;"/><text fill="#000000" font-family="sans-serif" font-size="14" lengthAdjust="spacing" textLength="101" x="587" y="302.292">claimReward()</text><ellipse cx="578" cy="315.2422" fill="#84BE84" rx="3" ry="3" style="stroke:#038048;stroke-width:1.0;"/><text fill="#000000" font-family="sans-serif" font-size="14" lengthAdjust="spacing" textLength="141" x="587" y="318.5889">distributeRewards()</text><ellipse cx="578" cy="331.5391" fill="#84BE84" rx="3" ry="3" style="stroke:#038048;stroke-width:1.0;"/><text fill="#000000" font-family="sans-serif" font-size="14" lengthAdjust="spacing" textLength="172" x="587" y="334.8857">addAuthorizedAddress()</text><ellipse cx="578" cy="347.8359" fill="#84BE84" rx="3" ry="3" style="stroke:#038048;stroke-width:1.0;"/><text fill="#000000" font-family="sans-serif" font-size="14" lengthAdjust="spacing" textLength="201" x="587" y="351.1826">removeAuthorizedAddress()</text><ellipse cx="578" cy="364.1328" fill="#84BE84" rx="3" ry="3" style="stroke:#038048;stroke-width:1.0;"/><text fill="#000000" font-family="sans-serif" font-size="14" lengthAdjust="spacing" textLength="168" x="587" y="367.4795">getParticipantReward()</text></g><!--link CarbonToken to Tokenomics--><g id="link_CarbonToken_Tokenomics"><path codeLine="47" d="M336.852,138.705 C291.108,173.339 230.445,219.27 185.331,253.428 " fill="none" id="CarbonToken-Tokenomics" style="stroke:#181818;stroke-width:1.0;"/><text fill="#000000" font-family="sans-serif" font-size="13" lengthAdjust="spacing" textLength="8" x="320.799" y="140.7706">1</text><text fill="#000000" font-family="sans-serif" font-size="13" lengthAdjust="spacing" textLength="8" x="185.9718" y="242.2771">1</text></g><!--link CarbonToken to TokenSale--><g id="link_CarbonToken_TokenSale"><path codeLine="48" d="M402.5,169.148 C402.5,194.593 402.5,222.153 402.5,245.466 " fill="none" id="CarbonToken-TokenSale" style="stroke:#181818;stroke-width:1.0;"/><text fill="#000000" font-family="sans-serif" font-size="13" lengthAdjust="spacing" textLength="8" x="394.1438" y="189.1125">1</text><text fill="#000000" font-family="sans-serif" font-size="13" lengthAdjust="spacing" textLength="8" x="393.9875" y="234.325">1</text></g><!--link CarbonToken to ReforestationIncentive--><g id="link_CarbonToken_ReforestationIncentive"><path codeLine="49" d="M468.03,138.973 C503.185,165.781 547.139,199.3 585.933,228.884 " fill="none" id="CarbonToken-ReforestationIncentive" style="stroke:#181818;stroke-width:1.0;"/><text fill="#000000" font-family="sans-serif" font-size="13" lengthAdjust="spacing" textLength="8" x="476.0694" y="141.0696">1</text><text fill="#000000" font-family="sans-serif" font-size="13" lengthAdjust="spacing" textLength="8" x="568.2303" y="218.0326">1</text></g><!--link ReforestationTracking to CarbonOffsettingDashboard--><g id="link_ReforestationTracking_CarbonOffsettingDashboard"><path codeLine="50" d="M988.5,136.577 C988.5,171.37 988.5,218.374 988.5,253.216 " fill="none" id="ReforestationTracking-CarbonOffsettingDashboard" style="stroke:#181818;stroke-width:1.0;"/><text fill="#000000" font-family="sans-serif" font-size="13" lengthAdjust="spacing" textLength="8" x="979.9375" y="156.5468">1</text><text fill="#000000" font-family="sans-serif" font-size="13" lengthAdjust="spacing" textLength="8" x="979.9375" y="242.385">1</text></g><!--SRC=[VLDDRwD03BtdLz2UTbNri3yXkr6b7A94_RexZ25MXXdMuw7DhlhVQq03X2Rb0Zm_-xsnFJSrGrb15WE-8WlbODT5vjrYaLi88Vi3lFVksH_HPVyNcJvt5JdvyRF_taTswLiON2YGqp_KDVi6v-47zjMG3XPSZjjYoB7MlxMG0X_9GwVkAyf3iX1GHl19AmkMfrH3Zv17gr17ML4GfdqKykuouqN8afo-A3w1nRdWZYaVJgJWXjm6tjUkmI0LEbbMFZe9OtjENTe0_8t8fxRm2WN8Xgde8nQUjGwqLfyPyYEvCXa0OyxYAn18HMDjz2pzfBP5eRP4CpS88JAshixbvyGT-rBhddcPSrOG3diFR9AVhj9BG9uioEz-ccTY8-MYu4ZSDiWw_JbtcHy86pHN6xLMHIVKJ4VrY6zgTGSC5Gho8AJfLFN119cq7jZZ0rSRlenoy4p_q2oDcHhMhkfYNmsNAAgjTubgS3BegV_fRRhzTPlTttUlSPU_PRHxSurmkIUBopiroRiww4y0]--></g></svg>