<?xml version="1.0" encoding="us-ascii" standalone="no"?><svg xmlns="http://www.w3.org/2000/svg" xmlns:xlink="http://www.w3.org/1999/xlink" contentStyleType="text/css" height="858px" preserveAspectRatio="none" style="width:640px;height:858px;background:#FFFFFF;" version="1.1" viewBox="0 0 640 858" width="640px" zoomAndPan="magnify"><defs/><g><ellipse cx="351" cy="20" fill="#222222" rx="10" ry="10" style="stroke:#222222;stroke-width:1.0;"/><rect fill="#F1F1F1" height="33.9688" rx="12.5" ry="12.5" style="stroke:#181818;stroke-width:0.5;" width="223" x="239.5" y="50"/><text fill="#000000" font-family="sans-serif" font-size="12" lengthAdjust="spacing" textLength="203" x="249.5" y="71.1387">User decides to purchase tokens</text><polygon fill="#F1F1F1" points="290.5,103.9688,411.5,103.9688,423.5,115.9688,411.5,127.9688,290.5,127.9688,278.5,115.9688,290.5,103.9688" style="stroke:#181818;stroke-width:0.5;"/><text fill="#000000" font-family="sans-serif" font-size="11" lengthAdjust="spacing" textLength="121" x="290.5" y="119.7769">Token sale is active?</text><text fill="#000000" font-family="sans-serif" font-size="11" lengthAdjust="spacing" textLength="21" x="257.5" y="113.3745">yes</text><text fill="#000000" font-family="sans-serif" font-size="11" lengthAdjust="spacing" textLength="14" x="423.5" y="113.3745">no</text><rect fill="#F1F1F1" height="33.9688" rx="12.5" ry="12.5" style="stroke:#181818;stroke-width:0.5;" width="263" x="87.75" y="137.9688"/><text fill="#000000" font-family="sans-serif" font-size="12" lengthAdjust="spacing" textLength="243" x="97.75" y="159.1074">User sends funds to TokenSale contract</text><rect fill="#F1F1F1" height="33.9688" rx="12.5" ry="12.5" style="stroke:#181818;stroke-width:0.5;" width="231" x="103.75" y="191.9375"/><text fill="#000000" font-family="sans-serif" font-size="12" lengthAdjust="spacing" textLength="211" x="113.75" y="213.0762">TokenSale calculates tokensToMint</text><rect fill="#F1F1F1" height="33.9688" rx="12.5" ry="12.5" style="stroke:#181818;stroke-width:0.5;" width="315" x="61.75" y="245.9063"/><text fill="#000000" font-family="sans-serif" font-size="12" lengthAdjust="spacing" textLength="295" x="71.75" y="267.0449">TokenSale mints tokens in CarbonToken contract</text><rect fill="#F1F1F1" height="33.9688" rx="12.5" ry="12.5" style="stroke:#181818;stroke-width:0.5;" width="252" x="93.25" y="299.875"/><text fill="#000000" font-family="sans-serif" font-size="12" lengthAdjust="spacing" textLength="232" x="103.25" y="321.0137">CarbonToken transfers tokens to User</text><rect fill="#F1F1F1" height="33.9688" rx="12.5" ry="12.5" style="stroke:#181818;stroke-width:0.5;" width="172" x="396.75" y="137.9688"/><text fill="#000000" font-family="sans-serif" font-size="12" lengthAdjust="spacing" textLength="152" x="406.75" y="159.1074">User waits for token sale</text><polygon fill="#F1F1F1" points="351,339.8438,363,351.8438,351,363.8438,339,351.8438,351,339.8438" style="stroke:#181818;stroke-width:0.5;"/><rect fill="#F1F1F1" height="33.9688" rx="12.5" ry="12.5" style="stroke:#181818;stroke-width:0.5;" width="344" x="179" y="383.8438"/><text fill="#000000" font-family="sans-serif" font-size="12" lengthAdjust="spacing" textLength="324" x="189" y="404.9824">User calculates token utility with Tokenomics contract</text><rect fill="#F1F1F1" height="33.9688" rx="12.5" ry="12.5" style="stroke:#181818;stroke-width:0.5;" width="264" x="219" y="437.8125"/><text fill="#000000" font-family="sans-serif" font-size="12" lengthAdjust="spacing" textLength="244" x="229" y="458.9512">User participates in reforestation efforts</text><polygon fill="#F1F1F1" points="271.5,491.7813,430.5,491.7813,442.5,503.7813,430.5,515.7813,271.5,515.7813,259.5,503.7813,271.5,491.7813" style="stroke:#181818;stroke-width:0.5;"/><text fill="#000000" font-family="sans-serif" font-size="11" lengthAdjust="spacing" textLength="159" x="271.5" y="507.5894">User is eligible for rewards?</text><text fill="#000000" font-family="sans-serif" font-size="11" lengthAdjust="spacing" textLength="21" x="238.5" y="501.187">yes</text><text fill="#000000" font-family="sans-serif" font-size="11" lengthAdjust="spacing" textLength="14" x="442.5" y="501.187">no</text><rect fill="#F1F1F1" height="33.9688" rx="12.5" ry="12.5" style="stroke:#181818;stroke-width:0.5;" width="361" x="11" y="525.7813"/><text fill="#000000" font-family="sans-serif" font-size="12" lengthAdjust="spacing" textLength="341" x="21" y="546.9199">User claims reward from ReforestationIncentive contract</text><rect fill="#F1F1F1" height="33.9688" rx="12.5" ry="12.5" style="stroke:#181818;stroke-width:0.5;" width="306" x="38.5" y="579.75"/><text fill="#000000" font-family="sans-serif" font-size="12" lengthAdjust="spacing" textLength="286" x="48.5" y="600.8887">ReforestationIncentive transfers tokens to User</text><rect fill="#F1F1F1" height="33.9688" rx="12.5" ry="12.5" style="stroke:#181818;stroke-width:0.5;" width="237" x="392" y="525.7813"/><text fill="#000000" font-family="sans-serif" font-size="12" lengthAdjust="spacing" textLength="217" x="402" y="546.9199">User continues reforestation efforts</text><polygon fill="#F1F1F1" points="351,619.7188,363,631.7188,351,643.7188,339,631.7188,351,619.7188" style="stroke:#181818;stroke-width:0.5;"/><rect fill="#F1F1F1" height="33.9688" rx="12.5" ry="12.5" style="stroke:#181818;stroke-width:0.5;" width="399" x="151.5" y="663.7188"/><text fill="#000000" font-family="sans-serif" font-size="12" lengthAdjust="spacing" textLength="379" x="161.5" y="684.8574">User adds reforestation data to ReforestationTracking contract</text><rect fill="#F1F1F1" height="33.9688" rx="12.5" ry="12.5" style="stroke:#181818;stroke-width:0.5;" width="405" x="148.5" y="717.6875"/><text fill="#000000" font-family="sans-serif" font-size="12" lengthAdjust="spacing" textLength="385" x="158.5" y="738.8262">ReforestationTracking updates carbon offsetting measurements</text><rect fill="#F1F1F1" height="33.9688" rx="12.5" ry="12.5" style="stroke:#181818;stroke-width:0.5;" width="352" x="175" y="771.6563"/><text fill="#000000" font-family="sans-serif" font-size="12" lengthAdjust="spacing" textLength="332" x="185" y="792.7949">User queries CarbonOffsettingDashboard for progress</text><ellipse cx="351" cy="836.625" fill="none" rx="11" ry="11" style="stroke:#222222;stroke-width:1.0;"/><ellipse cx="351" cy="836.625" fill="#222222" rx="6" ry="6" style="stroke:#111111;stroke-width:1.0;"/><line style="stroke:#181818;stroke-width:1.0;" x1="351" x2="351" y1="30" y2="50"/><polygon fill="#181818" points="347,40,351,50,355,40,351,44" style="stroke:#181818;stroke-width:1.0;"/><line style="stroke:#181818;stroke-width:1.0;" x1="219.25" x2="219.25" y1="171.9375" y2="191.9375"/><polygon fill="#181818" points="215.25,181.9375,219.25,191.9375,223.25,181.9375,219.25,185.9375" style="stroke:#181818;stroke-width:1.0;"/><line style="stroke:#181818;stroke-width:1.0;" x1="219.25" x2="219.25" y1="225.9063" y2="245.9063"/><polygon fill="#181818" points="215.25,235.9063,219.25,245.9063,223.25,235.9063,219.25,239.9063" style="stroke:#181818;stroke-width:1.0;"/><line style="stroke:#181818;stroke-width:1.0;" x1="219.25" x2="219.25" y1="279.875" y2="299.875"/><polygon fill="#181818" points="215.25,289.875,219.25,299.875,223.25,289.875,219.25,293.875" style="stroke:#181818;stroke-width:1.0;"/><line style="stroke:#181818;stroke-width:1.0;" x1="278.5" x2="219.25" y1="115.9688" y2="115.9688"/><line style="stroke:#181818;stroke-width:1.0;" x1="219.25" x2="219.25" y1="115.9688" y2="137.9688"/><polygon fill="#181818" points="215.25,127.9688,219.25,137.9688,223.25,127.9688,219.25,131.9688" style="stroke:#181818;stroke-width:1.0;"/><line style="stroke:#181818;stroke-width:1.0;" x1="423.5" x2="482.75" y1="115.9688" y2="115.9688"/><line style="stroke:#181818;stroke-width:1.0;" x1="482.75" x2="482.75" y1="115.9688" y2="137.9688"/><polygon fill="#181818" points="478.75,127.9688,482.75,137.9688,486.75,127.9688,482.75,131.9688" style="stroke:#181818;stroke-width:1.0;"/><line style="stroke:#181818;stroke-width:1.0;" x1="219.25" x2="219.25" y1="333.8438" y2="351.8438"/><line style="stroke:#181818;stroke-width:1.0;" x1="219.25" x2="339" y1="351.8438" y2="351.8438"/><polygon fill="#181818" points="329,347.8438,339,351.8438,329,355.8438,333,351.8438" style="stroke:#181818;stroke-width:1.0;"/><line style="stroke:#181818;stroke-width:1.0;" x1="482.75" x2="482.75" y1="171.9375" y2="351.8438"/><line style="stroke:#181818;stroke-width:1.0;" x1="482.75" x2="363" y1="351.8438" y2="351.8438"/><polygon fill="#181818" points="373,347.8438,363,351.8438,373,355.8438,369,351.8438" style="stroke:#181818;stroke-width:1.0;"/><line style="stroke:#181818;stroke-width:1.0;" x1="351" x2="351" y1="83.9688" y2="103.9688"/><polygon fill="#181818" points="347,93.9688,351,103.9688,355,93.9688,351,97.9688" style="stroke:#181818;stroke-width:1.0;"/><line style="stroke:#181818;stroke-width:1.0;" x1="351" x2="351" y1="363.8438" y2="383.8438"/><polygon fill="#181818" points="347,373.8438,351,383.8438,355,373.8438,351,377.8438" style="stroke:#181818;stroke-width:1.0;"/><line style="stroke:#181818;stroke-width:1.0;" x1="351" x2="351" y1="417.8125" y2="437.8125"/><polygon fill="#181818" points="347,427.8125,351,437.8125,355,427.8125,351,431.8125" style="stroke:#181818;stroke-width:1.0;"/><line style="stroke:#181818;stroke-width:1.0;" x1="191.5" x2="191.5" y1="559.75" y2="579.75"/><polygon fill="#181818" points="187.5,569.75,191.5,579.75,195.5,569.75,191.5,573.75" style="stroke:#181818;stroke-width:1.0;"/><line style="stroke:#181818;stroke-width:1.0;" x1="259.5" x2="191.5" y1="503.7813" y2="503.7813"/><line style="stroke:#181818;stroke-width:1.0;" x1="191.5" x2="191.5" y1="503.7813" y2="525.7813"/><polygon fill="#181818" points="187.5,515.7813,191.5,525.7813,195.5,515.7813,191.5,519.7813" style="stroke:#181818;stroke-width:1.0;"/><line style="stroke:#181818;stroke-width:1.0;" x1="442.5" x2="510.5" y1="503.7813" y2="503.7813"/><line style="stroke:#181818;stroke-width:1.0;" x1="510.5" x2="510.5" y1="503.7813" y2="525.7813"/><polygon fill="#181818" points="506.5,515.7813,510.5,525.7813,514.5,515.7813,510.5,519.7813" style="stroke:#181818;stroke-width:1.0;"/><line style="stroke:#181818;stroke-width:1.0;" x1="191.5" x2="191.5" y1="613.7188" y2="631.7188"/><line style="stroke:#181818;stroke-width:1.0;" x1="191.5" x2="339" y1="631.7188" y2="631.7188"/><polygon fill="#181818" points="329,627.7188,339,631.7188,329,635.7188,333,631.7188" style="stroke:#181818;stroke-width:1.0;"/><line style="stroke:#181818;stroke-width:1.0;" x1="510.5" x2="510.5" y1="559.75" y2="631.7188"/><line style="stroke:#181818;stroke-width:1.0;" x1="510.5" x2="363" y1="631.7188" y2="631.7188"/><polygon fill="#181818" points="373,627.7188,363,631.7188,373,635.7188,369,631.7188" style="stroke:#181818;stroke-width:1.0;"/><line style="stroke:#181818;stroke-width:1.0;" x1="351" x2="351" y1="471.7813" y2="491.7813"/><polygon fill="#181818" points="347,481.7813,351,491.7813,355,481.7813,351,485.7813" style="stroke:#181818;stroke-width:1.0;"/><line style="stroke:#181818;stroke-width:1.0;" x1="351" x2="351" y1="643.7188" y2="663.7188"/><polygon fill="#181818" points="347,653.7188,351,663.7188,355,653.7188,351,657.7188" style="stroke:#181818;stroke-width:1.0;"/><line style="stroke:#181818;stroke-width:1.0;" x1="351" x2="351" y1="697.6875" y2="717.6875"/><polygon fill="#181818" points="347,707.6875,351,717.6875,355,707.6875,351,711.6875" style="stroke:#181818;stroke-width:1.0;"/><line style="stroke:#181818;stroke-width:1.0;" x1="351" x2="351" y1="751.6563" y2="771.6563"/><polygon fill="#181818" points="347,761.6563,351,771.6563,355,761.6563,351,765.6563" style="stroke:#181818;stroke-width:1.0;"/><line style="stroke:#181818;stroke-width:1.0;" x1="351" x2="351" y1="805.625" y2="825.625"/><polygon fill="#181818" points="347,815.625,351,825.625,355,815.625,351,819.625" style="stroke:#181818;stroke-width:1.0;"/><!--SRC=[bL91KiCm3Bpd5JgsNw073d3Xm303vG6gBJSQ4ZjOCft-7ZaXdJJG0pbaOdbNsbr55BCspTsxK0PFZZq9Q8AXPDUYa7r_K9HTqt20pRuUGB0ZO05qobzqlmLjhRevasmRi6Tg9XIzG2ZrRGr7wbjbkXGr6tStWHSNsBdIeOuAwjHzUkRu6zTRSOO0HtZ0V4XnqhPglhooUfH0-K8rLLNfhg7EZ6vYMie_8TkGaFA47aqRCdeESrnhlL2KEzOpd5ZRoN3gsSb2r4GSB7DsF8nKCv39vf0eAgS85EoaS-GZmSAcZezyCFTLKgOJPY-tedSTSYy_A0WvzV2w7F4K7SMwktLSDr3_Iwxsv5X8Rlcw2X6zNmCzAjOHLshs9lE3ut4Pvj-0ClWnM3Vk7b88GghrfYUKagatMpBluhDGPaDFVyhB1Vo8qXxIc9y5FkHqj4brAQ9f-0O0]--></g></svg>