<?xml version="1.0" encoding="us-ascii" standalone="no"?><svg xmlns="http://www.w3.org/2000/svg" xmlns:xlink="http://www.w3.org/1999/xlink" contentStyleType="text/css" height="374px" preserveAspectRatio="none" style="width:2185px;height:374px;background:#FFFFFF;" version="1.1" viewBox="0 0 2185 374" width="2185px" zoomAndPan="magnify"><defs/><g><text fill="#000000" font-family="sans-serif" font-size="14" font-weight="bold" lengthAdjust="spacing" textLength="281" x="945" y="22.9951">Carbon Token Component Diagram</text><!--cluster Frontend--><g id="cluster_Frontend"><path d="M8.5,164.2969 L82.5,164.2969 A3.75,3.75 0 0 1 85,166.7969 L92,186.5938 L746.5,186.5938 A2.5,2.5 0 0 1 749,189.0938 L749,364.7969 A2.5,2.5 0 0 1 746.5,367.2969 L8.5,367.2969 A2.5,2.5 0 0 1 6,364.7969 L6,166.7969 A2.5,2.5 0 0 1 8.5,164.2969 " fill="none" style="stroke:#000000;stroke-width:1.5;"/><line style="stroke:#000000;stroke-width:1.5;" x1="6" x2="92" y1="186.5938" y2="186.5938"/><text fill="#000000" font-family="sans-serif" font-size="14" font-weight="bold" lengthAdjust="spacing" textLength="73" x="10" y="179.292">Frontend</text></g><!--cluster Backend--><g id="cluster_Backend"><path d="M809.5,164.2969 L878.5,164.2969 A3.75,3.75 0 0 1 881,166.7969 L888,186.5938 L1859.5,186.5938 A2.5,2.5 0 0 1 1862,189.0938 L1862,364.7969 A2.5,2.5 0 0 1 1859.5,367.2969 L809.5,367.2969 A2.5,2.5 0 0 1 807,364.7969 L807,166.7969 A2.5,2.5 0 0 1 809.5,164.2969 " fill="none" style="stroke:#000000;stroke-width:1.5;"/><line style="stroke:#000000;stroke-width:1.5;" x1="807" x2="888" y1="186.5938" y2="186.5938"/><text fill="#000000" font-family="sans-serif" font-size="14" font-weight="bold" lengthAdjust="spacing" textLength="68" x="811" y="179.292">Backend</text></g><!--cluster Smart Contracts--><g id="cluster_Smart Contracts"><path d="M1922.5,43.2969 L2059.5,43.2969 A3.75,3.75 0 0 1 2062,45.7969 L2069,65.5938 L2175.5,65.5938 A2.5,2.5 0 0 1 2178,68.0938 L2178,364.7969 A2.5,2.5 0 0 1 2175.5,367.2969 L1922.5,367.2969 A2.5,2.5 0 0 1 1920,364.7969 L1920,45.7969 A2.5,2.5 0 0 1 1922.5,43.2969 " fill="none" style="stroke:#000000;stroke-width:1.5;"/><line style="stroke:#000000;stroke-width:1.5;" x1="1920" x2="2069" y1="65.5938" y2="65.5938"/><text fill="#000000" font-family="sans-serif" font-size="14" font-weight="bold" lengthAdjust="spacing" textLength="136" x="1924" y="58.292">Smart Contracts</text></g><!--cluster Data Layer--><g id="cluster_Data Layer"><path d="M1052.5,43.2969 L1141.5,43.2969 A3.75,3.75 0 0 1 1144,45.7969 L1151,65.5938 L1893.5,65.5938 A2.5,2.5 0 0 1 1896,68.0938 L1896,137.7969 A2.5,2.5 0 0 1 1893.5,140.2969 L1052.5,140.2969 A2.5,2.5 0 0 1 1050,137.7969 L1050,45.7969 A2.5,2.5 0 0 1 1052.5,43.2969 " fill="none" style="stroke:#000000;stroke-width:1.5;"/><line style="stroke:#000000;stroke-width:1.5;" x1="1050" x2="1151" y1="65.5938" y2="65.5938"/><text fill="#000000" font-family="sans-serif" font-size="14" font-weight="bold" lengthAdjust="spacing" textLength="88" x="1054" y="58.292">Data Layer</text></g><!--cluster External Components--><g id="cluster_External Components"><path d="M55.5,43.2969 L229.5,43.2969 A3.75,3.75 0 0 1 232,45.7969 L239,65.5938 L1023.5,65.5938 A2.5,2.5 0 0 1 1026,68.0938 L1026,137.7969 A2.5,2.5 0 0 1 1023.5,140.2969 L55.5,140.2969 A2.5,2.5 0 0 1 53,137.7969 L53,45.7969 A2.5,2.5 0 0 1 55.5,43.2969 " fill="none" style="stroke:#000000;stroke-width:1.5;"/><line style="stroke:#000000;stroke-width:1.5;" x1="53" x2="239" y1="65.5938" y2="65.5938"/><text fill="#000000" font-family="sans-serif" font-size="14" font-weight="bold" lengthAdjust="spacing" textLength="173" x="57" y="58.292">External Components</text></g><!--entity WebUI--><g id="elem_WebUI"><rect fill="#F1F1F1" height="46.2969" rx="2.5" ry="2.5" style="stroke:#181818;stroke-width:0.5;" width="86" x="266" y="199.2969"/><rect fill="#F1F1F1" height="10" style="stroke:#181818;stroke-width:0.5;" width="15" x="332" y="204.2969"/><rect fill="#F1F1F1" height="2" style="stroke:#181818;stroke-width:0.5;" width="4" x="330" y="206.2969"/><rect fill="#F1F1F1" height="2" style="stroke:#181818;stroke-width:0.5;" width="4" x="330" y="210.2969"/><text fill="#000000" font-family="sans-serif" font-size="14" lengthAdjust="spacing" textLength="46" x="281" y="232.292">WebUI</text></g><!--entity Purchase Tokens--><g id="elem_Purchase Tokens"><rect fill="#F1F1F1" height="46.2969" rx="2.5" ry="2.5" style="stroke:#181818;stroke-width:0.5;" width="160" x="22" y="305.2969"/><rect fill="#F1F1F1" height="10" style="stroke:#181818;stroke-width:0.5;" width="15" x="162" y="310.2969"/><rect fill="#F1F1F1" height="2" style="stroke:#181818;stroke-width:0.5;" width="4" x="160" y="312.2969"/><rect fill="#F1F1F1" height="2" style="stroke:#181818;stroke-width:0.5;" width="4" x="160" y="316.2969"/><text fill="#000000" font-family="sans-serif" font-size="14" lengthAdjust="spacing" textLength="120" x="37" y="338.292">Purchase Tokens</text></g><!--entity View Token Balance--><g id="elem_View Token Balance"><rect fill="#F1F1F1" height="46.2969" rx="2.5" ry="2.5" style="stroke:#181818;stroke-width:0.5;" width="183" x="217.5" y="305.2969"/><rect fill="#F1F1F1" height="10" style="stroke:#181818;stroke-width:0.5;" width="15" x="380.5" y="310.2969"/><rect fill="#F1F1F1" height="2" style="stroke:#181818;stroke-width:0.5;" width="4" x="378.5" y="312.2969"/><rect fill="#F1F1F1" height="2" style="stroke:#181818;stroke-width:0.5;" width="4" x="378.5" y="316.2969"/><text fill="#000000" font-family="sans-serif" font-size="14" lengthAdjust="spacing" textLength="143" x="232.5" y="338.292">View Token Balance</text></g><!--entity Monitor Carbon Offsetting Progress--><g id="elem_Monitor Carbon Offsetting Progress"><rect fill="#F1F1F1" height="46.2969" rx="2.5" ry="2.5" style="stroke:#181818;stroke-width:0.5;" width="297" x="435.5" y="305.2969"/><rect fill="#F1F1F1" height="10" style="stroke:#181818;stroke-width:0.5;" width="15" x="712.5" y="310.2969"/><rect fill="#F1F1F1" height="2" style="stroke:#181818;stroke-width:0.5;" width="4" x="710.5" y="312.2969"/><rect fill="#F1F1F1" height="2" style="stroke:#181818;stroke-width:0.5;" width="4" x="710.5" y="316.2969"/><text fill="#000000" font-family="sans-serif" font-size="14" lengthAdjust="spacing" textLength="257" x="450.5" y="338.292">Monitor Carbon Offsetting Progress</text></g><!--entity APIs/Logic--><g id="elem_APIs/Logic"><rect fill="#F1F1F1" height="46.2969" rx="2.5" ry="2.5" style="stroke:#181818;stroke-width:0.5;" width="113" x="1121.5" y="199.2969"/><rect fill="#F1F1F1" height="10" style="stroke:#181818;stroke-width:0.5;" width="15" x="1214.5" y="204.2969"/><rect fill="#F1F1F1" height="2" style="stroke:#181818;stroke-width:0.5;" width="4" x="1212.5" y="206.2969"/><rect fill="#F1F1F1" height="2" style="stroke:#181818;stroke-width:0.5;" width="4" x="1212.5" y="210.2969"/><text fill="#000000" font-family="sans-serif" font-size="14" lengthAdjust="spacing" textLength="73" x="1136.5" y="232.292">APIs/Logic</text></g><!--entity Process User Requests--><g id="elem_Process User Requests"><rect fill="#F1F1F1" height="46.2969" rx="2.5" ry="2.5" style="stroke:#181818;stroke-width:0.5;" width="200" x="823" y="305.2969"/><rect fill="#F1F1F1" height="10" style="stroke:#181818;stroke-width:0.5;" width="15" x="1003" y="310.2969"/><rect fill="#F1F1F1" height="2" style="stroke:#181818;stroke-width:0.5;" width="4" x="1001" y="312.2969"/><rect fill="#F1F1F1" height="2" style="stroke:#181818;stroke-width:0.5;" width="4" x="1001" y="316.2969"/><text fill="#000000" font-family="sans-serif" font-size="14" lengthAdjust="spacing" textLength="160" x="838" y="338.292">Process User Requests</text></g><!--entity Manage Token Transactions--><g id="elem_Manage Token Transactions"><rect fill="#F1F1F1" height="46.2969" rx="2.5" ry="2.5" style="stroke:#181818;stroke-width:0.5;" width="239" x="1058.5" y="305.2969"/><rect fill="#F1F1F1" height="10" style="stroke:#181818;stroke-width:0.5;" width="15" x="1277.5" y="310.2969"/><rect fill="#F1F1F1" height="2" style="stroke:#181818;stroke-width:0.5;" width="4" x="1275.5" y="312.2969"/><rect fill="#F1F1F1" height="2" style="stroke:#181818;stroke-width:0.5;" width="4" x="1275.5" y="316.2969"/><text fill="#000000" font-family="sans-serif" font-size="14" lengthAdjust="spacing" textLength="199" x="1073.5" y="338.292">Manage Token Transactions</text></g><!--entity Integrate AI-based Algorithm for Carbon Offsetting Measurement--><g id="elem_Integrate AI-based Algorithm for Carbon Offsetting Measurement"><rect fill="#F1F1F1" height="46.2969" rx="2.5" ry="2.5" style="stroke:#181818;stroke-width:0.5;" width="513" x="1332.5" y="305.2969"/><rect fill="#F1F1F1" height="10" style="stroke:#181818;stroke-width:0.5;" width="15" x="1825.5" y="310.2969"/><rect fill="#F1F1F1" height="2" style="stroke:#181818;stroke-width:0.5;" width="4" x="1823.5" y="312.2969"/><rect fill="#F1F1F1" height="2" style="stroke:#181818;stroke-width:0.5;" width="4" x="1823.5" y="316.2969"/><text fill="#000000" font-family="sans-serif" font-size="14" lengthAdjust="spacing" textLength="473" x="1347.5" y="338.292">Integrate AI-based Algorithm for Carbon Offsetting Measurement</text></g><!--entity Token Issuance--><g id="elem_Token Issuance"><rect fill="#F1F1F1" height="46.2969" rx="2.5" ry="2.5" style="stroke:#181818;stroke-width:0.5;" width="149" x="1962.5" y="78.2969"/><rect fill="#F1F1F1" height="10" style="stroke:#181818;stroke-width:0.5;" width="15" x="2091.5" y="83.2969"/><rect fill="#F1F1F1" height="2" style="stroke:#181818;stroke-width:0.5;" width="4" x="2089.5" y="85.2969"/><rect fill="#F1F1F1" height="2" style="stroke:#181818;stroke-width:0.5;" width="4" x="2089.5" y="89.2969"/><text fill="#000000" font-family="sans-serif" font-size="14" lengthAdjust="spacing" textLength="109" x="1977.5" y="111.292">Token Issuance</text></g><!--entity Token Transactions--><g id="elem_Token Transactions"><rect fill="#F1F1F1" height="46.2969" rx="2.5" ry="2.5" style="stroke:#181818;stroke-width:0.5;" width="180" x="1947" y="199.2969"/><rect fill="#F1F1F1" height="10" style="stroke:#181818;stroke-width:0.5;" width="15" x="2107" y="204.2969"/><rect fill="#F1F1F1" height="2" style="stroke:#181818;stroke-width:0.5;" width="4" x="2105" y="206.2969"/><rect fill="#F1F1F1" height="2" style="stroke:#181818;stroke-width:0.5;" width="4" x="2105" y="210.2969"/><text fill="#000000" font-family="sans-serif" font-size="14" lengthAdjust="spacing" textLength="140" x="1962" y="232.292">Token Transactions</text></g><!--entity Tokenomics Management--><g id="elem_Tokenomics Management"><rect fill="#F1F1F1" height="46.2969" rx="2.5" ry="2.5" style="stroke:#181818;stroke-width:0.5;" width="225" x="1936.5" y="305.2969"/><rect fill="#F1F1F1" height="10" style="stroke:#181818;stroke-width:0.5;" width="15" x="2141.5" y="310.2969"/><rect fill="#F1F1F1" height="2" style="stroke:#181818;stroke-width:0.5;" width="4" x="2139.5" y="312.2969"/><rect fill="#F1F1F1" height="2" style="stroke:#181818;stroke-width:0.5;" width="4" x="2139.5" y="316.2969"/><text fill="#000000" font-family="sans-serif" font-size="14" lengthAdjust="spacing" textLength="185" x="1951.5" y="338.292">Tokenomics Management</text></g><!--entity Polygon Blockchain (Token Transactions)--><g id="elem_Polygon Blockchain (Token Transactions)"><rect fill="#F1F1F1" height="46.2969" rx="2.5" ry="2.5" style="stroke:#181818;stroke-width:0.5;" width="333" x="1546.5" y="78.2969"/><rect fill="#F1F1F1" height="10" style="stroke:#181818;stroke-width:0.5;" width="15" x="1859.5" y="83.2969"/><rect fill="#F1F1F1" height="2" style="stroke:#181818;stroke-width:0.5;" width="4" x="1857.5" y="85.2969"/><rect fill="#F1F1F1" height="2" style="stroke:#181818;stroke-width:0.5;" width="4" x="1857.5" y="89.2969"/><text fill="#000000" font-family="sans-serif" font-size="14" lengthAdjust="spacing" textLength="293" x="1561.5" y="111.292">Polygon Blockchain (Token Transactions)</text></g><!--entity Data Analytics Module (Carbon Offsetting Measurement)--><g id="elem_Data Analytics Module (Carbon Offsetting Measurement)"><rect fill="#F1F1F1" height="46.2969" rx="2.5" ry="2.5" style="stroke:#181818;stroke-width:0.5;" width="445" x="1066.5" y="78.2969"/><rect fill="#F1F1F1" height="10" style="stroke:#181818;stroke-width:0.5;" width="15" x="1491.5" y="83.2969"/><rect fill="#F1F1F1" height="2" style="stroke:#181818;stroke-width:0.5;" width="4" x="1489.5" y="85.2969"/><rect fill="#F1F1F1" height="2" style="stroke:#181818;stroke-width:0.5;" width="4" x="1489.5" y="89.2969"/><text fill="#000000" font-family="sans-serif" font-size="14" lengthAdjust="spacing" textLength="405" x="1081.5" y="111.292">Data Analytics Module (Carbon Offsetting Measurement)</text></g><!--entity AI-based Algorithm (Carbon Offsetting Measurement)--><g id="elem_AI-based Algorithm (Carbon Offsetting Measurement)"><rect fill="#F1F1F1" height="46.2969" rx="2.5" ry="2.5" style="stroke:#181818;stroke-width:0.5;" width="426" x="584" y="78.2969"/><rect fill="#F1F1F1" height="10" style="stroke:#181818;stroke-width:0.5;" width="15" x="990" y="83.2969"/><rect fill="#F1F1F1" height="2" style="stroke:#181818;stroke-width:0.5;" width="4" x="988" y="85.2969"/><rect fill="#F1F1F1" height="2" style="stroke:#181818;stroke-width:0.5;" width="4" x="988" y="89.2969"/><text fill="#000000" font-family="sans-serif" font-size="14" lengthAdjust="spacing" textLength="386" x="599" y="111.292">AI-based Algorithm (Carbon Offsetting Measurement)</text></g><!--entity MetaMask and WalletConnect (Blockchain Wallet Integration)--><g id="elem_MetaMask and WalletConnect (Blockchain Wallet Integration)"><rect fill="#F1F1F1" height="46.2969" rx="2.5" ry="2.5" style="stroke:#181818;stroke-width:0.5;" width="480" x="69" y="78.2969"/><rect fill="#F1F1F1" height="10" style="stroke:#181818;stroke-width:0.5;" width="15" x="529" y="83.2969"/><rect fill="#F1F1F1" height="2" style="stroke:#181818;stroke-width:0.5;" width="4" x="527" y="85.2969"/><rect fill="#F1F1F1" height="2" style="stroke:#181818;stroke-width:0.5;" width="4" x="527" y="89.2969"/><text fill="#000000" font-family="sans-serif" font-size="14" lengthAdjust="spacing" textLength="440" x="84" y="111.292">MetaMask and WalletConnect (Blockchain Wallet Integration)</text></g><!--link WebUI to Purchase Tokens--><g id="link_WebUI_Purchase Tokens"><path d="M265.858,244.9719 C232.179,261.8929 185.394,285.3985 150.434,302.9628 " fill="none" id="WebUI-to-Purchase Tokens" style="stroke:#181818;stroke-width:1.0;"/><polygon fill="#181818" points="145.799,305.2916,155.6367,304.8236,150.2664,303.0461,152.0439,297.6758,145.799,305.2916" style="stroke:#181818;stroke-width:1.0;"/></g><!--link WebUI to View Token Balance--><g id="link_WebUI_View Token Balance"><path d="M309,245.3529 C309,261.3469 309,283.0749 309,300.1387 " fill="none" id="WebUI-to-View Token Balance" style="stroke:#181818;stroke-width:1.0;"/><polygon fill="#181818" points="309,305.273,313,296.273,309,300.273,305,296.273,309,305.273" style="stroke:#181818;stroke-width:1.0;"/></g><!--link WebUI to Monitor Carbon Offsetting Progress--><g id="link_WebUI_Monitor Carbon Offsetting Progress"><path d="M352.271,239.6609 C397.549,256.7849 469.093,283.8412 520.713,303.3629 " fill="none" id="WebUI-to-Monitor Carbon Offsetting Progress" style="stroke:#181818;stroke-width:1.0;"/><polygon fill="#181818" points="525.645,305.228,518.6417,298.3031,520.9682,303.4594,515.812,305.7859,525.645,305.228" style="stroke:#181818;stroke-width:1.0;"/></g><!--link APIs/Logic to Process User Requests--><g id="link_APIs/Logic_Process User Requests"><path d="M1123.92,245.3529 C1082.25,262.3469 1024.71,285.8138 981.885,303.2809 " fill="none" id="APIs/Logic-to-Process User Requests" style="stroke:#181818;stroke-width:1.0;"/><polygon fill="#181818" points="977.001,305.273,986.8452,305.5773,981.6306,303.3844,983.8235,298.1699,977.001,305.273" style="stroke:#181818;stroke-width:1.0;"/></g><!--link APIs/Logic to Manage Token Transactions--><g id="link_APIs/Logic_Manage Token Transactions"><path d="M1178,245.3529 C1178,261.3469 1178,283.0749 1178,300.1387 " fill="none" id="APIs/Logic-to-Manage Token Transactions" style="stroke:#181818;stroke-width:1.0;"/><polygon fill="#181818" points="1178,305.273,1182,296.273,1178,300.273,1174,296.273,1178,305.273" style="stroke:#181818;stroke-width:1.0;"/></g><!--link APIs/Logic to Integrate AI-based Algorithm for Carbon Offsetting Measurement--><g id="link_APIs/Logic_Integrate AI-based Algorithm for Carbon Offsetting Measurement"><path d="M1234.72,237.6489 C1302.38,254.7699 1416.42,283.6264 1496.81,303.968 " fill="none" id="APIs/Logic-to-Integrate AI-based Algorithm for Carbon Offsetting Measurement" style="stroke:#181818;stroke-width:1.0;"/><polygon fill="#181818" points="1502.05,305.2953,1494.3086,299.2066,1497.2033,304.0668,1492.3431,306.9614,1502.05,305.2953" style="stroke:#181818;stroke-width:1.0;"/></g><!--link Token Issuance to Token Transactions--><g id="link_Token Issuance_Token Transactions"><path d="M2026.82,124.4009 C2023.67,143.9819 2023.42,172.6479 2026.05,193.7229 " fill="none" id="Token Issuance-to-Token Transactions" style="stroke:#181818;stroke-width:1.0;"/><polygon fill="#181818" points="2026.78,198.9069,2029.4812,189.4357,2026.0803,193.9561,2021.5599,190.5552,2026.78,198.9069" style="stroke:#181818;stroke-width:1.0;"/></g><!--link Token Transactions to Token Issuance--><g id="link_Token Transactions_Token Issuance"><path d="M2047.82,198.9069 C2051.13,179.2389 2051.37,150.5659 2048.56,129.5649 " fill="none" id="Token Transactions-to-Token Issuance" style="stroke:#181818;stroke-width:1.0;"/><polygon fill="#181818" points="2047.78,124.4009,2045.1727,133.8984,2048.5287,129.3445,2053.0825,132.7005,2047.78,124.4009" style="stroke:#181818;stroke-width:1.0;"/></g><!--link Token Transactions to Tokenomics Management--><g id="link_Token Transactions_Tokenomics Management"><path d="M2039.54,245.3529 C2041.39,261.3469 2043.9,283.0749 2045.87,300.1387 " fill="none" id="Token Transactions-to-Tokenomics Management" style="stroke:#181818;stroke-width:1.0;"/><polygon fill="#181818" points="2046.46,305.273,2049.3998,295.8731,2045.8857,300.3061,2041.4528,296.792,2046.46,305.273" style="stroke:#181818;stroke-width:1.0;"/></g><!--link Polygon Blockchain (Token Transactions) to Token Transactions--><g id="link_Polygon Blockchain (Token Transactions)_Token Transactions"><path d="M1774.3,124.3879 C1801.22,134.1229 1833.2,145.7289 1862,156.2969 C1898.83,169.8109 1939.96,185.0769 1973.08,197.4179 " fill="none" id="Polygon Blockchain (Token Transactions)-to-Token Transactions" style="stroke:#181818;stroke-width:1.0;"/><polygon fill="#181818" points="1977.91,199.2169,1970.8875,192.3114,1973.2284,197.4613,1968.0785,199.8021,1977.91,199.2169" style="stroke:#181818;stroke-width:1.0;"/></g><!--link Data Analytics Module (Carbon Offsetting Measurement) to APIs/Logic--><g id="link_Data Analytics Module (Carbon Offsetting Measurement)_APIs/Logic"><path d="M1268.38,124.4009 C1249.73,144.3959 1222.24,173.8669 1202.48,195.0519 " fill="none" id="Data Analytics Module (Carbon Offsetting Measurement)-to-APIs/Logic" style="stroke:#181818;stroke-width:1.0;"/><polygon fill="#181818" points="1198.88,198.9069,1207.9515,195.0718,1202.2977,195.2573,1202.1122,189.6035,1198.88,198.9069" style="stroke:#181818;stroke-width:1.0;"/></g><!--link AI-based Algorithm (Carbon Offsetting Measurement) to APIs/Logic--><g id="link_AI-based Algorithm (Carbon Offsetting Measurement)_APIs/Logic"><path d="M867.77,124.4009 C939.223,146.7179 1048.47,180.8399 1116.44,202.0699 " fill="none" id="AI-based Algorithm (Carbon Offsetting Measurement)-to-APIs/Logic" style="stroke:#181818;stroke-width:1.0;"/><polygon fill="#181818" points="1121.26,203.5759,1113.8556,197.0817,1116.486,202.0898,1111.4778,204.7202,1121.26,203.5759" style="stroke:#181818;stroke-width:1.0;"/></g><!--link MetaMask and WalletConnect (Blockchain Wallet Integration) to WebUI--><g id="link_MetaMask and WalletConnect (Blockchain Wallet Integration)_WebUI"><path d="M309,124.4009 C309,143.9819 309,172.6479 309,193.7229 " fill="none" id="MetaMask and WalletConnect (Blockchain Wallet Integration)-to-WebUI" style="stroke:#181818;stroke-width:1.0;"/><polygon fill="#181818" points="309,198.9069,313,189.9069,309,193.9069,305,189.9069,309,198.9069" style="stroke:#181818;stroke-width:1.0;"/></g><!--SRC=[fPJ1Ji9048RlVOg99pWGty2aW2PD83OASZ0UXcKecxQxk3kD4kExktIB55k1mAtPdVd_VsQ_b2Ld10CqSwrWebDICD3vMYjI34E9YS4y2DOeKam8RXwCLangSGDV0S3hZERJw6tx5HT6hD2Irx3bsOkaZqgpZnagGUNnM2l9sknC7vTBIynI9H0RdHYohlkxvjbt7tlBC8xixKWdKdXVeuNhWAab0q_qNf1bxpv6jMtt_XE3og9WgQjiaHl3pSO4OTIRk-0B2BD46ych79QjwSQ4jZ2KkyqS1dpEqR1RcsBZB6mLr1j7rXQ_a_-JfJpMkHGMVEYcnH0POOGRCfLwhBDDulBrCorIjtcfeDEKxvRwPNEeCDjmwQ4NXNlppj49kuV-zvzCnYdiuTYDsRA-ayhRro76CTeKK2rWXbb6x1QeI31qQZFv6zYzbfl91wl8WrxlheMzWzis2WyApk4ng7DNkRQJromy0cAp-5ekWx_SUTbMyvR3UlKUtHELJNI3i_ay4kyoRBrW_Izn2Q8jAbSGwzKySpy0]--></g></svg>