<?xml version="1.0" encoding="us-ascii" standalone="no"?><svg xmlns="http://www.w3.org/2000/svg" xmlns:xlink="http://www.w3.org/1999/xlink" contentStyleType="text/css" height="857px" preserveAspectRatio="none" style="width:4143px;height:857px;background:#FFFFFF;" version="1.1" viewBox="0 0 4143 857" width="4143px" zoomAndPan="magnify"><defs/><g><!--cluster Frontend Application--><g id="cluster_Frontend Application"><path d="M3090.5782,21.4743 L3262.5782,21.4743 A3.75,3.75 0 0 1 3265.0782,23.9743 L3272.0782,43.7712 L3456.5782,43.7712 A2.5,2.5 0 0 1 3459.0782,46.2712 L3459.0782,115.9743 A2.5,2.5 0 0 1 3456.5782,118.4743 L3090.5782,118.4743 A2.5,2.5 0 0 1 3088.0782,115.9743 L3088.0782,23.9743 A2.5,2.5 0 0 1 3090.5782,21.4743 " fill="none" style="stroke:#000000;stroke-width:1.5;"/><line style="stroke:#000000;stroke-width:1.5;" x1="3088.0782" x2="3272.0782" y1="43.7712" y2="43.7712"/><text fill="#000000" font-family="sans-serif" font-size="14" font-weight="bold" lengthAdjust="spacing" textLength="171" x="3092.0782" y="36.4694">Frontend Application</text></g><!--cluster Backend API--><g id="cluster_Backend API"><path d="M225.5812,306.4743 L325.5812,306.4743 A3.75,3.75 0 0 1 328.0812,308.9743 L335.0812,328.7712 L798.5812,328.7712 A2.5,2.5 0 0 1 801.0812,331.2712 L801.0812,400.9743 A2.5,2.5 0 0 1 798.5812,403.4743 L225.5812,403.4743 A2.5,2.5 0 0 1 223.0812,400.9743 L223.0812,308.9743 A2.5,2.5 0 0 1 225.5812,306.4743 " fill="none" style="stroke:#000000;stroke-width:1.5;"/><line style="stroke:#000000;stroke-width:1.5;" x1="223.0812" x2="335.0812" y1="328.7712" y2="328.7712"/><text fill="#000000" font-family="sans-serif" font-size="14" font-weight="bold" lengthAdjust="spacing" textLength="99" x="227.0812" y="321.4694">Backend API</text></g><!--cluster Database--><g id="cluster_Database"><path d="M609.0812,609.4743 C609.0812,599.4743 822.5812,599.4743 822.5812,599.4743 C822.5812,599.4743 1036.0812,599.4743 1036.0812,609.4743 L1036.0812,830.4743 C1036.0812,840.4743 822.5812,840.4743 822.5812,840.4743 C822.5812,840.4743 609.0812,840.4743 609.0812,830.4743 L609.0812,609.4743 " fill="none" style="stroke:#181818;stroke-width:1.0;"/><path d="M609.0812,609.4743 C609.0812,619.4743 822.5812,619.4743 822.5812,619.4743 C822.5812,619.4743 1036.0812,619.4743 1036.0812,609.4743 " fill="none" style="stroke:#181818;stroke-width:1.0;"/><text fill="#000000" font-family="sans-serif" font-size="14" font-weight="bold" lengthAdjust="spacing" textLength="77" x="784.0812" y="634.4694">Database</text></g><!--cluster Polygon Blockchain Integration--><g id="cluster_Polygon Blockchain Integration"><path d="M3493.4098,32.4053 C3498.8052,21.7065 3510.1163,20.3833 3517.7668,29.6549 C3526.9569,19.6084 3535.1789,21.4954 3541.923,32.4662 C3547.588,20.7589 3555.0887,20.3076 3564.0553,28.8594 C3572.6305,14.3827 3581.6353,14.6471 3590.9616,28.1368 C3596.3664,15.6518 3606.9943,17.3025 3614.0536,26.3636 C3622.7277,14.5245 3634.4793,17.0737 3639.5074,30.0964 C3645.3985,15.7656 3654.0635,14.4874 3664.4031,25.773 C3670.3432,17.0108 3679.3294,17.7485 3684.8595,26.2586 C3693.8368,14.0099 3705.2509,14.2797 3712.893,27.7158 C3719.1984,18.0276 3729.2453,19.5418 3733.5432,29.7947 C3742.2999,16.6259 3752.893,15.7069 3760.5989,30.8005 C3768.0503,18.9351 3775.1002,19.786 3783.191,30.1507 C3789.1336,20.7134 3800.6404,18.8983 3806.1303,30.6411 C3814.0405,17.7158 3823.4088,18.6685 3831.3193,30.6409 C3850.8783,39.0484 3855.15,58.1565 3837.1688,71.8878 C3852.7063,85.4856 3852.9333,100.3165 3833.5406,110.6444 C3828.179,123.646 3815.975,128.2045 3806.1931,115.3129 C3800.5942,124.4079 3791.9012,125.3898 3785.3073,116.4663 C3777.0565,128.3199 3766.7237,131.61 3757.7053,117.2755 C3750.4549,126.3647 3739.1513,127.9466 3733.8228,115.1757 C3729.2257,127.6583 3719.4253,128.8958 3711.1239,118.9196 C3703.5066,129.3721 3695.7741,131.0584 3687.5654,119.5542 C3679.0296,129.2357 3670.6136,128.8266 3663.7418,117.6533 C3658.2163,130.6306 3645.3035,133.3609 3637.1345,120.3609 C3630.5823,129.7972 3620.3411,128.9519 3616.0139,118.0503 C3605.6419,130.1759 3597.2766,130.8943 3588.9755,115.9794 C3581.5842,127.5218 3573.9979,127.6193 3566.5042,116.0791 C3559.3167,128.0439 3549.8786,124.5828 3543.9205,114.8023 C3535.2261,125.6671 3526.1293,125.9646 3517.4204,114.8197 C3508.0425,124.7089 3499.7451,123.8264 3492.1946,112.6331 C3466.4926,106.6018 3463.7775,86.3253 3482.4561,70.1262 C3470.1254,53.5117 3474.2854,39.8856 3493.4098,32.4053 " fill="none" style="stroke:#181818;stroke-width:1.0;"/><text fill="#000000" font-family="sans-serif" font-size="14" font-weight="bold" lengthAdjust="spacing" textLength="254" x="3533.5782" y="47.4694">Polygon Blockchain Integration</text></g><!--cluster Reforestation Management System--><g id="cluster_Reforestation Management System"><path d="M2593.6197,29.7502 C2602.8962,18.1399 2615.1687,17.4964 2621.2262,33.0247 C2632.1574,15.3345 2646.1199,14.7589 2657.4791,32.5878 C2666.6405,19.1557 2676.6406,15.8975 2687.4553,30.8413 C2695.9409,16.391 2711.2972,13.8738 2721.2852,29.1303 C2732.1802,8.4777 2745.0539,12.0717 2758.6776,26.1963 C2767.554,11.7512 2780.1446,12.2825 2788.7978,26.4315 C2800.0715,8.8584 2811.2871,6 2824.5712,24.4342 C2833.9854,9.273 2846.6062,11.4636 2855.3445,25.155 C2863.9713,8.9429 2878.4055,9.2775 2886.2177,25.9204 C2896.8066,11.0641 2911.9748,13.522 2920.8103,27.9889 C2931.4555,16.1712 2941.2358,15.5776 2950.7894,29.2716 C2961.6642,12.1389 2977.7384,14.4349 2988.0996,29.8603 C2997.4856,15.0493 3008.9536,16.3675 3016.8134,31.3321 C3029.0121,14.6259 3048.5446,17.5589 3056.0782,36.4743 C3059.3912,35.8198 3060.5826,37.1661 3060.4427,40.375 C3078.2333,49.5486 3075.6482,60.0898 3063.2409,71.9403 C3080.7063,81.6326 3081.3394,97.3308 3064.6206,108.3197 C3081.0098,115.3381 3082.5546,125.3272 3069.7693,137.4943 C3084.8426,150.8427 3084.5792,164.0547 3065.9971,173.9176 C3083.481,188.4205 3082.8881,199.4554 3062.1519,209.8708 C3073.2758,224.0622 3066.7636,241.8618 3049.0782,245.4743 C3051.62,243.5321 3053.2883,244.1938 3054.251,247.144 C3045.052,265.1017 3029.5638,264.5276 3019.616,247.8938 C3010.3387,263.3615 2999.3333,266.4693 2986.8534,251.3211 C2976.6694,263.9244 2961.6117,263.6331 2955.533,246.9332 C2946.722,264.8167 2936.5118,266.9193 2922.1862,252.6529 C2909.3379,269.8801 2895.4596,265.255 2886.0074,248.985 C2877.522,262.0296 2862.9886,263.2816 2854.0508,249.5244 C2843.5626,267.1983 2832.5904,266.9948 2820.9237,250.6728 C2810.8386,264.0679 2796.3828,264.1507 2787.8369,248.8952 C2780.1214,264.3104 2766.2198,265.57 2756.3335,251.1905 C2748.4468,266.7136 2733.2222,266.0472 2725.4301,251.0947 C2714.7344,266.3333 2698.4464,269.1091 2687.6126,251.2524 C2676.3489,265.6106 2665.2292,265.3688 2656.9482,248.3386 C2648.2949,264.9753 2634.1373,262.7614 2624.0767,249.9072 C2607.6004,264.7867 2586.9313,263.5479 2581.0782,238.4743 C2583.5792,237.5712 2585.2064,239.1462 2584.9119,241.6345 C2569.0608,234.5357 2565.0485,221.3171 2579.3582,209.0739 C2562.7443,198.7114 2558.929,186.4249 2577.4335,174.1282 C2560.66,165.11 2562.6705,150.598 2576.8107,140.9987 C2561.0549,127.693 2564.9117,113.9922 2582.1646,105.6919 C2567.3637,92.9297 2569.4189,82.0252 2584.6436,71.4358 C2567.6483,57.5062 2566.3676,40.2357 2588.0782,29.4743 C2589.8799,26.8915 2592.0691,27.2907 2593.6197,29.7502 " fill="none" style="stroke:#181818;stroke-width:1.0;"/><text fill="#000000" font-family="sans-serif" font-size="14" font-weight="bold" lengthAdjust="spacing" textLength="288" x="2674.5782" y="47.4694">Reforestation Management System</text></g><!--cluster Security Infrastructure--><g id="cluster_Security Infrastructure"><polygon fill="none" points="3862.0782,26.4743,3872.0782,16.4743,4126.0782,16.4743,4126.0782,108.4743,4116.0782,118.4743,3862.0782,118.4743,3862.0782,26.4743" style="stroke:#181818;stroke-width:1.0;"/><line style="stroke:#181818;stroke-width:1.0;" x1="4116.0782" x2="4126.0782" y1="26.4743" y2="16.4743"/><line style="stroke:#181818;stroke-width:1.0;" x1="3862.0782" x2="4116.0782" y1="26.4743" y2="26.4743"/><line style="stroke:#181818;stroke-width:1.0;" x1="4116.0782" x2="4116.0782" y1="26.4743" y2="118.4743"/><text fill="#000000" font-family="sans-serif" font-size="14" font-weight="bold" lengthAdjust="spacing" textLength="188" x="3896.0782" y="42.4694">Security Infrastructure</text></g><!--entity User Interface--><g id="elem_User Interface"><rect fill="#F1F1F1" height="46.2969" rx="2.5" ry="2.5" style="stroke:#181818;stroke-width:0.5;" width="141" x="3301.5782" y="56.4743"/><rect fill="#F1F1F1" height="10" style="stroke:#181818;stroke-width:0.5;" width="15" x="3422.5782" y="61.4743"/><rect fill="#F1F1F1" height="2" style="stroke:#181818;stroke-width:0.5;" width="4" x="3420.5782" y="63.4743"/><rect fill="#F1F1F1" height="2" style="stroke:#181818;stroke-width:0.5;" width="4" x="3420.5782" y="67.4743"/><text fill="#000000" font-family="sans-serif" font-size="14" lengthAdjust="spacing" textLength="101" x="3316.5782" y="89.4694">User Interface</text></g><!--entity User Interactions--><g id="elem_User Interactions"><rect fill="#F1F1F1" height="46.2969" rx="2.5" ry="2.5" style="stroke:#181818;stroke-width:0.5;" width="162" x="3104.0782" y="56.4743"/><rect fill="#F1F1F1" height="10" style="stroke:#181818;stroke-width:0.5;" width="15" x="3246.0782" y="61.4743"/><rect fill="#F1F1F1" height="2" style="stroke:#181818;stroke-width:0.5;" width="4" x="3244.0782" y="63.4743"/><rect fill="#F1F1F1" height="2" style="stroke:#181818;stroke-width:0.5;" width="4" x="3244.0782" y="67.4743"/><text fill="#000000" font-family="sans-serif" font-size="14" lengthAdjust="spacing" textLength="122" x="3119.0782" y="89.4694">User Interactions</text></g><!--entity Authentication--><g id="elem_Authentication"><rect fill="#F1F1F1" height="46.2969" rx="2.5" ry="2.5" style="stroke:#181818;stroke-width:0.5;" width="148" x="637.0812" y="341.4743"/><rect fill="#F1F1F1" height="10" style="stroke:#181818;stroke-width:0.5;" width="15" x="765.0812" y="346.4743"/><rect fill="#F1F1F1" height="2" style="stroke:#181818;stroke-width:0.5;" width="4" x="763.0812" y="348.4743"/><rect fill="#F1F1F1" height="2" style="stroke:#181818;stroke-width:0.5;" width="4" x="763.0812" y="352.4743"/><text fill="#000000" font-family="sans-serif" font-size="14" lengthAdjust="spacing" textLength="108" x="652.0812" y="374.4694">Authentication</text></g><!--entity Token Transactions--><g id="elem_Token Transactions"><rect fill="#F1F1F1" height="46.2969" rx="2.5" ry="2.5" style="stroke:#181818;stroke-width:0.5;" width="180" x="422.0812" y="341.4743"/><rect fill="#F1F1F1" height="10" style="stroke:#181818;stroke-width:0.5;" width="15" x="582.0812" y="346.4743"/><rect fill="#F1F1F1" height="2" style="stroke:#181818;stroke-width:0.5;" width="4" x="580.0812" y="348.4743"/><rect fill="#F1F1F1" height="2" style="stroke:#181818;stroke-width:0.5;" width="4" x="580.0812" y="352.4743"/><text fill="#000000" font-family="sans-serif" font-size="14" lengthAdjust="spacing" textLength="140" x="437.0812" y="374.4694">Token Transactions</text></g><!--entity Data Exchange--><g id="elem_Data Exchange"><rect fill="#F1F1F1" height="46.2969" rx="2.5" ry="2.5" style="stroke:#181818;stroke-width:0.5;" width="147" x="239.5812" y="341.4743"/><rect fill="#F1F1F1" height="10" style="stroke:#181818;stroke-width:0.5;" width="15" x="366.5812" y="346.4743"/><rect fill="#F1F1F1" height="2" style="stroke:#181818;stroke-width:0.5;" width="4" x="364.5812" y="348.4743"/><rect fill="#F1F1F1" height="2" style="stroke:#181818;stroke-width:0.5;" width="4" x="364.5812" y="352.4743"/><text fill="#000000" font-family="sans-serif" font-size="14" lengthAdjust="spacing" textLength="107" x="254.5812" y="374.4694">Data Exchange</text></g><!--entity User Data--><g id="elem_User Data"><rect fill="#F1F1F1" height="46.2969" rx="2.5" ry="2.5" style="stroke:#181818;stroke-width:0.5;" width="109" x="652.5812" y="657.4743"/><rect fill="#F1F1F1" height="10" style="stroke:#181818;stroke-width:0.5;" width="15" x="741.5812" y="662.4743"/><rect fill="#F1F1F1" height="2" style="stroke:#181818;stroke-width:0.5;" width="4" x="739.5812" y="664.4743"/><rect fill="#F1F1F1" height="2" style="stroke:#181818;stroke-width:0.5;" width="4" x="739.5812" y="668.4743"/><text fill="#000000" font-family="sans-serif" font-size="14" lengthAdjust="spacing" textLength="69" x="667.5812" y="690.4694">User Data</text></g><!--entity Reforestation Initiatives--><g id="elem_Reforestation Initiatives"><rect fill="#F1F1F1" height="46.2969" rx="2.5" ry="2.5" style="stroke:#181818;stroke-width:0.5;" width="215" x="796.5812" y="657.4743"/><rect fill="#F1F1F1" height="10" style="stroke:#181818;stroke-width:0.5;" width="15" x="991.5812" y="662.4743"/><rect fill="#F1F1F1" height="2" style="stroke:#181818;stroke-width:0.5;" width="4" x="989.5812" y="664.4743"/><rect fill="#F1F1F1" height="2" style="stroke:#181818;stroke-width:0.5;" width="4" x="989.5812" y="668.4743"/><text fill="#000000" font-family="sans-serif" font-size="14" lengthAdjust="spacing" textLength="175" x="811.5812" y="690.4694">Reforestation Initiatives</text></g><!--entity Carbon Token Transactions--><g id="elem_Carbon Token Transactions"><rect fill="#F1F1F1" height="46.2969" rx="2.5" ry="2.5" style="stroke:#181818;stroke-width:0.5;" width="236" x="652.0812" y="770.4743"/><rect fill="#F1F1F1" height="10" style="stroke:#181818;stroke-width:0.5;" width="15" x="868.0812" y="775.4743"/><rect fill="#F1F1F1" height="2" style="stroke:#181818;stroke-width:0.5;" width="4" x="866.0812" y="777.4743"/><rect fill="#F1F1F1" height="2" style="stroke:#181818;stroke-width:0.5;" width="4" x="866.0812" y="781.4743"/><text fill="#000000" font-family="sans-serif" font-size="14" lengthAdjust="spacing" textLength="196" x="667.0812" y="803.4694">Carbon Token Transactions</text></g><!--entity Token Issuance--><g id="elem_Token Issuance"><rect fill="#F1F1F1" height="46.2969" rx="2.5" ry="2.5" style="stroke:#181818;stroke-width:0.5;" width="149" x="3672.5782" y="56.4743"/><rect fill="#F1F1F1" height="10" style="stroke:#181818;stroke-width:0.5;" width="15" x="3801.5782" y="61.4743"/><rect fill="#F1F1F1" height="2" style="stroke:#181818;stroke-width:0.5;" width="4" x="3799.5782" y="63.4743"/><rect fill="#F1F1F1" height="2" style="stroke:#181818;stroke-width:0.5;" width="4" x="3799.5782" y="67.4743"/><text fill="#000000" font-family="sans-serif" font-size="14" lengthAdjust="spacing" textLength="109" x="3687.5782" y="89.4694">Token Issuance</text></g><!--entity User Balances--><g id="elem_User Balances"><rect fill="#F1F1F1" height="46.2969" rx="2.5" ry="2.5" style="stroke:#181818;stroke-width:0.5;" width="138" x="3499.0782" y="56.4743"/><rect fill="#F1F1F1" height="10" style="stroke:#181818;stroke-width:0.5;" width="15" x="3617.0782" y="61.4743"/><rect fill="#F1F1F1" height="2" style="stroke:#181818;stroke-width:0.5;" width="4" x="3615.0782" y="63.4743"/><rect fill="#F1F1F1" height="2" style="stroke:#181818;stroke-width:0.5;" width="4" x="3615.0782" y="67.4743"/><text fill="#000000" font-family="sans-serif" font-size="14" lengthAdjust="spacing" textLength="98" x="3514.0782" y="89.4694">User Balances</text></g><!--entity Initiatives Monitoring--><g id="elem_Initiatives Monitoring"><rect fill="#F1F1F1" height="46.2969" rx="2.5" ry="2.5" style="stroke:#181818;stroke-width:0.5;" width="193" x="2589.5782" y="56.4743"/><rect fill="#F1F1F1" height="10" style="stroke:#181818;stroke-width:0.5;" width="15" x="2762.5782" y="61.4743"/><rect fill="#F1F1F1" height="2" style="stroke:#181818;stroke-width:0.5;" width="4" x="2760.5782" y="63.4743"/><rect fill="#F1F1F1" height="2" style="stroke:#181818;stroke-width:0.5;" width="4" x="2760.5782" y="67.4743"/><text fill="#000000" font-family="sans-serif" font-size="14" lengthAdjust="spacing" textLength="153" x="2604.5782" y="89.4694">Initiatives Monitoring</text></g><!--entity Carbon Offset Verification--><g id="elem_Carbon Offset Verification"><rect fill="#F1F1F1" height="46.2969" rx="2.5" ry="2.5" style="stroke:#181818;stroke-width:0.5;" width="230" x="2818.0782" y="56.4743"/><rect fill="#F1F1F1" height="10" style="stroke:#181818;stroke-width:0.5;" width="15" x="3028.0782" y="61.4743"/><rect fill="#F1F1F1" height="2" style="stroke:#181818;stroke-width:0.5;" width="4" x="3026.0782" y="63.4743"/><rect fill="#F1F1F1" height="2" style="stroke:#181818;stroke-width:0.5;" width="4" x="3026.0782" y="67.4743"/><text fill="#000000" font-family="sans-serif" font-size="14" lengthAdjust="spacing" textLength="190" x="2833.0782" y="89.4694">Carbon Offset Verification</text></g><!--entity Token Distribution--><g id="elem_Token Distribution"><rect fill="#F1F1F1" height="46.2969" rx="2.5" ry="2.5" style="stroke:#181818;stroke-width:0.5;" width="175" x="2598.5782" y="191.4743"/><rect fill="#F1F1F1" height="10" style="stroke:#181818;stroke-width:0.5;" width="15" x="2753.5782" y="196.4743"/><rect fill="#F1F1F1" height="2" style="stroke:#181818;stroke-width:0.5;" width="4" x="2751.5782" y="198.4743"/><rect fill="#F1F1F1" height="2" style="stroke:#181818;stroke-width:0.5;" width="4" x="2751.5782" y="202.4743"/><text fill="#000000" font-family="sans-serif" font-size="14" lengthAdjust="spacing" textLength="135" x="2613.5782" y="224.4694">Token Distribution</text></g><!--entity Security Measures--><g id="elem_Security Measures"><rect fill="#F1F1F1" height="46.2969" rx="2.5" ry="2.5" style="stroke:#181818;stroke-width:0.5;" width="169" x="3909.5782" y="56.4743"/><rect fill="#F1F1F1" height="10" style="stroke:#181818;stroke-width:0.5;" width="15" x="4058.5782" y="61.4743"/><rect fill="#F1F1F1" height="2" style="stroke:#181818;stroke-width:0.5;" width="4" x="4056.5782" y="63.4743"/><rect fill="#F1F1F1" height="2" style="stroke:#181818;stroke-width:0.5;" width="4" x="4056.5782" y="67.4743"/><text fill="#000000" font-family="sans-serif" font-size="14" lengthAdjust="spacing" textLength="129" x="3924.5782" y="89.4694">Security Measures</text></g><!--entity UserInterface--><g id="elem_UserInterface"><ellipse cx="1299.0782" cy="214.4743" fill="#F1F1F1" rx="8" ry="8" style="stroke:#181818;stroke-width:0.5;"/><text fill="#000000" font-family="sans-serif" font-size="14" lengthAdjust="spacing" textLength="97" x="1250.5782" y="244.4694">UserInterface</text></g><!--entity TokenTransactions--><g id="elem_TokenTransactions"><ellipse cx="1299.0782" cy="364.4743" fill="#F1F1F1" rx="8" ry="8" style="stroke:#181818;stroke-width:0.5;"/><text fill="#000000" font-family="sans-serif" font-size="14" lengthAdjust="spacing" textLength="136" x="1231.0782" y="394.4694">TokenTransactions</text></g><!--entity InitiativesMonitoring--><g id="elem_InitiativesMonitoring"><ellipse cx="2008.0782" cy="364.4743" fill="#F1F1F1" rx="8" ry="8" style="stroke:#181818;stroke-width:0.5;"/><text fill="#000000" font-family="sans-serif" font-size="14" lengthAdjust="spacing" textLength="149" x="1933.5782" y="394.4694">InitiativesMonitoring</text></g><!--entity UserData--><g id="elem_UserData"><ellipse cx="434.0812" cy="499.4743" fill="#F1F1F1" rx="8" ry="8" style="stroke:#181818;stroke-width:0.5;"/><text fill="#000000" font-family="sans-serif" font-size="14" lengthAdjust="spacing" textLength="65" x="401.5812" y="529.4694">UserData</text></g><!--entity PolygonBlockchainIntegration--><g id="elem_PolygonBlockchainIntegration"><ellipse cx="1303.0782" cy="499.4743" fill="#F1F1F1" rx="8" ry="8" style="stroke:#181818;stroke-width:0.5;"/><text fill="#000000" font-family="sans-serif" font-size="14" lengthAdjust="spacing" textLength="216" x="1195.0782" y="529.4694">PolygonBlockchainIntegration</text></g><!--entity DataExchange--><g id="elem_DataExchange"><ellipse cx="2049.0782" cy="214.4743" fill="#F1F1F1" rx="8" ry="8" style="stroke:#181818;stroke-width:0.5;"/><text fill="#000000" font-family="sans-serif" font-size="14" lengthAdjust="spacing" textLength="103" x="1997.5782" y="244.4694">DataExchange</text></g><!--entity ReforestationInitiatives--><g id="elem_ReforestationInitiatives"><ellipse cx="603.0812" cy="499.4743" fill="#F1F1F1" rx="8" ry="8" style="stroke:#181818;stroke-width:0.5;"/><text fill="#000000" font-family="sans-serif" font-size="14" lengthAdjust="spacing" textLength="171" x="517.5812" y="529.4694">ReforestationInitiatives</text></g><!--entity CarbonTokenTransactions--><g id="elem_CarbonTokenTransactions"><ellipse cx="833.0812" cy="499.4743" fill="#F1F1F1" rx="8" ry="8" style="stroke:#181818;stroke-width:0.5;"/><text fill="#000000" font-family="sans-serif" font-size="14" lengthAdjust="spacing" textLength="188" x="739.0812" y="529.4694">CarbonTokenTransactions</text></g><!--entity TokenIssuance--><g id="elem_TokenIssuance"><ellipse cx="1594.0782" cy="680.4743" fill="#F1F1F1" rx="8" ry="8" style="stroke:#181818;stroke-width:0.5;"/><text fill="#000000" font-family="sans-serif" font-size="14" lengthAdjust="spacing" textLength="105" x="1541.5782" y="710.4694">TokenIssuance</text></g><!--entity UserBalances--><g id="elem_UserBalances"><ellipse cx="1147.0782" cy="680.4743" fill="#F1F1F1" rx="8" ry="8" style="stroke:#181818;stroke-width:0.5;"/><text fill="#000000" font-family="sans-serif" font-size="14" lengthAdjust="spacing" textLength="94" x="1100.0782" y="710.4694">UserBalances</text></g><!--entity TokenDistribution--><g id="elem_TokenDistribution"><ellipse cx="2216.0782" cy="214.4743" fill="#F1F1F1" rx="8" ry="8" style="stroke:#181818;stroke-width:0.5;"/><text fill="#000000" font-family="sans-serif" font-size="14" lengthAdjust="spacing" textLength="131" x="2150.5782" y="244.4694">TokenDistribution</text></g><!--entity SecurityInfrastructure--><g id="elem_SecurityInfrastructure"><ellipse cx="1074.0812" cy="79.4743" fill="#F1F1F1" rx="8" ry="8" style="stroke:#181818;stroke-width:0.5;"/><text fill="#000000" font-family="sans-serif" font-size="14" lengthAdjust="spacing" textLength="158" x="995.0812" y="109.4694">SecurityInfrastructure</text></g><!--entity CarbonOffsetVerification--><g id="elem_CarbonOffsetVerification"><ellipse cx="2423.0782" cy="214.4743" fill="#F1F1F1" rx="8" ry="8" style="stroke:#181818;stroke-width:0.5;"/><text fill="#000000" font-family="sans-serif" font-size="14" lengthAdjust="spacing" textLength="182" x="2332.0782" y="244.4694">CarbonOffsetVerification</text></g><!--link UserInterface to Authentication--><g id="link_UserInterface_Authentication"><path d="M1289.9082,222.1003 C1275.1582,232.3923 1244.8782,252.0193 1216.0782,261.4743 C1176.4882,274.4733 1164.3682,267.7933 1123.0782,273.4743 C1046.9902,283.9453 1027.2912,282.8913 952.0812,298.4743 C897.0142,309.8843 835.8462,326.4293 788.9142,339.9713 " fill="none" id="UserInterface-to-Authentication" style="stroke:#181818;stroke-width:1.0;"/><polygon fill="#181818" points="783.8422,341.4393,793.5994,342.7796,788.6451,340.0493,791.3754,335.095,783.8422,341.4393" style="stroke:#181818;stroke-width:1.0;"/><text fill="#000000" font-family="sans-serif" font-size="13" lengthAdjust="spacing" textLength="163" x="1124.0782" y="286.5412">Data Retrieval &amp; Updates</text></g><!--link UserInterface to TokenTransactions--><g id="link_UserInterface_TokenTransactions"><path d="M1298.5182,223.7293 C1297.7882,234.9723 1296.5382,255.7343 1296.0782,273.4743 C1295.3882,300.4333 1296.9882,331.9253 1298.1082,349.6003 " fill="none" id="UserInterface-to-TokenTransactions" style="stroke:#181818;stroke-width:1.0;"/><polygon fill="#181818" points="1298.4682,355.0383,1301.8721,345.7963,1298.1418,350.049,1293.8891,346.3187,1298.4682,355.0383" style="stroke:#181818;stroke-width:1.0;"/><text fill="#000000" font-family="sans-serif" font-size="13" lengthAdjust="spacing" textLength="125" x="1297.0782" y="286.5412">Token Transactions</text></g><!--link UserInterface to InitiativesMonitoring--><g id="link_UserInterface_InitiativesMonitoring"><path d="M1308.3782,219.6523 C1338.9182,233.1243 1439.1882,275.4183 1527.0782,290.4743 C1567.8282,297.4543 1859.3482,287.0643 1899.0782,298.4743 C1937.0782,309.3843 1975.3582,336.9323 1994.8582,352.4363 " fill="none" id="UserInterface-to-InitiativesMonitoring" style="stroke:#181818;stroke-width:1.0;"/><polygon fill="#181818" points="1998.9482,355.7343,1994.4566,346.9693,1995.0573,352.5941,1989.4324,353.1948,1998.9482,355.7343" style="stroke:#181818;stroke-width:1.0;"/><text fill="#000000" font-family="sans-serif" font-size="13" lengthAdjust="spacing" textLength="266" x="1528.0782" y="286.5412">Reforestation Initiatives &amp; Carbon Tokens</text></g><!--link Authentication to UserData--><g id="link_Authentication_UserData"><path d="M667.6842,387.4933 C652.3722,395.1773 635.0052,403.7963 619.0812,411.4743 C563.0192,438.5053 548.3292,443.8333 492.0812,470.4743 C476.8722,477.6773 459.5002,486.0883 447.7642,491.7973 " fill="none" id="Authentication-to-UserData" style="stroke:#181818;stroke-width:1.0;"/><polygon fill="#181818" points="443.1032,494.0673,452.9461,493.7245,447.5988,491.8788,449.4445,486.5315,443.1032,494.0673" style="stroke:#181818;stroke-width:1.0;"/><text fill="#000000" font-family="sans-serif" font-size="13" lengthAdjust="spacing" textLength="193" x="594.0812" y="436.5412">Authenticate &amp; Register Users</text></g><!--link TokenTransactions to PolygonBlockchainIntegration--><g id="link_TokenTransactions_PolygonBlockchainIntegration"><path d="M1299.3282,373.7943 C1299.9982,396.0933 1301.8482,457.3633 1302.6682,484.8343 " fill="none" id="TokenTransactions-to-PolygonBlockchainIntegration" style="stroke:#181818;stroke-width:1.0;"/><polygon fill="#181818" points="1302.8282,490.1573,1306.5565,481.0414,1302.6783,485.1595,1298.5601,481.2813,1302.8282,490.1573" style="stroke:#181818;stroke-width:1.0;"/><text fill="#000000" font-family="sans-serif" font-size="13" lengthAdjust="spacing" textLength="125" x="1303.0782" y="436.5412">Token Transactions</text></g><!--link DataExchange to InitiativesMonitoring--><g id="link_DataExchange_InitiativesMonitoring"><path d="M2039.9682,221.5573 C2024.7182,231.4523 1992.7782,250.9803 1963.0782,261.4743 C1936.2082,270.9713 1918.2482,251.5143 1900.0782,273.4743 C1895.2682,279.2953 1896.5382,283.8013 1900.0782,290.4743 C1920.1982,328.3543 1969.7182,350.1573 1994.0882,358.9263 " fill="none" id="DataExchange-to-InitiativesMonitoring" style="stroke:#181818;stroke-width:1.0;"/><polygon fill="#181818" points="1998.8782,360.6003,1991.6926,353.8648,1994.1559,358.9571,1989.0636,361.4204,1998.8782,360.6003" style="stroke:#181818;stroke-width:1.0;"/><text fill="#000000" font-family="sans-serif" font-size="13" lengthAdjust="spacing" textLength="271" x="1901.0782" y="286.5412">Manage &amp; Monitor Reforestation Initiatives</text></g><!--reverse link UserData to Database--><g id="link_UserData_Database"><path d="M435.3782,513.7213 C437.5282,529.7563 443.0852,556.9103 457.0812,575.4743 C482.2107,608.8068 521.3632,634.5215 554.6472,652.0424 C571.2892,660.8029 586.4641,667.5148 597.6854,672.1063 C600.4907,673.2542 603.0489,674.2695 605.3212,675.1512 C606.4574,675.5921 607.522,675.9995 608.5103,676.3734 C608.6339,676.4201 608.7562,676.4663 608.8774,676.512 " fill="none" id="UserData-backto-Database" style="stroke:#181818;stroke-width:1.0;"/><polygon fill="#181818" points="434.7732,508.7393,431.8877,518.156,435.3761,513.7028,439.8293,517.1913,434.7732,508.7393" style="stroke:#181818;stroke-width:1.0;"/><text fill="#000000" font-family="sans-serif" font-size="13" lengthAdjust="spacing" textLength="141" x="458.0812" y="571.5412">Store &amp; Retrieve Data</text></g><!--reverse link ReforestationInitiatives to Database--><g id="link_ReforestationInitiatives_Database"><path d="M604.1472,514.0983 C604.951,524.376 606.1415,539.5992 607.48,556.7142 C608.1493,565.2716 608.8556,574.302 609.569,583.4236 C609.9257,587.9844 610.2841,592.568 610.6407,597.1268 C610.6852,597.6966 610.7298,598.266 610.7743,598.835 " fill="none" id="ReforestationInitiatives-backto-Database" style="stroke:#181818;stroke-width:1.0;"/><polygon fill="#181818" points="603.7192,508.6303,600.4335,517.9149,604.1092,513.6151,608.4091,517.2908,603.7192,508.6303" style="stroke:#181818;stroke-width:1.0;"/><text fill="#000000" font-family="sans-serif" font-size="13" lengthAdjust="spacing" textLength="141" x="610.0812" y="571.5412">Store &amp; Retrieve Data</text></g><!--reverse link CarbonTokenTransactions to Database--><g id="link_CarbonTokenTransactions_Database"><path d="M824.9272,513.5503 C813.0952,531.2023 789.3462,561.9933 760.0812,575.4743 C735.0012,587.0273 656.8422,565.2683 636.0812,583.4743 C632.0573,587.0029 628.736,591.1167 626.0053,595.6181 C625.3227,596.7435 624.6769,597.8931 624.0663,599.0638 " fill="none" id="CarbonTokenTransactions-backto-Database" style="stroke:#181818;stroke-width:1.0;"/><polygon fill="#181818" points="827.9432,508.9453,819.6656,514.282,825.2034,513.1278,826.3576,518.6657,827.9432,508.9453" style="stroke:#181818;stroke-width:1.0;"/><text fill="#000000" font-family="sans-serif" font-size="13" lengthAdjust="spacing" textLength="141" x="785.0812" y="571.5412">Store &amp; Retrieve Data</text></g><!--link PolygonBlockchainIntegration to TokenIssuance--><g id="link_PolygonBlockchainIntegration_TokenIssuance"><path d="M1312.1082,506.0273 C1354.0182,531.8093 1529.7282,639.8903 1580.3682,671.0393 " fill="none" id="PolygonBlockchainIntegration-to-TokenIssuance" style="stroke:#181818;stroke-width:1.0;"/><polygon fill="#181818" points="1584.8682,673.8083,1579.2908,665.6908,1580.6071,671.1924,1575.1055,672.5087,1584.8682,673.8083" style="stroke:#181818;stroke-width:1.0;"/><text fill="#000000" font-family="sans-serif" font-size="13" lengthAdjust="spacing" textLength="300" x="1424.0782" y="571.5412">Issue Tokens Based on Verified Carbon Offsets</text></g><!--link PolygonBlockchainIntegration to UserBalances--><g id="link_PolygonBlockchainIntegration_UserBalances"><path d="M1293.9482,505.6323 C1278.2982,514.7853 1245.9382,535.1153 1224.0782,558.4743 C1191.5282,593.2743 1164.6082,643.6693 1153.0982,666.8913 " fill="none" id="PolygonBlockchainIntegration-to-UserBalances" style="stroke:#181818;stroke-width:1.0;"/><polygon fill="#181818" points="1150.8782,671.4193,1158.4326,665.1002,1153.0799,666.9301,1151.2499,661.5775,1150.8782,671.4193" style="stroke:#181818;stroke-width:1.0;"/><text fill="#000000" font-family="sans-serif" font-size="13" lengthAdjust="spacing" textLength="147" x="1225.0782" y="571.5412">Maintain User Balances</text></g><!--link TokenDistribution to InitiativesMonitoring--><g id="link_TokenDistribution_InitiativesMonitoring"><path d="M2213.8582,223.5933 C2209.3282,238.6883 2197.7082,271.2773 2177.0782,290.4743 C2130.4182,333.9053 2053.8782,353.9743 2022.3382,360.7203 " fill="none" id="TokenDistribution-to-InitiativesMonitoring" style="stroke:#181818;stroke-width:1.0;"/><polygon fill="#181818" points="2017.3382,361.7593,2026.9625,363.8503,2022.2342,360.7449,2025.3396,356.0166,2017.3382,361.7593" style="stroke:#181818;stroke-width:1.0;"/><text fill="#000000" font-family="sans-serif" font-size="13" lengthAdjust="spacing" textLength="274" x="2192.0782" y="286.5412">Update &amp; Retrieve Reforestation Initiatives</text></g><!--link TokenDistribution to PolygonBlockchainIntegration--><g id="link_TokenDistribution_PolygonBlockchainIntegration"><path d="M2225.2782,221.7793 C2241.0182,232.1823 2274.4682,252.6683 2306.0782,261.4743 C2324.2182,266.5263 2462.2482,259.6993 2475.0782,273.4743 C2480.2282,279.0033 2479.5082,284.3543 2475.0782,290.4743 C2330.8982,489.6543 1442.0282,498.2633 1317.5482,498.4883 " fill="none" id="TokenDistribution-to-PolygonBlockchainIntegration" style="stroke:#181818;stroke-width:1.0;"/><polygon fill="#181818" points="1312.2082,498.4933,1321.2082,502.4933,1317.2082,498.4933,1321.2082,494.4933,1312.2082,498.4933" style="stroke:#181818;stroke-width:1.0;"/><text fill="#000000" font-family="sans-serif" font-size="13" lengthAdjust="spacing" textLength="300" x="2465.0782" y="369.0412">Issue Carbon Tokens Based on Verified Offsets</text></g><!--link SecurityInfrastructure to UserInterface--><g id="link_SecurityInfrastructure_UserInterface"><path d="M1083.1782,85.8523 C1118.0082,106.4423 1243.0282,180.3433 1285.1282,205.2283 " fill="none" id="SecurityInfrastructure-to-UserInterface" style="stroke:#181818;stroke-width:1.0;"/><polygon fill="#181818" points="1289.6182,207.8813,1283.904,199.8596,1285.3133,205.3381,1279.8348,206.7474,1289.6182,207.8813" style="stroke:#181818;stroke-width:1.0;"/><text fill="#000000" font-family="sans-serif" font-size="13" lengthAdjust="spacing" textLength="132" x="1201.0782" y="151.5412">Protect Components</text></g><!--link SecurityInfrastructure to Authentication--><g id="link_SecurityInfrastructure_Authentication"><path d="M1064.8482,81.3653 C1009.7942,86.8913 725.5942,118.4583 678.0812,185.4743 C645.6782,231.1773 674.4002,299.5353 694.8332,336.8403 " fill="none" id="SecurityInfrastructure-to-Authentication" style="stroke:#181818;stroke-width:1.0;"/><polygon fill="#181818" points="697.2792,341.2323,696.395,331.4232,694.8465,336.864,689.4057,335.3155,697.2792,341.2323" style="stroke:#181818;stroke-width:1.0;"/><text fill="#000000" font-family="sans-serif" font-size="13" lengthAdjust="spacing" textLength="132" x="679.0812" y="219.0412">Protect Components</text></g><!--link SecurityInfrastructure to TokenTransactions--><g id="link_SecurityInfrastructure_TokenTransactions"><path d="M1069.8102,88.6433 C1054.2692,119.6183 1004.3872,231.0683 1058.0812,290.4743 C1069.9132,303.5653 1119.9482,294.2583 1137.0782,298.4743 C1194.1482,312.5153 1257.7182,342.5843 1285.1882,356.3403 " fill="none" id="SecurityInfrastructure-to-TokenTransactions" style="stroke:#181818;stroke-width:1.0;"/><polygon fill="#181818" points="1289.8882,358.7113,1283.6613,351.0808,1285.4261,356.4553,1280.0516,358.2201,1289.8882,358.7113" style="stroke:#181818;stroke-width:1.0;"/><text fill="#000000" font-family="sans-serif" font-size="13" lengthAdjust="spacing" textLength="132" x="1041.0812" y="219.0412">Protect Components</text></g><!--link SecurityInfrastructure to UserData--><g id="link_SecurityInfrastructure_UserData"><path d="M1064.8852,80.5403 C971.6292,81.4333 198.2332,94.2343 90.0811,273.4743 C6,412.8213 344.7322,482.4573 419.6762,495.9983 " fill="none" id="SecurityInfrastructure-to-UserData" style="stroke:#181818;stroke-width:1.0;"/><polygon fill="#181818" points="424.9852,496.9423,416.8251,491.4275,420.0625,496.0664,415.4236,499.3038,424.9852,496.9423" style="stroke:#181818;stroke-width:1.0;"/><text fill="#000000" font-family="sans-serif" font-size="13" lengthAdjust="spacing" textLength="132" x="91.0811" y="286.5412">Protect Components</text></g><!--link SecurityInfrastructure to ReforestationInitiatives--><g id="link_SecurityInfrastructure_ReforestationInitiatives"><path d="M1065.0052,81.2553 C980.3882,88.7473 330.2562,150.8273 223.0812,298.4743 C193.5782,339.1173 191.6172,372.3303 223.0812,411.4743 C299.4912,506.5353 372.3532,442.5703 491.0812,470.4743 C526.3352,478.7603 567.6192,489.2983 588.8582,494.7813 " fill="none" id="SecurityInfrastructure-to-ReforestationInitiatives" style="stroke:#181818;stroke-width:1.0;"/><polygon fill="#181818" points="593.8102,496.0623,586.0981,489.9367,588.9694,494.8107,584.0954,497.682,593.8102,496.0623" style="stroke:#181818;stroke-width:1.0;"/><text fill="#000000" font-family="sans-serif" font-size="13" lengthAdjust="spacing" textLength="132" x="248.0812" y="286.5412">Protect Components</text></g><!--link SecurityInfrastructure to CarbonTokenTransactions--><g id="link_SecurityInfrastructure_CarbonTokenTransactions"><path d="M1064.8652,83.9603 C1026.4172,99.1053 878.7692,163.4303 835.0812,273.4743 C805.2542,348.6053 822.3402,449.2873 829.9862,485.1243 " fill="none" id="SecurityInfrastructure-to-CarbonTokenTransactions" style="stroke:#181818;stroke-width:1.0;"/><polygon fill="#181818" points="831.1232,490.3053,833.0992,480.6567,830.0505,485.4217,825.2855,482.373,831.1232,490.3053" style="stroke:#181818;stroke-width:1.0;"/><text fill="#000000" font-family="sans-serif" font-size="13" lengthAdjust="spacing" textLength="132" x="836.0812" y="286.5412">Protect Components</text></g><!--link SecurityInfrastructure to TokenIssuance--><g id="link_SecurityInfrastructure_TokenIssuance"><path d="M1083.1082,81.6003 C1156.3382,90.9443 1652.7782,158.1723 1735.0782,273.4743 C1739.7582,280.0293 1811.1882,420.8513 1733.0782,575.4743 C1706.1082,628.8783 1637.3782,661.9953 1607.8782,674.1763 " fill="none" id="SecurityInfrastructure-to-TokenIssuance" style="stroke:#181818;stroke-width:1.0;"/><polygon fill="#181818" points="1603.1682,676.0793,1613.0112,676.4194,1607.8046,674.2076,1610.0164,669.001,1603.1682,676.0793" style="stroke:#181818;stroke-width:1.0;"/><text fill="#000000" font-family="sans-serif" font-size="13" lengthAdjust="spacing" textLength="132" x="1771.0782" y="369.0412">Protect Components</text></g><!--link SecurityInfrastructure to UserBalances--><g id="link_SecurityInfrastructure_UserBalances"><path d="M1067.6092,88.6203 C1059.3452,99.4113 1045.1522,119.3233 1037.0812,138.4743 C1015.7652,189.0503 1018.3742,207.1333 1026.0812,261.4743 C1049.4142,425.9943 1121.9682,616.3673 1141.9482,666.7263 " fill="none" id="SecurityInfrastructure-to-UserBalances" style="stroke:#181818;stroke-width:1.0;"/><polygon fill="#181818" points="1143.8182,671.4133,1144.2,661.5718,1141.9662,666.7689,1136.7691,664.5351,1143.8182,671.4133" style="stroke:#181818;stroke-width:1.0;"/><text fill="#000000" font-family="sans-serif" font-size="13" lengthAdjust="spacing" textLength="132" x="1058.0812" y="369.0412">Protect Components</text></g><!--link SecurityInfrastructure to InitiativesMonitoring--><g id="link_SecurityInfrastructure_InitiativesMonitoring"><path d="M1083.3482,80.7663 C1160.7382,83.2693 1698.3782,101.9093 1759.0782,138.4743 C1814.7382,171.9993 1791.4482,216.2393 1838.0782,261.4743 C1839.7182,263.0573 1954.5782,331.5853 1994.5482,355.4113 " fill="none" id="SecurityInfrastructure-to-InitiativesMonitoring" style="stroke:#181818;stroke-width:1.0;"/><polygon fill="#181818" points="1999.0382,358.0883,1993.3507,350.0476,1994.7418,355.5308,1989.2587,356.9218,1999.0382,358.0883" style="stroke:#181818;stroke-width:1.0;"/><text fill="#000000" font-family="sans-serif" font-size="13" lengthAdjust="spacing" textLength="132" x="1839.0782" y="219.0412">Protect Components</text></g><!--link SecurityInfrastructure to CarbonOffsetVerification--><g id="link_SecurityInfrastructure_CarbonOffsetVerification"><path d="M1083.4682,80.3273 C1160.3082,79.2643 1693.8082,74.4773 2120.0782,138.4743 C2233.3782,155.4833 2366.1882,195.5463 2409.0182,208.9883 " fill="none" id="SecurityInfrastructure-to-CarbonOffsetVerification" style="stroke:#181818;stroke-width:1.0;"/><polygon fill="#181818" points="2413.7882,210.4923,2406.4032,203.976,2409.0186,208.992,2404.0027,211.6074,2413.7882,210.4923" style="stroke:#181818;stroke-width:1.0;"/><text fill="#000000" font-family="sans-serif" font-size="13" lengthAdjust="spacing" textLength="132" x="2206.0782" y="151.5412">Protect Components</text></g><!--link SecurityInfrastructure to TokenDistribution--><g id="link_SecurityInfrastructure_TokenDistribution"><path d="M1083.2982,80.8423 C1147.4982,83.4713 1534.4782,100.4043 1847.0782,138.4743 C1971.4682,153.6233 2003.1582,156.5423 2125.0782,185.4743 C2152.6282,192.0113 2184.0482,202.3353 2201.8282,208.4523 " fill="none" id="SecurityInfrastructure-to-TokenDistribution" style="stroke:#181818;stroke-width:1.0;"/><polygon fill="#181818" points="2206.8882,210.2063,2199.7013,203.4721,2202.1656,208.564,2197.0737,211.0283,2206.8882,210.2063" style="stroke:#181818;stroke-width:1.0;"/><text fill="#000000" font-family="sans-serif" font-size="13" lengthAdjust="spacing" textLength="132" x="1979.0782" y="151.5412">Protect Components</text></g><!--SRC=[dLN1Rjim3BthAuWSTiiF1CE0fjc07886ITlBq8DYqwvGHp8akMWmxDz7IROZBNPQvwRGv2Fv-1vIy-oDbmYpNrf9YpA7kxgkHCQjK786VnZ0xoU36jRqLHSymvSqn3ENQLxONyRg3cn93u-rNRSOTurzHMbRO8_ng2W77ZMNfWUXy8fR3Zy_ibSkI_ImEKKEt13kgdt5WxcOBznXeJGQwplGSC8AUhvZWBtd-a3XeQRK8gjKayDigwfJILdBIcLlD86GVibIntG4YBKn3PSj7IEh-FcMl79vIPzqr0sNnDgHw87zoLWyjesY5M2Zw8VIGfRnDWz5OT32CsfHN5Ax4iPgSMX2cBfBbHE9UymQBUo9LYiqfvGciutkEEs_Rf0R2eUvtIQz0c0-_m7fGM7Xxm0xf8xupYlu1ayr7GxDGAqVBsQBoYyf72YC63aJGiMZfwSnuiCRnlwRsw6wFdxwHRmLKkqEI-AGZkXI3BkSsvMteZbh9fBCy6AkMQVmgti5PT0WRNHyqN0YlyNt-Hmwen36dkh2BluqwB-n12Wcx4lLWTDBEhvKpAuIrkkZCnZXk2Us5oG_6So1CeFgwPsOmNmExvZgNEb95j8wgoTsPU7QiOUkdYgeFLvs_5R3o9_eA92Gg7c0Yuu4rlauDNc__zbN2zXgPJ6pSA-EjP8aVtEj-iBuqyg7l3yD8RBhjC9HpKy56fF_JLn4Ef_EGoJZQSLZChw5YA2v-4_eDYOIHmmX_0C0]--></g></svg>