<?xml version="1.0" encoding="us-ascii" standalone="no"?><svg xmlns="http://www.w3.org/2000/svg" xmlns:xlink="http://www.w3.org/1999/xlink" contentStyleType="text/css" height="792px" preserveAspectRatio="none" style="width:2777px;height:792px;background:#FFFFFF;" version="1.1" viewBox="0 0 2777 792" width="2777px" zoomAndPan="magnify"><defs/><g><!--cluster Backend API--><g id="cluster_Backend API"><path d="M282,241 L382,241 A3.75,3.75 0 0 1 384.5,243.5 L391.5,263.2969 L855,263.2969 A2.5,2.5 0 0 1 857.5,265.7969 L857.5,335.5 A2.5,2.5 0 0 1 855,338 L282,338 A2.5,2.5 0 0 1 279.5,335.5 L279.5,243.5 A2.5,2.5 0 0 1 282,241 " fill="none" style="stroke:#000000;stroke-width:1.5;"/><line style="stroke:#000000;stroke-width:1.5;" x1="279.5" x2="391.5" y1="263.2969" y2="263.2969"/><text fill="#000000" font-family="sans-serif" font-size="14" font-weight="bold" lengthAdjust="spacing" textLength="99" x="283.5" y="255.9951">Backend API</text></g><!--cluster Database--><g id="cluster_Database"><path d="M536.5,544 C536.5,534 750,534 750,534 C750,534 963.5,534 963.5,544 L963.5,765 C963.5,775 750,775 750,775 C750,775 536.5,775 536.5,765 L536.5,544 " fill="none" style="stroke:#181818;stroke-width:1.0;"/><path d="M536.5,544 C536.5,554 750,554 750,554 C750,554 963.5,554 963.5,544 " fill="none" style="stroke:#181818;stroke-width:1.0;"/><text fill="#000000" font-family="sans-serif" font-size="14" font-weight="bold" lengthAdjust="spacing" textLength="77" x="711.5" y="568.9951">Database</text></g><!--entity Authentication--><g id="elem_Authentication"><rect fill="#F1F1F1" height="46.2969" rx="2.5" ry="2.5" style="stroke:#181818;stroke-width:0.5;" width="148" x="693.5" y="276"/><rect fill="#F1F1F1" height="10" style="stroke:#181818;stroke-width:0.5;" width="15" x="821.5" y="281"/><rect fill="#F1F1F1" height="2" style="stroke:#181818;stroke-width:0.5;" width="4" x="819.5" y="283"/><rect fill="#F1F1F1" height="2" style="stroke:#181818;stroke-width:0.5;" width="4" x="819.5" y="287"/><text fill="#000000" font-family="sans-serif" font-size="14" lengthAdjust="spacing" textLength="108" x="708.5" y="308.9951">Authentication</text></g><!--entity Token Transactions--><g id="elem_Token Transactions"><rect fill="#F1F1F1" height="46.2969" rx="2.5" ry="2.5" style="stroke:#181818;stroke-width:0.5;" width="180" x="478.5" y="276"/><rect fill="#F1F1F1" height="10" style="stroke:#181818;stroke-width:0.5;" width="15" x="638.5" y="281"/><rect fill="#F1F1F1" height="2" style="stroke:#181818;stroke-width:0.5;" width="4" x="636.5" y="283"/><rect fill="#F1F1F1" height="2" style="stroke:#181818;stroke-width:0.5;" width="4" x="636.5" y="287"/><text fill="#000000" font-family="sans-serif" font-size="14" lengthAdjust="spacing" textLength="140" x="493.5" y="308.9951">Token Transactions</text></g><!--entity Data Exchange--><g id="elem_Data Exchange"><rect fill="#F1F1F1" height="46.2969" rx="2.5" ry="2.5" style="stroke:#181818;stroke-width:0.5;" width="147" x="296" y="276"/><rect fill="#F1F1F1" height="10" style="stroke:#181818;stroke-width:0.5;" width="15" x="423" y="281"/><rect fill="#F1F1F1" height="2" style="stroke:#181818;stroke-width:0.5;" width="4" x="421" y="283"/><rect fill="#F1F1F1" height="2" style="stroke:#181818;stroke-width:0.5;" width="4" x="421" y="287"/><text fill="#000000" font-family="sans-serif" font-size="14" lengthAdjust="spacing" textLength="107" x="311" y="308.9951">Data Exchange</text></g><!--entity User Data--><g id="elem_User Data"><rect fill="#F1F1F1" height="46.2969" rx="2.5" ry="2.5" style="stroke:#181818;stroke-width:0.5;" width="109" x="580" y="592"/><rect fill="#F1F1F1" height="10" style="stroke:#181818;stroke-width:0.5;" width="15" x="669" y="597"/><rect fill="#F1F1F1" height="2" style="stroke:#181818;stroke-width:0.5;" width="4" x="667" y="599"/><rect fill="#F1F1F1" height="2" style="stroke:#181818;stroke-width:0.5;" width="4" x="667" y="603"/><text fill="#000000" font-family="sans-serif" font-size="14" lengthAdjust="spacing" textLength="69" x="595" y="624.9951">User Data</text></g><!--entity Reforestation Initiatives--><g id="elem_Reforestation Initiatives"><rect fill="#F1F1F1" height="46.2969" rx="2.5" ry="2.5" style="stroke:#181818;stroke-width:0.5;" width="215" x="724" y="592"/><rect fill="#F1F1F1" height="10" style="stroke:#181818;stroke-width:0.5;" width="15" x="919" y="597"/><rect fill="#F1F1F1" height="2" style="stroke:#181818;stroke-width:0.5;" width="4" x="917" y="599"/><rect fill="#F1F1F1" height="2" style="stroke:#181818;stroke-width:0.5;" width="4" x="917" y="603"/><text fill="#000000" font-family="sans-serif" font-size="14" lengthAdjust="spacing" textLength="175" x="739" y="624.9951">Reforestation Initiatives</text></g><!--entity Carbon Token Transactions--><g id="elem_Carbon Token Transactions"><rect fill="#F1F1F1" height="46.2969" rx="2.5" ry="2.5" style="stroke:#181818;stroke-width:0.5;" width="236" x="579.5" y="705"/><rect fill="#F1F1F1" height="10" style="stroke:#181818;stroke-width:0.5;" width="15" x="795.5" y="710"/><rect fill="#F1F1F1" height="2" style="stroke:#181818;stroke-width:0.5;" width="4" x="793.5" y="712"/><rect fill="#F1F1F1" height="2" style="stroke:#181818;stroke-width:0.5;" width="4" x="793.5" y="716"/><text fill="#000000" font-family="sans-serif" font-size="14" lengthAdjust="spacing" textLength="196" x="594.5" y="737.9951">Carbon Token Transactions</text></g><!--entity UserInterface--><g id="elem_UserInterface"><ellipse cx="1399.5" cy="149" fill="#F1F1F1" rx="8" ry="8" style="stroke:#181818;stroke-width:0.5;"/><text fill="#000000" font-family="sans-serif" font-size="14" lengthAdjust="spacing" textLength="97" x="1351" y="178.9951">UserInterface</text></g><!--entity TokenTransactions--><g id="elem_TokenTransactions"><ellipse cx="1298.5" cy="299" fill="#F1F1F1" rx="8" ry="8" style="stroke:#181818;stroke-width:0.5;"/><text fill="#000000" font-family="sans-serif" font-size="14" lengthAdjust="spacing" textLength="136" x="1230.5" y="328.9951">TokenTransactions</text></g><!--entity InitiativesMonitoring--><g id="elem_InitiativesMonitoring"><ellipse cx="2320.5" cy="299" fill="#F1F1F1" rx="8" ry="8" style="stroke:#181818;stroke-width:0.5;"/><text fill="#000000" font-family="sans-serif" font-size="14" lengthAdjust="spacing" textLength="149" x="2246" y="328.9951">InitiativesMonitoring</text></g><!--entity UserData--><g id="elem_UserData"><ellipse cx="544.5" cy="434" fill="#F1F1F1" rx="8" ry="8" style="stroke:#181818;stroke-width:0.5;"/><text fill="#000000" font-family="sans-serif" font-size="14" lengthAdjust="spacing" textLength="65" x="512" y="463.9951">UserData</text></g><!--entity PolygonBlockchainIntegration--><g id="elem_PolygonBlockchainIntegration"><ellipse cx="1298.5" cy="434" fill="#F1F1F1" rx="8" ry="8" style="stroke:#181818;stroke-width:0.5;"/><text fill="#000000" font-family="sans-serif" font-size="14" lengthAdjust="spacing" textLength="216" x="1190.5" y="463.9951">PolygonBlockchainIntegration</text></g><!--entity DataExchange--><g id="elem_DataExchange"><ellipse cx="2486.5" cy="149" fill="#F1F1F1" rx="8" ry="8" style="stroke:#181818;stroke-width:0.5;"/><text fill="#000000" font-family="sans-serif" font-size="14" lengthAdjust="spacing" textLength="103" x="2435" y="178.9951">DataExchange</text></g><!--entity ReforestationInitiatives--><g id="elem_ReforestationInitiatives"><ellipse cx="91.5" cy="434" fill="#F1F1F1" rx="8" ry="8" style="stroke:#181818;stroke-width:0.5;"/><text fill="#000000" font-family="sans-serif" font-size="14" lengthAdjust="spacing" textLength="171" x="6" y="463.9951">ReforestationInitiatives</text></g><!--entity CarbonTokenTransactions--><g id="elem_CarbonTokenTransactions"><ellipse cx="844.5" cy="434" fill="#F1F1F1" rx="8" ry="8" style="stroke:#181818;stroke-width:0.5;"/><text fill="#000000" font-family="sans-serif" font-size="14" lengthAdjust="spacing" textLength="188" x="750.5" y="463.9951">CarbonTokenTransactions</text></g><!--entity TokenIssuance--><g id="elem_TokenIssuance"><ellipse cx="1460.5" cy="615" fill="#F1F1F1" rx="8" ry="8" style="stroke:#181818;stroke-width:0.5;"/><text fill="#000000" font-family="sans-serif" font-size="14" lengthAdjust="spacing" textLength="105" x="1408" y="644.9951">TokenIssuance</text></g><!--entity UserBalances--><g id="elem_UserBalances"><ellipse cx="1087.5" cy="615" fill="#F1F1F1" rx="8" ry="8" style="stroke:#181818;stroke-width:0.5;"/><text fill="#000000" font-family="sans-serif" font-size="14" lengthAdjust="spacing" textLength="94" x="1040.5" y="644.9951">UserBalances</text></g><!--entity TokenDistribution--><g id="elem_TokenDistribution"><ellipse cx="1901.5" cy="149" fill="#F1F1F1" rx="8" ry="8" style="stroke:#181818;stroke-width:0.5;"/><text fill="#000000" font-family="sans-serif" font-size="14" lengthAdjust="spacing" textLength="131" x="1836" y="178.9951">TokenDistribution</text></g><!--entity SecurityInfrastructure--><g id="elem_SecurityInfrastructure"><ellipse cx="1139.5" cy="14" fill="#F1F1F1" rx="8" ry="8" style="stroke:#181818;stroke-width:0.5;"/><text fill="#000000" font-family="sans-serif" font-size="14" lengthAdjust="spacing" textLength="158" x="1060.5" y="43.9951">SecurityInfrastructure</text></g><!--entity CarbonOffsetVerification--><g id="elem_CarbonOffsetVerification"><ellipse cx="2679.5" cy="149" fill="#F1F1F1" rx="8" ry="8" style="stroke:#181818;stroke-width:0.5;"/><text fill="#000000" font-family="sans-serif" font-size="14" lengthAdjust="spacing" textLength="182" x="2588.5" y="178.9951">CarbonOffsetVerification</text></g><!--link UserInterface to Authentication--><g id="link_UserInterface_Authentication"><path d="M1390.34,152.285 C1370.54,157.204 1322.22,169.069 1281.5,178 C1160.6,204.514 1128.98,204.648 1008.5,233 C954.165,245.786 893.496,262.161 846.622,275.277 " fill="none" id="UserInterface-to-Authentication" style="stroke:#181818;stroke-width:1.0;"/><polygon fill="#181818" points="841.554,276.697,851.2996,278.1192,846.3684,275.3474,849.1402,270.4161,841.554,276.697" style="stroke:#181818;stroke-width:1.0;"/><text fill="#000000" font-family="sans-serif" font-size="13" lengthAdjust="spacing" textLength="163" x="1127.5" y="221.0669">Data Retrieval &amp; Updates</text></g><!--link UserInterface to TokenTransactions--><g id="link_UserInterface_TokenTransactions"><path d="M1396.42,158.28 C1390.91,172.546 1378.55,202.4 1363.5,225 C1347.85,248.497 1325.09,272.283 1311.07,286.059 " fill="none" id="UserInterface-to-TokenTransactions" style="stroke:#181818;stroke-width:1.0;"/><polygon fill="#181818" points="1307.36,289.671,1316.5931,286.2432,1310.9366,286.1771,1311.0028,280.5206,1307.36,289.671" style="stroke:#181818;stroke-width:1.0;"/><text fill="#000000" font-family="sans-serif" font-size="13" lengthAdjust="spacing" textLength="125" x="1374.5" y="221.0669">Token Transactions</text></g><!--link UserInterface to InitiativesMonitoring--><g id="link_UserInterface_InitiativesMonitoring"><path d="M1408.82,153.647 C1442.3,166.539 1559.93,209.995 1661.5,225 C1721.96,233.932 2152.7,216.337 2211.5,233 C2249.54,243.778 2287.8,271.379 2307.29,286.926 " fill="none" id="UserInterface-to-InitiativesMonitoring" style="stroke:#181818;stroke-width:1.0;"/><polygon fill="#181818" points="2311.38,290.234,2306.8963,281.4649,2307.4919,287.0904,2301.8665,287.6859,2311.38,290.234" style="stroke:#181818;stroke-width:1.0;"/><text fill="#000000" font-family="sans-serif" font-size="13" lengthAdjust="spacing" textLength="266" x="1662.5" y="221.0669">Reforestation Initiatives &amp; Carbon Tokens</text></g><!--link Authentication to UserData--><g id="link_Authentication_UserData"><path d="M730.426,322.112 C679.903,352.244 591.86,404.754 558.158,424.854 " fill="none" id="Authentication-to-UserData" style="stroke:#181818;stroke-width:1.0;"/><polygon fill="#181818" points="553.591,427.578,563.3695,426.4029,557.8851,425.0167,559.2714,419.5323,553.591,427.578" style="stroke:#181818;stroke-width:1.0;"/><text fill="#000000" font-family="sans-serif" font-size="13" lengthAdjust="spacing" textLength="193" x="670.5" y="371.0669">Authenticate &amp; Register Users</text></g><!--link TokenTransactions to PolygonBlockchainIntegration--><g id="link_TokenTransactions_PolygonBlockchainIntegration"><path d="M1298.5,308.32 C1298.5,330.619 1298.5,391.889 1298.5,419.36 " fill="none" id="TokenTransactions-to-PolygonBlockchainIntegration" style="stroke:#181818;stroke-width:1.0;"/><polygon fill="#181818" points="1298.5,424.683,1302.5,415.683,1298.5,419.683,1294.5,415.683,1298.5,424.683" style="stroke:#181818;stroke-width:1.0;"/><text fill="#000000" font-family="sans-serif" font-size="13" lengthAdjust="spacing" textLength="125" x="1299.5" y="371.0669">Token Transactions</text></g><!--link DataExchange to InitiativesMonitoring--><g id="link_DataExchange_InitiativesMonitoring"><path d="M2477.1,158.381 C2449.14,183.311 2366.41,257.066 2333.87,286.082 " fill="none" id="DataExchange-to-InitiativesMonitoring" style="stroke:#181818;stroke-width:1.0;"/><polygon fill="#181818" points="2329.8,289.711,2339.1794,286.7067,2333.5318,286.3833,2333.8552,280.7357,2329.8,289.711" style="stroke:#181818;stroke-width:1.0;"/><text fill="#000000" font-family="sans-serif" font-size="13" lengthAdjust="spacing" textLength="271" x="2418.5" y="221.0669">Manage &amp; Monitor Reforestation Initiatives</text></g><!--reverse link UserData to Database--><g id="link_UserData_Database"><path d="M544.5,448.624 C544.5,458.9018 544.5,474.1249 544.5,491.2399 C544.5,499.7973 544.5,508.8277 544.5,517.9493 C544.5,522.5101 544.5,527.0938 544.5,531.6525 C544.5,532.2223 544.5,532.7917 544.5,533.3607 " fill="none" id="UserData-backto-Database" style="stroke:#181818;stroke-width:1.0;"/><polygon fill="#181818" points="544.5,443.156,540.5,452.156,544.5,448.156,548.5,452.156,544.5,443.156" style="stroke:#181818;stroke-width:1.0;"/><text fill="#000000" font-family="sans-serif" font-size="13" lengthAdjust="spacing" textLength="141" x="545.5" y="506.0669">Store &amp; Retrieve Data</text></g><!--reverse link ReforestationInitiatives to Database--><g id="link_ReforestationInitiatives_Database"><path d="M105.507,440.535 C143.382,455.501 251.6845,498.296 351.2325,537.6318 C401.0065,557.2996 448.5919,576.1027 484.0909,590.1299 C501.8404,597.1435 516.5683,602.9632 527.0374,607.1 C529.6546,608.1342 532.0057,609.0632 534.0713,609.8794 C534.5877,610.0835 535.0863,610.2805 535.5667,610.4703 C535.8069,610.5652 536.0426,610.6583 536.2737,610.7496 " fill="none" id="ReforestationInitiatives-backto-Database" style="stroke:#181818;stroke-width:1.0;"/><polygon fill="#181818" points="100.549,438.576,107.4496,445.6032,105.1992,440.4132,110.3892,438.1628,100.549,438.576" style="stroke:#181818;stroke-width:1.0;"/><text fill="#000000" font-family="sans-serif" font-size="13" lengthAdjust="spacing" textLength="141" x="278.5" y="506.0669">Store &amp; Retrieve Data</text></g><!--reverse link CarbonTokenTransactions to Database--><g id="link_CarbonTokenTransactions_Database"><path d="M830.931,444.237 C805.625,460.898 748.935,495.589 695.5,510 C681.313,513.826 574.566,508.334 563.5,518 C559.4693,521.5208 556.1428,525.6286 553.4083,530.1257 C552.7246,531.2499 552.078,532.3985 551.4666,533.5684 " fill="none" id="CarbonTokenTransactions-backto-Database" style="stroke:#181818;stroke-width:1.0;"/><polygon fill="#181818" points="835.284,441.344,825.5743,442.9935,831.1196,444.1112,830.0018,449.6566,835.284,441.344" style="stroke:#181818;stroke-width:1.0;"/><text fill="#000000" font-family="sans-serif" font-size="13" lengthAdjust="spacing" textLength="141" x="739.5" y="506.0669">Store &amp; Retrieve Data</text></g><!--link PolygonBlockchainIntegration to TokenIssuance--><g id="link_PolygonBlockchainIntegration_TokenIssuance"><path d="M1295.62,443.062 C1290.98,457.509 1283.54,488.322 1295.5,510 C1328.73,570.224 1413.11,600.355 1446.55,610.231 " fill="none" id="PolygonBlockchainIntegration-to-TokenIssuance" style="stroke:#181818;stroke-width:1.0;"/><polygon fill="#181818" points="1451.46,611.644,1443.9206,605.3071,1446.6557,610.2587,1441.7041,612.9939,1451.46,611.644" style="stroke:#181818;stroke-width:1.0;"/><text fill="#000000" font-family="sans-serif" font-size="13" lengthAdjust="spacing" textLength="300" x="1296.5" y="506.0669">Issue Tokens Based on Verified Carbon Offsets</text></g><!--link PolygonBlockchainIntegration to UserBalances--><g id="link_PolygonBlockchainIntegration_UserBalances"><path d="M1289.25,435.6 C1261.72,437.874 1179.37,448.273 1133.5,493 C1102.53,523.193 1092.13,576.37 1088.87,600.913 " fill="none" id="PolygonBlockchainIntegration-to-UserBalances" style="stroke:#181818;stroke-width:1.0;"/><polygon fill="#181818" points="1088.25,605.968,1093.3187,597.5236,1088.8603,601.0054,1085.3785,596.547,1088.25,605.968" style="stroke:#181818;stroke-width:1.0;"/><text fill="#000000" font-family="sans-serif" font-size="13" lengthAdjust="spacing" textLength="147" x="1134.5" y="506.0669">Maintain User Balances</text></g><!--link TokenDistribution to InitiativesMonitoring--><g id="link_TokenDistribution_InitiativesMonitoring"><path d="M1904.74,158.498 C1911.49,174.859 1928.78,210.404 1956.5,225 C1981.58,238.208 2184.29,225.042 2211.5,233 C2249.44,244.098 2287.75,271.57 2307.26,287.012 " fill="none" id="TokenDistribution-to-InitiativesMonitoring" style="stroke:#181818;stroke-width:1.0;"/><polygon fill="#181818" points="2311.36,290.297,2306.8411,281.546,2307.4593,287.169,2301.8363,287.7872,2311.36,290.297" style="stroke:#181818;stroke-width:1.0;"/><text fill="#000000" font-family="sans-serif" font-size="13" lengthAdjust="spacing" textLength="274" x="1957.5" y="221.0669">Update &amp; Retrieve Reforestation Initiatives</text></g><!--link TokenDistribution to PolygonBlockchainIntegration--><g id="link_TokenDistribution_PolygonBlockchainIntegration"><path d="M1900.88,158.221 C1899.42,172.921 1894.63,204.121 1879.5,225 C1823.81,301.874 1790.67,308.428 1703.5,346 C1559.2,408.195 1366.19,427.599 1312.74,431.95 " fill="none" id="TokenDistribution-to-PolygonBlockchainIntegration" style="stroke:#181818;stroke-width:1.0;"/><polygon fill="#181818" points="1307.73,432.346,1317.0211,435.6132,1312.714,431.946,1316.3812,427.6389,1307.73,432.346" style="stroke:#181818;stroke-width:1.0;"/><text fill="#000000" font-family="sans-serif" font-size="13" lengthAdjust="spacing" textLength="300" x="1873.5" y="303.5669">Issue Carbon Tokens Based on Verified Offsets</text></g><!--link SecurityInfrastructure to UserInterface--><g id="link_SecurityInfrastructure_UserInterface"><path d="M1148.75,19.734 C1187.77,39.691 1338.97,117.039 1385.68,140.93 " fill="none" id="SecurityInfrastructure-to-UserInterface" style="stroke:#181818;stroke-width:1.0;"/><polygon fill="#181818" points="1390.36,143.323,1384.1614,135.6694,1385.9063,141.0504,1380.5253,142.7953,1390.36,143.323" style="stroke:#181818;stroke-width:1.0;"/><text fill="#000000" font-family="sans-serif" font-size="13" lengthAdjust="spacing" textLength="132" x="1286.5" y="86.0669">Protect Components</text></g><!--link SecurityInfrastructure to Authentication--><g id="link_SecurityInfrastructure_Authentication"><path d="M1130.42,15.816 C1075,21.008 783.128,51.412 734.5,120 C702.097,165.703 730.819,234.061 751.252,271.366 " fill="none" id="SecurityInfrastructure-to-Authentication" style="stroke:#181818;stroke-width:1.0;"/><polygon fill="#181818" points="753.698,275.758,752.8138,265.9489,751.2653,271.3897,745.8245,269.8412,753.698,275.758" style="stroke:#181818;stroke-width:1.0;"/><text fill="#000000" font-family="sans-serif" font-size="13" lengthAdjust="spacing" textLength="132" x="735.5" y="153.5669">Protect Components</text></g><!--link SecurityInfrastructure to TokenTransactions--><g id="link_SecurityInfrastructure_TokenTransactions"><path d="M1137.45,23.094 C1130.18,53.795 1108.86,164.386 1161.5,225 C1171.11,236.069 1180,227.296 1193.5,233 C1228.94,247.968 1266.28,273.885 1285.45,288.051 " fill="none" id="SecurityInfrastructure-to-TokenTransactions" style="stroke:#181818;stroke-width:1.0;"/><polygon fill="#181818" points="1289.48,291.053,1284.6515,282.469,1285.4701,288.0663,1279.8728,288.8848,1289.48,291.053" style="stroke:#181818;stroke-width:1.0;"/><text fill="#000000" font-family="sans-serif" font-size="13" lengthAdjust="spacing" textLength="132" x="1137.5" y="153.5669">Protect Components</text></g><!--link SecurityInfrastructure to UserData--><g id="link_SecurityInfrastructure_UserData"><path d="M1130.33,15.763 C1044.81,23.086 387.784,83.92 279.5,233 C249.985,273.634 250.042,305.324 279.5,346 C340.227,429.852 484.365,434.326 530.227,433.522 " fill="none" id="SecurityInfrastructure-to-UserData" style="stroke:#181818;stroke-width:1.0;"/><polygon fill="#181818" points="535.32,433.403,526.2288,429.615,530.3214,433.5201,526.4162,437.6128,535.32,433.403" style="stroke:#181818;stroke-width:1.0;"/><text fill="#000000" font-family="sans-serif" font-size="13" lengthAdjust="spacing" textLength="132" x="304.5" y="221.0669">Protect Components</text></g><!--link SecurityInfrastructure to ReforestationInitiatives--><g id="link_SecurityInfrastructure_ReforestationInitiatives"><path d="M1130.25,15.096 C1064.24,16.01 658.126,25.421 346.5,120 C253.962,148.085 209.74,133.984 147.5,208 C93.1755,272.603 90.2735,382.33 91.0014,419.916 " fill="none" id="SecurityInfrastructure-to-ReforestationInitiatives" style="stroke:#181818;stroke-width:1.0;"/><polygon fill="#181818" points="91.1294,424.924,94.8967,415.8241,91.0008,419.9257,86.8993,416.0298,91.1294,424.924" style="stroke:#181818;stroke-width:1.0;"/><text fill="#000000" font-family="sans-serif" font-size="13" lengthAdjust="spacing" textLength="132" x="148.5" y="221.0669">Protect Components</text></g><!--link SecurityInfrastructure to CarbonTokenTransactions--><g id="link_SecurityInfrastructure_CarbonTokenTransactions"><path d="M1130.31,18.531 C1091.92,33.857 943.907,98.808 891.5,208 C859.177,275.346 893.253,303.24 872.5,375 C867.77,391.354 858.763,408.77 852.239,420.201 " fill="none" id="SecurityInfrastructure-to-CarbonTokenTransactions" style="stroke:#181818;stroke-width:1.0;"/><polygon fill="#181818" points="849.614,424.713,857.596,418.9435,852.1274,420.3906,850.6802,414.922,849.614,424.713" style="stroke:#181818;stroke-width:1.0;"/><text fill="#000000" font-family="sans-serif" font-size="13" lengthAdjust="spacing" textLength="132" x="892.5" y="221.0669">Protect Components</text></g><!--link SecurityInfrastructure to TokenIssuance--><g id="link_SecurityInfrastructure_TokenIssuance"><path d="M1148.64,14.909 C1185.86,14.919 1328.74,18.67 1427.5,73 C1452.84,86.939 1456.75,95.746 1472.5,120 C1495.52,155.439 1493.94,168.332 1508.5,208 C1520.6,240.959 1617.33,478.659 1601.5,510 C1574.28,563.901 1504.49,596.744 1474.52,608.777 " fill="none" id="SecurityInfrastructure-to-TokenIssuance" style="stroke:#181818;stroke-width:1.0;"/><polygon fill="#181818" points="1469.73,610.656,1479.5694,611.0879,1474.3837,608.8276,1476.644,603.642,1469.73,610.656" style="stroke:#181818;stroke-width:1.0;"/><text fill="#000000" font-family="sans-serif" font-size="13" lengthAdjust="spacing" textLength="132" x="1561.5" y="303.5669">Protect Components</text></g><!--link SecurityInfrastructure to UserBalances--><g id="link_SecurityInfrastructure_UserBalances"><path d="M1130.41,21.974 C1107.93,40.099 1051.5,91.242 1051.5,148 C1051.5,148 1051.5,148 1051.5,435 C1051.5,498.264 1073.38,571.679 1083.02,600.967 " fill="none" id="SecurityInfrastructure-to-UserBalances" style="stroke:#181818;stroke-width:1.0;"/><polygon fill="#181818" points="1084.68,605.91,1085.6251,596.1066,1083.0971,601.1672,1078.0366,598.6392,1084.68,605.91" style="stroke:#181818;stroke-width:1.0;"/><text fill="#000000" font-family="sans-serif" font-size="13" lengthAdjust="spacing" textLength="132" x="1052.5" y="303.5669">Protect Components</text></g><!--link SecurityInfrastructure to InitiativesMonitoring--><g id="link_SecurityInfrastructure_InitiativesMonitoring"><path d="M1148.52,15.263 C1206.88,17.073 1536.9,28.956 1801.5,73 C1887.31,87.284 1908.23,94.82 1991.5,120 C2102.25,153.491 2139.87,144.366 2236.5,208 C2269.08,229.457 2297.91,266.07 2311.77,285.319 " fill="none" id="SecurityInfrastructure-to-InitiativesMonitoring" style="stroke:#181818;stroke-width:1.0;"/><polygon fill="#181818" points="2314.96,289.818,2313.0056,280.165,2312.063,285.7428,2306.4852,284.8002,2314.96,289.818" style="stroke:#181818;stroke-width:1.0;"/><text fill="#000000" font-family="sans-serif" font-size="13" lengthAdjust="spacing" textLength="132" x="2185.5" y="153.5669">Protect Components</text></g><!--link SecurityInfrastructure to CarbonOffsetVerification--><g id="link_SecurityInfrastructure_CarbonOffsetVerification"><path d="M1148.7,15.057 C1228.63,15.639 1813.58,21.584 2284.5,73 C2409.5,86.648 2440.31,94.787 2563.5,120 C2600.36,127.544 2643.3,138.476 2665.14,144.192 " fill="none" id="SecurityInfrastructure-to-CarbonOffsetVerification" style="stroke:#181818;stroke-width:1.0;"/><polygon fill="#181818" points="2670.23,145.528,2662.543,139.3709,2665.3943,144.2566,2660.5087,147.108,2670.23,145.528" style="stroke:#181818;stroke-width:1.0;"/><text fill="#000000" font-family="sans-serif" font-size="13" lengthAdjust="spacing" textLength="132" x="2411.5" y="86.0669">Protect Components</text></g><!--link SecurityInfrastructure to TokenDistribution--><g id="link_SecurityInfrastructure_TokenDistribution"><path d="M1148.51,15.863 C1194.43,20.327 1406.8,41.799 1578.5,73 C1699.06,94.908 1842.43,132.232 1887.34,144.193 " fill="none" id="SecurityInfrastructure-to-TokenDistribution" style="stroke:#181818;stroke-width:1.0;"/><polygon fill="#181818" points="1892.32,145.523,1884.6518,139.3425,1887.4883,144.2368,1882.5939,147.0733,1892.32,145.523" style="stroke:#181818;stroke-width:1.0;"/><text fill="#000000" font-family="sans-serif" font-size="13" lengthAdjust="spacing" textLength="132" x="1660.5" y="86.0669">Protect Components</text></g><!--SRC=[fLF1JW8n4BttAoOSlF43n9Y0UDW3aO1wCHnAcLqQrvQqNQCn_hlJTXUBx2AB92IJsRutCs_UxBXuuGN2O481gWsCvza0FXd0yxXoMrHE2kwaLYkVUj3q1XuCLvOBdxKXFUMEmzsxs79Lu8fzCRQXp9fRuftMKKtwQD60pmNW0dDjqBfG0J8bdQJm3IFjBJThIhSLfHBXv-aovT3aN20CXpTms3MCGZ5Oe3CIttW9L_2ue-xGjc13fRGGmO-hjm2JpcUQOcsaAWZSEH-raKvd6VlLjsVrTKBtetGg9Em22scfWV34ikE-FNokouz2gqcfnGkjHYhVSs4QNLe6yyMQDPwSQyQLDyqLrDdkGUEAmXJNmo4qRY2E9U7YB64r6Bwn0w9KiBFGKTDZESu2ivE2xVsHMLjn9JoF3x7U84o8UmFqyWcDp2N5zORlyzoYit_JUwKclFJaDeWibQD_o4FpWSLjJsd_HgwhFRXhLT7jwR3Tksfd_iD7KOG3DxTeqOZ0bYWg8zr7fdB3gL8bN6LmF__FNOrWRhH3uU1Ml-wq8llRK-YZm-y7RxlzVWp9kVO3Tdg-Br6N_I_I8l5vVnqI6_S3Tzdu4Y6Yvw85_-EAWujeO_W6]--></g></svg>