<?xml version="1.0" encoding="us-ascii" standalone="no"?><svg xmlns="http://www.w3.org/2000/svg" xmlns:xlink="http://www.w3.org/1999/xlink" contentStyleType="text/css" height="740px" preserveAspectRatio="none" style="width:1615px;height:740px;background:#FFFFFF;" version="1.1" viewBox="0 0 1615 740" width="1615px" zoomAndPan="magnify"><defs/><g><!--cluster Frontend--><g id="cluster_Frontend"><path d="M199.5,180 L293.5,180 A3.75,3.75 0 0 1 296,182.5 L303,218.5938 L403.5,218.5938 A2.5,2.5 0 0 1 406,221.0938 L406,306.5 A2.5,2.5 0 0 1 403.5,309 L199.5,309 A2.5,2.5 0 0 1 197,306.5 L197,182.5 A2.5,2.5 0 0 1 199.5,180 " fill="none" style="stroke:#000000;stroke-width:1.5;"/><line style="stroke:#000000;stroke-width:1.5;" x1="197" x2="303" y1="218.5938" y2="218.5938"/><text fill="#000000" font-family="sans-serif" font-size="14" font-weight="bold" lengthAdjust="spacing" textLength="73" x="211" y="194.9951">Frontend</text><text fill="#000000" font-family="sans-serif" font-size="14" font-weight="bold" lengthAdjust="spacing" textLength="93" x="201" y="211.292">Application</text></g><!--cluster Backend--><g id="cluster_Backend"><path d="M492.5,349 L561.5,349 A3.75,3.75 0 0 1 564,351.5 L571,387.5938 L917.5,387.5938 A2.5,2.5 0 0 1 920,390.0938 L920,604.5 A2.5,2.5 0 0 1 917.5,607 L492.5,607 A2.5,2.5 0 0 1 490,604.5 L490,351.5 A2.5,2.5 0 0 1 492.5,349 " fill="none" style="stroke:#000000;stroke-width:1.5;"/><line style="stroke:#000000;stroke-width:1.5;" x1="490" x2="571" y1="387.5938" y2="387.5938"/><text fill="#000000" font-family="sans-serif" font-size="14" font-weight="bold" lengthAdjust="spacing" textLength="68" x="494" y="363.9951">Backend</text><text fill="#000000" font-family="sans-serif" font-size="14" font-weight="bold" lengthAdjust="spacing" textLength="26" x="515" y="380.292">API</text></g><!--cluster Polygon--><g id="cluster_Polygon"><path d="M239.6665,487.4919 C244.9746,478.3374 250.5264,478.3002 257.0512,486.2556 C262.1688,479.0623 267.0448,478.3734 273.1162,485.1595 C277.8164,476.6515 285.2076,478.802 289.4673,485.6292 C293.3591,477.1797 298.6113,477.5143 304.0066,484.1833 C309.2065,475.6769 315.0778,477.0355 320.5549,483.8846 C325.2084,474.6451 331.6891,475.4722 337.0995,483.144 C343.7361,475.2585 350.1861,475.2538 355.4282,484.625 C360.7584,477.2815 366.4497,478.2639 370.2373,486.1272 C375.1989,477.3037 380.7305,478.4267 386.6823,485.0747 C393.2586,477.127 399.316,476.6278 404.2766,486.656 C408.7431,478.8481 414.9054,477.7892 420.3979,485.5969 C431.6043,476.311 438.1137,480.926 442,493 C442.8116,492.6268 443.3032,493.1429 443.2437,493.9321 C451.8221,496.7224 453.695,502.7947 447.9149,509.8094 C456.8589,512.4974 459.929,520.7145 451.7371,527.1743 C459.7593,531.1951 460.7452,536.7118 454.255,543.0363 C462.6676,550.7545 459.9311,556.7829 450.7301,561.0556 C457.0017,567.5788 455.993,573.5792 447.5719,577.2343 C453.0915,588.6493 447.669,598.0906 435,599 C435.4881,598.673 435.8719,598.7695 435.9883,599.3884 C432.4787,607.7548 424.9735,606.8261 420.316,600.6232 C416.8404,608.3669 408.5665,610.4128 403.1183,602.8379 C397.6885,609.6534 391.673,608.4638 388.3794,600.6811 C384.848,610.1158 377.7871,610.9305 371.2364,603.8071 C366.8805,610.6043 359.8557,610.534 355.2558,604.102 C349.3033,612.1533 342.7259,613.5716 337.1291,603.7414 C333.0208,611.0784 326.3826,611.4985 322.4768,603.5474 C317.014,611.2287 309.7647,608.9481 306.0355,601.6452 C301.1692,610.492 292.5925,609.3518 288.4252,600.9322 C283.654,608.7843 275.7122,609.4071 270.8481,601.0328 C266.138,608.2454 261.4651,609.4163 255.8233,601.9889 C243.8339,608.8361 233.6054,608.4731 231,592 C232.3385,591.8708 233.0381,592.646 232.7623,593.9647 C224.0499,590.6479 222.7427,583.7962 229.8139,577.6304 C219.9884,574.3579 220.0677,568.3295 226.2138,561.4937 C217.0818,557.4787 215.1368,549.5662 223.7881,543.1939 C218.2527,535.8831 219.7077,530.6486 227.8066,526.6494 C222.144,520.0768 222.0091,515.4069 230.9782,512.0029 C218.9931,501.3932 223.2247,489.3834 238,486 C239.1264,485.6879 239.8906,486.2955 239.6665,487.4919 " fill="none" style="stroke:#181818;stroke-width:1.0;"/><text fill="#000000" font-family="sans-serif" font-size="14" font-weight="bold" lengthAdjust="spacing" textLength="64" x="304.5" y="503.9951">Polygon</text><text fill="#000000" font-family="sans-serif" font-size="14" font-weight="bold" lengthAdjust="spacing" textLength="88" x="292.5" y="520.292">Blockchain</text></g><!--cluster Reforestation--><g id="cluster_Reforestation"><path d="M977.1582,487.6687 C988.6743,469.1469 1005.3077,470.2757 1016.7722,487.7255 C1025.4182,473.0735 1041.15,474.1286 1049.6962,487.8412 C1059.3659,469.7819 1074.8276,471.7718 1086.2485,485.8495 C1096.1861,468.8305 1106.5091,468.4445 1118.2462,484.0867 C1129.2721,463.2691 1146.2841,464.1092 1158.1069,483.2926 C1165.4566,470.0237 1179.6624,467.1516 1188.1536,482.0759 C1196.7291,462.7073 1214.1632,456.2248 1229.1123,475.2822 C1239.6741,458.7216 1256.9071,459.4208 1263.6851,478.911 C1274.2121,463.7324 1289.7638,464.3805 1297.2852,481.991 C1306.6866,466.9001 1322.9605,469.8373 1330.7436,483.8514 C1343.0595,465.552 1359.3464,470.1511 1368.7551,486.9958 C1375.293,469.884 1391.8757,469.8139 1401.773,483.3801 C1414.9469,466.6544 1429.0173,468.9865 1436.7203,488.6363 C1451.8891,468.3727 1467.4375,469.6883 1478,493 C1481.4508,491.0771 1483.4135,492.8258 1483.9223,496.2553 C1497.9352,504.4146 1501.3521,518.4269 1486.0531,528.5219 C1501.4519,541.1673 1505.8773,555.2064 1485.3479,567.1967 C1503.2986,575.2888 1502.7011,585.5849 1489.6246,597.9867 C1503.2195,609.1686 1503.2233,620.941 1487.1955,629.8657 C1504.4915,643.4526 1503.3056,657.2448 1482.6443,666.0587 C1496.7462,682.4816 1493.7626,699.6004 1471,705 C1475.5385,704.8039 1476.8854,707.8515 1474.9219,711.5491 C1465.5616,726.2515 1448.4447,728.1385 1438.9286,711.7295 C1430.6862,728.7901 1413.5112,728.9549 1404.4943,712.5259 C1390.9622,728.8706 1379.1715,728.4275 1368.8973,709.2602 C1360.9055,723.3675 1344.2995,725.9764 1335.1186,710.6238 C1325.6995,726.6609 1310.7109,728.3728 1300.4106,711.5547 C1292.1651,732.0462 1273.9966,733.8758 1262.7655,714.3643 C1248.0312,730.6808 1235.7577,730.1343 1223.4966,711.5791 C1213.6154,727.2331 1201.3785,727.8375 1189.9617,713.2839 C1178.1943,732.6883 1167.2048,727.8065 1154.8396,713.9144 C1140.5605,727.8318 1129.0015,730.9611 1118.3471,710.11 C1110.495,728.174 1095.7983,729.1099 1085.2353,712.7149 C1073.8377,729.4663 1059.1169,726.8146 1050.9635,709.4553 C1039.6708,729.2344 1023.4988,729.9236 1012.483,709.1924 C993.9593,726.1105 976.4871,720.9715 968,698 C970.7122,698.1226 971.7417,699.9272 970.0584,702.2026 C951.4438,694.0201 950.3313,678.6854 966.8182,667.249 C946.5375,659.3425 944.8601,644.4489 962.7828,632.15 C946.416,622.8788 943.5879,607.5475 959.685,595.53 C946.2727,583.8764 948.594,570.0163 966.413,565.3176 C950.7528,552.0426 948.2209,540.287 968.1273,528.676 C947.0637,511.1937 954.6974,496.8205 975,486 C976.3968,485.5546 977.2566,486.1802 977.1582,487.6687 " fill="none" style="stroke:#181818;stroke-width:1.0;"/><text fill="#000000" font-family="sans-serif" font-size="14" font-weight="bold" lengthAdjust="spacing" textLength="113" x="1166.5" y="503.9951">Reforestation</text><text fill="#000000" font-family="sans-serif" font-size="14" font-weight="bold" lengthAdjust="spacing" textLength="170" x="1138" y="520.292">Management System</text></g><!--cluster Security--><g id="cluster_Security"><polygon fill="none" points="889,16,899,6,1126,6,1126,130,1116,140,889,140,889,16" style="stroke:#181818;stroke-width:1.0;"/><line style="stroke:#181818;stroke-width:1.0;" x1="1116" x2="1126" y1="16" y2="6"/><line style="stroke:#181818;stroke-width:1.0;" x1="889" x2="1116" y1="16" y2="16"/><line style="stroke:#181818;stroke-width:1.0;" x1="1116" x2="1116" y1="16" y2="140"/><text fill="#000000" font-family="sans-serif" font-size="14" font-weight="bold" lengthAdjust="spacing" textLength="67" x="970" y="31.9951">Security</text><text fill="#000000" font-family="sans-serif" font-size="14" font-weight="bold" lengthAdjust="spacing" textLength="116" x="945.5" y="48.292">Infrastructure</text></g><!--entity User Interface--><g id="elem_User Interface"><rect fill="#F1F1F1" height="46.2969" rx="2.5" ry="2.5" style="stroke:#181818;stroke-width:0.5;" width="141" x="240.5" y="239"/><rect fill="#F1F1F1" height="10" style="stroke:#181818;stroke-width:0.5;" width="15" x="361.5" y="244"/><rect fill="#F1F1F1" height="2" style="stroke:#181818;stroke-width:0.5;" width="4" x="359.5" y="246"/><rect fill="#F1F1F1" height="2" style="stroke:#181818;stroke-width:0.5;" width="4" x="359.5" y="250"/><text fill="#000000" font-family="sans-serif" font-size="14" lengthAdjust="spacing" textLength="101" x="255.5" y="271.9951">User Interface</text></g><!--entity Authentication--><g id="elem_Authentication"><rect fill="#F1F1F1" height="46.2969" rx="2.5" ry="2.5" style="stroke:#181818;stroke-width:0.5;" width="148" x="514" y="408"/><rect fill="#F1F1F1" height="10" style="stroke:#181818;stroke-width:0.5;" width="15" x="642" y="413"/><rect fill="#F1F1F1" height="2" style="stroke:#181818;stroke-width:0.5;" width="4" x="640" y="415"/><rect fill="#F1F1F1" height="2" style="stroke:#181818;stroke-width:0.5;" width="4" x="640" y="419"/><text fill="#000000" font-family="sans-serif" font-size="14" lengthAdjust="spacing" textLength="108" x="529" y="440.9951">Authentication</text></g><!--entity Token Transactions--><g id="elem_Token Transactions"><rect fill="#F1F1F1" height="46.2969" rx="2.5" ry="2.5" style="stroke:#181818;stroke-width:0.5;" width="180" x="697" y="408"/><rect fill="#F1F1F1" height="10" style="stroke:#181818;stroke-width:0.5;" width="15" x="857" y="413"/><rect fill="#F1F1F1" height="2" style="stroke:#181818;stroke-width:0.5;" width="4" x="855" y="415"/><rect fill="#F1F1F1" height="2" style="stroke:#181818;stroke-width:0.5;" width="4" x="855" y="419"/><text fill="#000000" font-family="sans-serif" font-size="14" lengthAdjust="spacing" textLength="140" x="712" y="440.9951">Token Transactions</text></g><!--entity Data Exchange--><g id="elem_Data Exchange"><rect fill="#F1F1F1" height="46.2969" rx="2.5" ry="2.5" style="stroke:#181818;stroke-width:0.5;" width="147" x="514.5" y="537"/><rect fill="#F1F1F1" height="10" style="stroke:#181818;stroke-width:0.5;" width="15" x="641.5" y="542"/><rect fill="#F1F1F1" height="2" style="stroke:#181818;stroke-width:0.5;" width="4" x="639.5" y="544"/><rect fill="#F1F1F1" height="2" style="stroke:#181818;stroke-width:0.5;" width="4" x="639.5" y="548"/><text fill="#000000" font-family="sans-serif" font-size="14" lengthAdjust="spacing" textLength="107" x="529.5" y="569.9951">Data Exchange</text></g><!--entity Smart Contracts--><g id="elem_Smart Contracts"><rect fill="#F1F1F1" height="46.2969" rx="2.5" ry="2.5" style="stroke:#181818;stroke-width:0.5;" width="159" x="266.5" y="537"/><rect fill="#F1F1F1" height="10" style="stroke:#181818;stroke-width:0.5;" width="15" x="405.5" y="542"/><rect fill="#F1F1F1" height="2" style="stroke:#181818;stroke-width:0.5;" width="4" x="403.5" y="544"/><rect fill="#F1F1F1" height="2" style="stroke:#181818;stroke-width:0.5;" width="4" x="403.5" y="548"/><text fill="#000000" font-family="sans-serif" font-size="14" lengthAdjust="spacing" textLength="119" x="281.5" y="569.9951">Smart Contracts</text></g><!--entity Initiatives Monitoring--><g id="elem_Initiatives Monitoring"><rect fill="#F1F1F1" height="46.2969" rx="2.5" ry="2.5" style="stroke:#181818;stroke-width:0.5;" width="193" x="1003.5" y="537"/><rect fill="#F1F1F1" height="10" style="stroke:#181818;stroke-width:0.5;" width="15" x="1176.5" y="542"/><rect fill="#F1F1F1" height="2" style="stroke:#181818;stroke-width:0.5;" width="4" x="1174.5" y="544"/><rect fill="#F1F1F1" height="2" style="stroke:#181818;stroke-width:0.5;" width="4" x="1174.5" y="548"/><text fill="#000000" font-family="sans-serif" font-size="14" lengthAdjust="spacing" textLength="153" x="1018.5" y="569.9951">Initiatives Monitoring</text></g><!--entity Carbon Offset Verification--><g id="elem_Carbon Offset Verification"><rect fill="#F1F1F1" height="46.2969" rx="2.5" ry="2.5" style="stroke:#181818;stroke-width:0.5;" width="230" x="1232" y="537"/><rect fill="#F1F1F1" height="10" style="stroke:#181818;stroke-width:0.5;" width="15" x="1442" y="542"/><rect fill="#F1F1F1" height="2" style="stroke:#181818;stroke-width:0.5;" width="4" x="1440" y="544"/><rect fill="#F1F1F1" height="2" style="stroke:#181818;stroke-width:0.5;" width="4" x="1440" y="548"/><text fill="#000000" font-family="sans-serif" font-size="14" lengthAdjust="spacing" textLength="190" x="1247" y="569.9951">Carbon Offset Verification</text></g><!--entity Token Distribution--><g id="elem_Token Distribution"><rect fill="#F1F1F1" height="46.2969" rx="2.5" ry="2.5" style="stroke:#181818;stroke-width:0.5;" width="175" x="1012.5" y="643"/><rect fill="#F1F1F1" height="10" style="stroke:#181818;stroke-width:0.5;" width="15" x="1167.5" y="648"/><rect fill="#F1F1F1" height="2" style="stroke:#181818;stroke-width:0.5;" width="4" x="1165.5" y="650"/><rect fill="#F1F1F1" height="2" style="stroke:#181818;stroke-width:0.5;" width="4" x="1165.5" y="654"/><text fill="#000000" font-family="sans-serif" font-size="14" lengthAdjust="spacing" textLength="135" x="1027.5" y="675.9951">Token Distribution</text></g><!--entity Security Measures--><g id="elem_Security Measures"><rect fill="#F1F1F1" height="46.2969" rx="2.5" ry="2.5" style="stroke:#181818;stroke-width:0.5;" width="169" x="932.5" y="70"/><rect fill="#F1F1F1" height="10" style="stroke:#181818;stroke-width:0.5;" width="15" x="1081.5" y="75"/><rect fill="#F1F1F1" height="2" style="stroke:#181818;stroke-width:0.5;" width="4" x="1079.5" y="77"/><rect fill="#F1F1F1" height="2" style="stroke:#181818;stroke-width:0.5;" width="4" x="1079.5" y="81"/><text fill="#000000" font-family="sans-serif" font-size="14" lengthAdjust="spacing" textLength="129" x="947.5" y="102.9951">Security Measures</text></g><!--entity User--><g id="elem_User"><ellipse cx="205" cy="63.5" fill="#F1F1F1" rx="8" ry="8" style="stroke:#181818;stroke-width:0.5;"/><path d="M205,71.5 L205,98.5 M192,79.5 L218,79.5 M205,98.5 L192,113.5 M205,98.5 L218,113.5 " fill="none" style="stroke:#181818;stroke-width:0.5;"/><text fill="#000000" font-family="sans-serif" font-size="14" lengthAdjust="spacing" textLength="31" x="189.5" y="127.9951">User</text></g><!--entity Database--><g id="elem_Database"><path d="M1510,547.5 C1510,537.5 1554,537.5 1554,537.5 C1554,537.5 1598,537.5 1598,547.5 L1598,572.7969 C1598,582.7969 1554,582.7969 1554,582.7969 C1554,582.7969 1510,582.7969 1510,572.7969 L1510,547.5 " fill="#F1F1F1" style="stroke:#181818;stroke-width:0.5;"/><path d="M1510,547.5 C1510,557.5 1554,557.5 1554,557.5 C1554,557.5 1598,557.5 1598,547.5 " fill="none" style="stroke:#181818;stroke-width:0.5;"/><text fill="#000000" font-family="sans-serif" font-size="14" lengthAdjust="spacing" textLength="68" x="1520" y="574.4951">Database</text></g><!--link User to Frontend--><g id="link_User_Frontend"><path d="M205,131.349 C205,143.2303 205,156.8674 205,170.7492 C205,172.4844 205,174.2234 205,175.9633 C205,176.8333 205,177.7034 205,178.5735 C205,179.0085 205,179.4434 205,179.8783 " fill="none" id="User-to-Frontend" style="stroke:#181818;stroke-width:1.0;"/><polygon fill="#181818" points="205,179.8783,209,170.8783,205,174.8783,201,170.8783,205,179.8783" style="stroke:#181818;stroke-width:1.0;"/><text fill="#000000" font-family="sans-serif" font-size="13" lengthAdjust="spacing" textLength="153" x="29" y="162.4809">Register &amp; Authenticate</text><text fill="#000000" font-family="sans-serif" font-size="13" lengthAdjust="spacing" textLength="125" x="43" y="177.6137">Token Transactions</text><text fill="#000000" font-family="sans-serif" font-size="13" lengthAdjust="spacing" textLength="197" x="7" y="192.7465">View &amp; Participate in Initiatives</text></g><!--link Frontend to Backend--><g id="link_Frontend_Backend"><path d="M205,309.3775 C205,310.0068 205,310.6345 205,311.2603 C205,312.5118 205,313.7553 205,314.9863 C205,317.4482 205,319.8601 205,322.186 C205,326.8377 205,331.1454 205,334.8216 C205,342.1739 205,347 205,347 C205,347 911.667,347 911.667,347 C911.667,347 911.667,347.3079 911.667,347.8865 C911.667,348.1758 911.667,348.5328 911.667,348.9527 " fill="none" id="Frontend-to-Backend" style="stroke:#181818;stroke-width:1.0;"/><polygon fill="#181818" points="911.667,348.9527,915.667,339.9527,911.667,343.9527,907.667,339.9527,911.667,348.9527" style="stroke:#181818;stroke-width:1.0;"/><text fill="#000000" font-family="sans-serif" font-size="13" lengthAdjust="spacing" textLength="221" x="335.984" y="313.0669">User Registration &amp; Authentication</text><text fill="#000000" font-family="sans-serif" font-size="13" lengthAdjust="spacing" textLength="125" x="383.984" y="328.1997">Token Transactions</text><text fill="#000000" font-family="sans-serif" font-size="13" lengthAdjust="spacing" textLength="180" x="356.484" y="343.3325">Reforestation Initiative Data</text></g><!--link Backend to Database--><g id="link_Backend_Database"><path d="M920.6594,431 C921.283,431 921.9386,431 922.6255,431 C928.1213,431 935.6251,431 944.845,431 C963.2846,431 988.5882,431 1018.4182,431 C1078.0781,431 1155.8439,431 1233.016,431 C1387.3603,431 1539.33,431 1539.33,431 C1539.33,431 1539.33,532.234 1539.33,532.234 " fill="none" id="Backend-to-Database" style="stroke:#181818;stroke-width:1.0;"/><polygon fill="#181818" points="1539.33,537.234,1543.33,528.234,1539.33,532.234,1535.33,528.234,1539.33,537.234" style="stroke:#181818;stroke-width:1.0;"/><text fill="#000000" font-family="sans-serif" font-size="13" lengthAdjust="spacing" textLength="174" x="1044.011" y="412.0669">Store &amp; Retrieve User Data</text><text fill="#000000" font-family="sans-serif" font-size="13" lengthAdjust="spacing" textLength="289" x="986.511" y="427.1997">Update User Balances &amp; Record Transactions</text></g><!--link Backend to Polygon--><g id="link_Backend_Polygon"><path d="M489.4665,496 C484.3333,496 479.2257,496 474.149,496 C469.0722,496 464.0263,496 459.0164,496 C456.5114,496 454.0154,496 451.5291,496 C451.2183,496 450.9077,496 450.5972,496 C450.4419,496 450.2867,496 450.1315,496 C450.0928,496 450.054,496 450.0152,496 " fill="none" id="Backend-to-Polygon" style="stroke:#181818;stroke-width:1.0;"/><polygon fill="#181818" points="450.0152,496,459.0152,500,455.0152,496,459.0152,492,450.0152,496" style="stroke:#181818;stroke-width:1.0;"/><text fill="#000000" font-family="sans-serif" font-size="13" lengthAdjust="spacing" textLength="189" x="592.858" y="477.0669">Interact with Smart Contracts</text><text fill="#000000" font-family="sans-serif" font-size="13" lengthAdjust="spacing" textLength="229" x="572.858" y="492.1997">Issue Tokens on Polygon Blockchain</text></g><!--link Backend to Reforestation--><g id="link_Backend_Reforestation"><path d="M920.0086,560 C920.083,560 920.1578,560 920.2329,560 C920.3833,560 920.5352,560 920.6886,560 C920.9954,560 921.3083,560 921.6268,560 C922.2638,560 922.9236,560 923.6033,560 C924.9626,560 926.4016,560 927.8976,560 C930.8897,560 934.1101,560 937.3785,560 C943.9154,560 950.6445,560 956.1239,560 C957.4938,560 958.7855,560 959.9766,560 " fill="none" id="Backend-to-Reforestation" style="stroke:#181818;stroke-width:1.0;"/><polygon fill="#181818" points="959.9766,560,950.9766,556,954.9766,560,950.9766,564,959.9766,560" style="stroke:#181818;stroke-width:1.0;"/><text fill="#000000" font-family="sans-serif" font-size="13" lengthAdjust="spacing" textLength="244" x="667" y="536.4379">Retrieve &amp; Update Reforestation Data</text><text fill="#000000" font-family="sans-serif" font-size="13" lengthAdjust="spacing" textLength="139" x="719.5" y="551.5707">Verify Carbon Offsets</text><text fill="#000000" font-family="sans-serif" font-size="13" lengthAdjust="spacing" textLength="146" x="716" y="566.7035">Initiate Token Issuance</text></g><!--link Security to Frontend--><g id="link_Security_Frontend"><path d="M888.7037,93 C888.387,93 888.0616,93 887.7277,93 C887.0599,93 886.3579,93 885.6223,93 C879.7374,93 871.7022,93 861.8296,93 C842.0842,93 814.989,93 783.0468,93 C719.1624,93 635.8902,93 553.2536,93 C387.9805,93 225.25,93 225.25,93 C225.25,93 225.25,135.25 225.25,177.5 C225.25,178.1602 225.25,178.8203 225.25,179.4803 " fill="none" id="Security-to-Frontend" style="stroke:#181818;stroke-width:1.0;stroke-dasharray:7.0,7.0;"/><polygon fill="#181818" points="225.25,179.4803,229.25,170.4803,225.25,174.4803,221.25,170.4803,225.25,179.4803" style="stroke:#181818;stroke-width:1.0;"/><text fill="#000000" font-family="sans-serif" font-size="13" lengthAdjust="spacing" textLength="132" x="333.507" y="89.0669">Protect Components</text></g><!--link Security to Backend--><g id="link_Security_Backend"><path d="M912.333,140.0641 C912.333,140.5308 912.333,141.0001 912.333,141.4721 C912.333,142.416 912.333,143.3704 912.333,144.3349 C912.333,175.1998 912.333,216.4597 912.333,258.0394 C912.333,278.8292 912.333,299.699 912.333,319.3894 C912.333,329.2346 912.333,338.7849 912.333,347.883 C912.333,348.1673 912.333,348.4512 912.333,348.7346 " fill="none" id="Security-to-Backend" style="stroke:#181818;stroke-width:1.0;stroke-dasharray:7.0,7.0;"/><polygon fill="#181818" points="912.333,348.7346,916.333,339.7346,912.333,343.7346,908.333,339.7346,912.333,348.7346" style="stroke:#181818;stroke-width:1.0;"/><text fill="#000000" font-family="sans-serif" font-size="13" lengthAdjust="spacing" textLength="132" x="779.333" y="250.6069">Protect Components</text></g><!--link Security to Database--><g id="link_Security_Database"><path d="M1128.1507,63 C1129.4042,63 1130.6598,63 1131.9176,63 C1134.433,63 1136.9568,63 1139.4883,63 C1149.6142,63 1159.863,63 1170.1939,63 C1190.8556,63 1211.8453,63 1232.835,63 C1400.7525,63 1568.67,63 1568.67,63 C1568.67,63 1568.67,532.353 1568.67,532.353 " fill="none" id="Security-to-Database" style="stroke:#181818;stroke-width:1.0;stroke-dasharray:7.0,7.0;"/><polygon fill="#181818" points="1568.67,537.353,1572.67,528.353,1568.67,532.353,1564.67,528.353,1568.67,537.353" style="stroke:#181818;stroke-width:1.0;"/><text fill="#000000" font-family="sans-serif" font-size="13" lengthAdjust="spacing" textLength="132" x="1319.88" y="59.0669">Protect Components</text></g><!--link Security to Polygon--><g id="link_Security_Polygon"><path d="M896.667,141.5408 C896.667,142.153 896.667,142.7699 896.667,143.3915 C896.667,144.6348 896.667,145.897 896.667,147.1776 C896.667,157.4226 896.667,168.8478 896.667,181.2109 C896.667,230.6637 896.667,295.1245 896.667,359.0933 C896.667,487.0308 896.667,613 896.667,613 C896.667,613 231,613 231,613 C231,613 231,612.2722 231,610.9871 C231,610.3445 231,609.5626 231,608.6628 C231,608.2129 231,607.7334 231,607.2272 C231,607.1639 231,607.1002 231,607.0361 " fill="none" id="Security-to-Polygon" style="stroke:#181818;stroke-width:1.0;stroke-dasharray:7.0,7.0;"/><polygon fill="#181818" points="231,607.0361,227,616.0361,231,612.0361,235,616.0361,231,607.0361" style="stroke:#181818;stroke-width:1.0;"/><text fill="#000000" font-family="sans-serif" font-size="13" lengthAdjust="spacing" textLength="132" x="664.442" y="609.0669">Protect Components</text></g><!--link Security to Reforestation--><g id="link_Security_Reforestation"><path d="M968,140.8495 C968,141.1964 968,141.5481 968,141.9046 C968,153.3122 968,169.6306 968,189.2736 C968,228.5596 968,281.1439 968,334.3374 C968,360.9341 968,387.6831 968,412.9982 C968,425.6557 968,437.9548 968,449.6972 C968,455.5683 968,461.3003 968,466.8683 C968,469.6524 968,472.3954 968,475.0943 C968,475.769 968,476.441 968,477.1102 " fill="none" id="Security-to-Reforestation" style="stroke:#181818;stroke-width:1.0;stroke-dasharray:7.0,7.0;"/><polygon fill="#181818" points="968,477.1102,972,468.1102,968,472.1102,964,468.1102,968,477.1102" style="stroke:#181818;stroke-width:1.0;"/><text fill="#000000" font-family="sans-serif" font-size="13" lengthAdjust="spacing" textLength="132" x="835" y="287.0539">Protect Components</text></g><!--SRC=[XL91RkCm3Bph5KGElRKFo661fja5SWWsQDfUrZqeCkq8iIb3ajiQY_txKf9THqs1t6ngo9dXq9qqTTBA5XfDw8SEmLX_D498vOs5PuTMY4wgawmH5h-i8OzK5dJVTOrMqcj32v0EfXVuAm3-X3ROSC5MKk6h-7SsOyKVQSHk4rl7Gkgyx_qHoO-ZNqFfoV0pF5b9ZaLnrSNoMde9Fp_KKLATA4gk7AHZZlNujH12DQOlOR4ppL0RAcZL67NY9frqZ_L4lc-bzV30JYmpkJXqx7_4obXqFiegQ2k9pRIi5FQ3yzZ6OHaeZToGzfh_tz31rl2FiPhgQE11sWF3VbULGmylQ7LrQNkjdRVwqASowo5Jii4zgjvgFnIqeSfAnlJAznQZZEbnD3NzRL4wXYHRCQ7RsnzpS4kMNpCRrs_WB0Oiw3A1WbuqlZDmnnlJIdUC0qrmPbTyJWuqKyZBU58ZbKsBokZYUhyZp9Sx4q48Mqpp0zUKFfFjUT_818_8MqG6H_O0AEYvAuFgM5d9HfBYZ09K6LjcvDdqwMAMwS0P0k_Q7-7ByN0oplK8qOe3RfWQvmlCvkR-bhFa6nYLveXa8fxD0Daj1Uwqdf4UWfJWJtmUmzrT5ltE6eygo6yxGno5ow5pVDUGPyk_1fqtUGtvTJUN-Fy0]--></g></svg>