<?xml version="1.0" encoding="us-ascii" standalone="no"?><svg xmlns="http://www.w3.org/2000/svg" xmlns:xlink="http://www.w3.org/1999/xlink" contentStyleType="text/css" height="328px" preserveAspectRatio="none" style="width:572px;height:328px;background:#FFFFFF;" version="1.1" viewBox="0 0 572 328" width="572px" zoomAndPan="magnify"><defs/><g><!--entity User--><g id="elem_User"><ellipse cx="537.25" cy="14" fill="#F1F1F1" rx="8" ry="8" style="stroke:#181818;stroke-width:0.5;"/><path d="M537.25,22 L537.25,49 M524.25,30 L550.25,30 M537.25,49 L524.25,64 M537.25,49 L550.25,64 " fill="none" style="stroke:#181818;stroke-width:0.5;"/><text fill="#000000" font-family="sans-serif" font-size="14" lengthAdjust="spacing" textLength="31" x="521.75" y="78.4951">User</text></g><!--entity Frontend--><g id="elem_Frontend"><ellipse cx="227.25" cy="27" fill="#F1F1F1" rx="12" ry="12" style="stroke:#181818;stroke-width:0.5;"/><line style="stroke:#181818;stroke-width:0.5;" x1="215.25" x2="239.25" y1="41" y2="41"/><text fill="#000000" font-family="sans-serif" font-size="14" lengthAdjust="spacing" textLength="66" x="185.75" y="55.9951">Frontend</text><text fill="#000000" font-family="sans-serif" font-size="14" lengthAdjust="spacing" textLength="83" x="185.75" y="72.292">Application</text></g><!--entity Backend--><g id="elem_Backend"><ellipse cx="227.25" cy="157.5" fill="#F1F1F1" rx="12" ry="12" style="stroke:#181818;stroke-width:0.5;"/><line style="stroke:#181818;stroke-width:0.5;" x1="215.25" x2="239.25" y1="171.5" y2="171.5"/><text fill="#000000" font-family="sans-serif" font-size="14" lengthAdjust="spacing" textLength="62" x="196.25" y="186.4951">Backend</text><text fill="#000000" font-family="sans-serif" font-size="14" lengthAdjust="spacing" textLength="23" x="196.25" y="202.792">API</text></g><!--entity Database--><g id="elem_Database"><path d="M264.25,276.5 C264.25,266.5 308.25,266.5 308.25,266.5 C308.25,266.5 352.25,266.5 352.25,276.5 L352.25,301.7969 C352.25,311.7969 308.25,311.7969 308.25,311.7969 C308.25,311.7969 264.25,311.7969 264.25,301.7969 L264.25,276.5 " fill="#F1F1F1" style="stroke:#181818;stroke-width:0.5;"/><path d="M264.25,276.5 C264.25,286.5 308.25,286.5 308.25,286.5 C308.25,286.5 352.25,286.5 352.25,276.5 " fill="none" style="stroke:#181818;stroke-width:0.5;"/><text fill="#000000" font-family="sans-serif" font-size="14" lengthAdjust="spacing" textLength="68" x="274.25" y="303.4951">Database</text></g><!--entity Polygon--><g id="elem_Polygon"><path d="M303.0016,150.5707 C307.6149,144.2527 311.6605,145.0678 316.1822,150.6719 C320.2888,145.8223 325.2802,144.5746 328.4828,151.6077 C332.6182,145.6446 336.9065,145.7317 341.385,151.2212 C345.0549,146.0941 348.8363,145.8067 352.435,151.2952 C356.6408,145.2872 362.9193,144.2291 367.0951,151.3287 C370.0762,145.601 375.0429,144.9523 378.9849,150.2969 C382.06,143.6274 386.8116,143.7704 390.7176,149.5114 C395.2802,144.7135 399.3592,143.7913 402.9657,150.5267 C407.771,144.6699 413.5697,143.6166 417.9106,151.0489 C421.1231,145.0706 426.2262,146.489 429.338,151.1569 C432.7347,143.7053 438.9559,144.2607 442.7996,150.7244 C446.696,145.8969 451.4792,146.1567 454.584,151.6301 C457.9722,145.7514 462.1354,144.7179 466.5585,150.5741 C471.1225,143.9424 476.9099,145.2886 479.9889,152.0619 C491.7682,158.3313 490.7713,167.0427 481.3979,174.6326 C494.1686,182.8456 493.3697,192.2288 480.1867,199.1602 C477.3548,204.5504 472.4477,206.0045 468.4443,200.4128 C465.0863,206.3715 458.2851,207.1761 454.7651,200.5894 C451.3731,206.9073 445.5807,207.2413 441.4098,201.4483 C439.031,207.3367 433.7966,207.5167 429.9554,203.0689 C427.1857,209.6086 420.3865,211.1337 415.7323,205.2214 C411.2333,211.0224 407.3331,211.691 403.1369,204.9181 C400.9238,212.1882 395.2092,212.8836 390.3665,207.5913 C386.0242,212.9004 381.1118,211.2822 378.857,205.4373 C374.3911,211.7077 369.2229,210.3514 366.3556,203.8701 C361.9156,209.025 355.6659,209.9805 352.5616,202.4209 C348.8849,207.9274 343.249,207.2587 340.5899,201.3534 C336.401,207.3633 332.1655,206.2221 328.1335,201.1766 C322.8474,206.8673 317.8239,206.0115 314.7549,198.8657 C311.1744,204.5035 305.9379,203.5436 303.3203,197.8906 C297.2238,195.3614 294.686,191.8406 299.5731,185.8837 C292.968,185.0866 291.3345,181.5152 295.2126,176.0633 C289.5594,169.7673 292.7993,165.8072 299.2757,163.4043 C294.0434,158.011 295.839,152.3655 303.0016,150.5707 " fill="#F1F1F1" style="stroke:#181818;stroke-width:0.5;"/><text fill="#000000" font-family="sans-serif" font-size="14" lengthAdjust="spacing" textLength="57" x="308.75" y="170.4951">Polygon</text><text fill="#000000" font-family="sans-serif" font-size="14" lengthAdjust="spacing" textLength="163" x="308.75" y="186.792">Blockchain Integration</text></g><!--entity Reforestation--><g id="elem_Reforestation"><path d="M314.3124,21.792 C317.0917,17.0847 321.5472,17.3489 324.6367,21.4275 C327.3031,14.3404 332.454,14.9156 336.776,19.7404 C341.0897,14.1295 346.2355,15.049 348.8711,21.4326 C351.8575,15.4256 356.9798,16.6876 360.1554,21.2302 C362.6405,14.7594 367.852,14.4373 372.348,19.0101 C376.8999,12.5714 380.7688,12.4511 385.0411,19.2777 C389.0569,13.797 393.4207,13.5739 396.9742,19.7509 C400.4161,14.8618 405.1379,14.908 407.7846,20.566 C411.2345,13.5347 416.2733,14.3606 420.8067,19.3968 C424.2013,15.221 428.4783,15.2846 431.0007,20.3581 C434.7112,14.1362 438.4627,13.7996 442.7027,19.8533 C446.4501,13.3524 452.8388,14.4739 455.9962,20.4804 C459.6806,16.2963 463.8985,16.0347 466.4464,21.6878 C470.0317,15.9372 475.246,16.0066 479.0843,21.4008 C485.4732,24.2686 486.067,29.1801 480.1128,33.1302 C486.0617,34.651 488.8089,39.9825 483.6972,44.8779 C489.7556,49.1465 487.0099,54.9801 481.5032,57.1874 C486.0331,61.531 485.5722,65.3727 479.5413,67.7558 C476.9981,72.6032 472.0091,74.101 468.4742,68.8418 C465.8881,75.524 459.5339,77.3466 455.0415,70.7735 C451.9764,75.6544 448.1093,76.3522 444.623,71.2114 C441.7669,78.374 437.0132,77.8367 432.3093,73.1281 C428.9692,78.1725 424.1242,78.7109 420.7395,73.1769 C417.766,78.5836 412.9136,78.3083 409.355,73.8523 C406.3385,79.5456 400.562,80.5043 397.1761,74.2282 C393.5895,79.3792 387.4987,80.5725 384.3873,73.7218 C381.2939,79.4655 376.4235,78.8301 373.0131,74.0649 C368.3292,78.5302 364.4703,78.6001 361.7939,72.0249 C357.201,77.5522 352.7144,76.9804 348.6904,71.3564 C344.5137,76.3654 340.5244,75.699 337.2998,70.3131 C332.5924,75.9961 329.0919,74.9441 325.514,69.1529 C321.3413,74.6495 317.1287,74.9037 313.3075,68.7835 C306.5092,65.1067 306.3108,60.9429 311.7752,55.817 C305.7646,52.1956 306.3262,47.1792 312.2848,44.0775 C306.6724,40.3008 305.5388,36.0162 311.8805,31.8444 C307.8571,27.7909 308.8566,23.5522 314.3124,21.792 " fill="#F1F1F1" style="stroke:#181818;stroke-width:0.5;"/><text fill="#000000" font-family="sans-serif" font-size="14" lengthAdjust="spacing" textLength="100" x="319.25" y="39.9951">Reforestation</text><text fill="#000000" font-family="sans-serif" font-size="14" lengthAdjust="spacing" textLength="152" x="319.25" y="56.292">Management System</text></g><!--link Frontend to Backend--><g id="link_Frontend_Backend"><path d="M208.65,76.094 C208.65,76.094 208.65,136.369 208.65,136.369 " fill="none" id="Frontend-to-Backend" style="stroke:#181818;stroke-width:1.0;"/><polygon fill="#181818" points="208.65,141.369,212.65,132.369,208.65,136.369,204.65,132.369,208.65,141.369" style="stroke:#181818;stroke-width:1.0;"/><text fill="#000000" font-family="sans-serif" font-size="13" lengthAdjust="spacing" textLength="65" x="142.65" y="102.2989">User Input</text></g><!--reverse link Frontend to Backend--><g id="link_Frontend_Backend"><path d="M221.05,81.094 C221.05,81.094 221.05,141.369 221.05,141.369 " fill="none" id="Frontend-backto-Backend" style="stroke:#181818;stroke-width:1.0;"/><polygon fill="#181818" points="221.05,76.094,217.05,85.094,221.05,81.094,225.05,85.094,221.05,76.094" style="stroke:#181818;stroke-width:1.0;"/><text fill="#000000" font-family="sans-serif" font-size="13" lengthAdjust="spacing" textLength="144" x="76.05" y="124.2989">Authentication Results</text></g><!--link Frontend to Backend--><g id="link_Frontend_Backend"><path d="M233.45,76.094 C233.45,76.094 233.45,136.369 233.45,136.369 " fill="none" id="Frontend-to-Backend-1" style="stroke:#181818;stroke-width:1.0;"/><polygon fill="#181818" points="233.45,141.369,237.45,132.369,233.45,136.369,229.45,132.369,233.45,141.369" style="stroke:#181818;stroke-width:1.0;"/><text fill="#000000" font-family="sans-serif" font-size="13" lengthAdjust="spacing" textLength="182" x="234.45" y="102.2989">Token Transaction Requests</text></g><!--reverse link Frontend to Backend--><g id="link_Frontend_Backend"><path d="M245.85,81.094 C245.85,81.094 245.85,141.369 245.85,141.369 " fill="none" id="Frontend-backto-Backend-1" style="stroke:#181818;stroke-width:1.0;"/><polygon fill="#181818" points="245.85,76.094,241.85,85.094,245.85,81.094,249.85,85.094,245.85,76.094" style="stroke:#181818;stroke-width:1.0;"/><text fill="#000000" font-family="sans-serif" font-size="13" lengthAdjust="spacing" textLength="180" x="246.85" y="124.2989">Reforestation Initiative Data</text></g><!--link Backend to Database--><g id="link_Backend_Database"><path d="M258.434,180.5 C273.135,180.5 287.5,180.5 287.5,180.5 C287.5,180.5 287.5,261.2548 287.5,261.2548 " fill="none" id="Backend-to-Database" style="stroke:#181818;stroke-width:1.0;"/><polygon fill="#181818" points="287.5,266.2548,291.5,257.2548,287.5,261.2548,283.5,257.2548,287.5,266.2548" style="stroke:#181818;stroke-width:1.0;"/><text fill="#000000" font-family="sans-serif" font-size="13" lengthAdjust="spacing" textLength="174" x="288.5" y="219.4109">Store &amp; Retrieve User Data</text></g><!--link Backend to Database--><g id="link_Backend_Database"><path d="M258.349,193.5 C270.353,193.5 281.25,193.5 281.25,193.5 C281.25,193.5 281.25,261.3678 281.25,261.3678 " fill="none" id="Backend-to-Database-1" style="stroke:#181818;stroke-width:1.0;"/><polygon fill="#181818" points="281.25,266.3678,285.25,257.3678,281.25,261.3678,277.25,257.3678,281.25,266.3678" style="stroke:#181818;stroke-width:1.0;"/><text fill="#000000" font-family="sans-serif" font-size="13" lengthAdjust="spacing" textLength="232" x="48.25" y="229.0504">Store &amp; Retrieve Reforestation Data</text></g><!--link Reforestation to Polygon--><g id="link_Reforestation_Polygon"><path d="M395.25,75.09 C395.25,75.09 395.25,137.248 395.25,137.248 " fill="none" id="Reforestation-to-Polygon" style="stroke:#181818;stroke-width:1.0;"/><polygon fill="#181818" points="395.25,142.248,399.25,133.248,395.25,137.248,391.25,133.248,395.25,142.248" style="stroke:#181818;stroke-width:1.0;"/><text fill="#000000" font-family="sans-serif" font-size="13" lengthAdjust="spacing" textLength="125" x="396.25" y="102.2359">Carbon Offset Data</text></g><!--link Polygon to Database--><g id="link_Polygon_Database"><path d="M313.25,205.729 C313.25,205.729 313.25,261.4843 313.25,261.4843 " fill="none" id="Polygon-to-Database" style="stroke:#181818;stroke-width:1.0;"/><polygon fill="#181818" points="313.25,266.4843,317.25,257.4843,313.25,261.4843,309.25,257.4843,313.25,266.4843" style="stroke:#181818;stroke-width:1.0;"/><text fill="#000000" font-family="sans-serif" font-size="13" lengthAdjust="spacing" textLength="141" x="171.25" y="246.6734">Issued Carbon Tokens</text></g><!--link Polygon to Database--><g id="link_Polygon_Database"><path d="M332.75,205.729 C332.75,205.729 332.75,261.4843 332.75,261.4843 " fill="none" id="Polygon-to-Database-1" style="stroke:#181818;stroke-width:1.0;"/><polygon fill="#181818" points="332.75,266.4843,336.75,257.4843,332.75,261.4843,328.75,257.4843,332.75,266.4843" style="stroke:#181818;stroke-width:1.0;"/><text fill="#000000" font-family="sans-serif" font-size="13" lengthAdjust="spacing" textLength="231" x="333.75" y="246.6734">Transaction Details &amp; User Balances</text></g><!--link Backend to Polygon--><g id="link_Backend_Polygon"><path d="M258.293,168.5 C258.293,168.5 288.416,168.5 288.416,168.5 " fill="none" id="Backend-to-Polygon" style="stroke:#181818;stroke-width:1.0;"/><polygon fill="#181818" points="293.416,168.5,284.416,164.5,288.416,168.5,284.416,172.5,293.416,168.5" style="stroke:#181818;stroke-width:1.0;"/><text fill="#000000" font-family="sans-serif" font-size="13" lengthAdjust="spacing" textLength="179" x="93.3544" y="164.5669">Process Token Transactions</text></g><!--link Reforestation to Backend--><g id="link_Reforestation_Backend"><path d="M304.109,43.5 C287.338,43.5 275,43.5 275,43.5 C275,43.5 275,155.5 275,155.5 C275,155.5 263.299,155.5 263.299,155.5 " fill="none" id="Reforestation-to-Backend" style="stroke:#181818;stroke-width:1.0;"/><polygon fill="#181818" points="258.299,155.5,267.299,159.5,263.299,155.5,267.299,151.5,258.299,155.5" style="stroke:#181818;stroke-width:1.0;"/><text fill="#000000" font-family="sans-serif" font-size="13" lengthAdjust="spacing" textLength="267" x="7" y="86.8629">Reforestation Initiatives &amp; Carbon Offsets</text></g><!--SRC=[bP6nRi9038RtUufJXcwy04CbAAgKeIegT6CnYKbE15zwTgZozZL9ZX0XaBfPT_zlV_xDHqSr13ZPoX5AMwFrGKfl36JYW_rc3COWYPFM9k_1ao3bErhKTUKo4ESfiS0s_bobIyYElNATTehXmUGWi0T6cwo6AZ5PvPlS9cjVjOMd7Iqhdnsp4XpPLDiMOHmqQABb2my-84idsD4741HuKWYxQLdmr7ac8cCYgvtb_fTchn7DphjrTMJTY8cFi-2AKbGLSLMsqMZGlcXZ2GxFsFikWj7MrEgvZfhRHIFb9Pm-DBLoKmaRCu6x8WrhgkyDmbwBpyE1KVePyJEARyXIvWRpQDfwPU6d6tSIkmr0h1VloNuQvU7x14QeTV0PCj-x-HdSxPGL2hYADSGkkoLKGDhoKHuZyFG_9ITEopDUMasoul-TSDht-IqVCNIsFm00]--></g></svg>