<?xml version="1.0" encoding="us-ascii" standalone="no"?><svg xmlns="http://www.w3.org/2000/svg" xmlns:xlink="http://www.w3.org/1999/xlink" contentStyleType="text/css" height="411px" preserveAspectRatio="none" style="width:641px;height:411px;background:#FFFFFF;" version="1.1" viewBox="0 0 641 411" width="641px" zoomAndPan="magnify"><defs/><g><text fill="#000000" font-family="sans-serif" font-size="14" font-weight="bold" lengthAdjust="spacing" textLength="169" x="229.1486" y="22.9951">Deployment Diagram</text><!--cluster Development Environment--><g id="cluster_Development Environment"><path d="M8.5,43.2969 L221.5,43.2969 A3.75,3.75 0 0 1 224,45.7969 L231,65.5938 L411.5,65.5938 A2.5,2.5 0 0 1 414,68.0938 L414,278.2969 A2.5,2.5 0 0 1 411.5,280.7969 L8.5,280.7969 A2.5,2.5 0 0 1 6,278.2969 L6,45.7969 A2.5,2.5 0 0 1 8.5,43.2969 " fill="none" style="stroke:#000000;stroke-width:1.5;"/><line style="stroke:#000000;stroke-width:1.5;" x1="6" x2="231" y1="65.5938" y2="65.5938"/><text fill="#000000" font-family="sans-serif" font-size="14" font-weight="bold" lengthAdjust="spacing" textLength="212" x="10" y="58.292">Development Environment</text></g><!--cluster Vercel--><g id="cluster_Vercel"><path d="M454.981,196.0572 C458.7676,189.7628 463.2559,191.0099 467.1544,195.9359 C470.1934,187.582 477.1328,186.3558 482.3578,193.8371 C486.7914,188.5836 491.609,188.7263 495.2105,194.7827 C498.9036,188.8595 503.3968,188.0522 507.7357,194.1073 C510.3619,186.9475 516.4076,186.2424 521.4597,191.4055 C526.5081,183.9903 531.7415,183.0168 536.9595,191.2373 C540.9491,184.9044 547.2983,184.9284 550.6869,191.8593 C555.178,186.346 561.2984,187.3004 564.2421,193.6304 C569.1064,188.4601 573.7902,188.2972 577.1076,195.2694 C580.5194,188.7382 586.8357,189.6792 590.5116,194.97 C594.1436,188.3419 599.7186,187.9568 603.3622,194.9591 C612.8724,188.6052 620.6503,191.3241 624,202.2969 C625.0625,202.6979 625.2503,203.4061 624.5603,204.2979 C631.7814,208.089 632.4778,212.8264 626.521,218.444 C633.7171,223.1406 633.3382,229.8537 625.5544,233.5947 C632.8132,239.338 633.2816,244.6144 624.8915,249.7141 C632.164,252.8896 632.8317,259.5052 626.1284,263.8992 C632.9375,268.1478 632.8318,274.3982 626.1576,278.6734 C634.157,283.756 634.2971,290.567 626.776,296.1973 C633.4435,300.0927 633.7471,306.9132 626.2595,310.2899 C633.9832,315.6208 632.2909,321.2197 625.5858,325.929 C631.7109,330.5774 632.8466,336.8576 624.9457,340.9065 C633.5538,344.8427 633.4237,351.9845 625.6491,356.6525 C632.696,361.5931 633.1731,367.5061 625.0411,371.839 C630.8416,382.1991 630.5156,389.5291 617,392.2969 C618.2085,391.7466 619.1378,392.0058 619.3027,393.4825 C614.0681,401.3607 608.8299,400.1257 603.6001,393.4772 C601.2883,398.939 595.4167,400.6465 591.5466,395.1988 C587.4757,402.4935 579.7323,403.2539 576.065,394.802 C572.4286,400.5364 568.1931,400.9059 563.8178,395.6234 C559.4101,402.8293 553.5102,401.8343 548.9545,395.7894 C546.2092,402.6009 541.009,403.4169 536.4516,397.5808 C530.5769,404.7712 525.3705,403.6024 521.7279,395.4401 C517.4459,401.8115 513.2658,401.7981 509.3222,395.1185 C504.3273,400.3058 499.766,401.7023 495.8416,393.9989 C492.1907,401.1711 487.4966,402.0317 482.6063,395.1675 C476.4694,402.1328 471.6558,401.5464 466.9795,393.6335 C457.1373,402.8261 446.7738,398.9252 446,385.2969 C446.8251,385.8042 446.8562,386.5146 446.0067,387.0284 C438.7945,382.3997 441.4528,375.56 447.859,372.6907 C439.9758,367.9542 438.2507,363.0122 445.8509,356.3705 C439.2015,351.1917 439.125,345.7781 445.9803,340.7109 C438.2613,335.7215 438.7853,331.3 446.0142,326.3459 C437.6693,321.5245 438.914,314.4548 446.9088,310.5593 C439.1067,307.8593 437.7875,300.9464 444.7948,296.0836 C437.0603,290.5213 438.501,283.9273 446.8558,280.4917 C439.3599,275.9184 440.4285,270.1388 446.4636,265.2181 C439.2088,260.675 439.7963,254.0353 446.5506,249.5701 C440.3006,245.4241 439.1454,237.7397 446.872,233.8799 C440.0163,228.8678 440.4384,222.7138 447.5375,218.2977 C439.8883,208.3812 440.2363,200.3655 453,195.2969 C453.8586,194.6795 454.8089,194.8859 454.981,196.0572 " fill="none" style="stroke:#181818;stroke-width:1.0;"/><text fill="#000000" font-family="sans-serif" font-size="14" font-weight="bold" lengthAdjust="spacing" textLength="50" x="510" y="213.292">Vercel</text></g><!--entity Developer's Machine--><g id="elem_Developer's Machine"><rect fill="#F1F1F1" height="46.2969" rx="2.5" ry="2.5" style="stroke:#181818;stroke-width:0.5;" width="189" x="195.5" y="78.2969"/><rect fill="#F1F1F1" height="10" style="stroke:#181818;stroke-width:0.5;" width="15" x="364.5" y="83.2969"/><rect fill="#F1F1F1" height="2" style="stroke:#181818;stroke-width:0.5;" width="4" x="362.5" y="85.2969"/><rect fill="#F1F1F1" height="2" style="stroke:#181818;stroke-width:0.5;" width="4" x="362.5" y="89.2969"/><text fill="#000000" font-family="sans-serif" font-size="14" lengthAdjust="spacing" textLength="149" x="210.5" y="111.292">Developer's Machine</text></g><!--entity SvelteKit--><g id="elem_SvelteKit"><rect fill="#F1F1F1" height="39.2969" rx="2.5" ry="2.5" style="stroke:#181818;stroke-width:0.5;" width="162" x="22" y="225.7969"/><polygon fill="#F1F1F1" points="167,230.7969,167,244.7969,179,244.7969,179,236.7969,173,230.7969,167,230.7969" style="stroke:#181818;stroke-width:0.5;"/><line style="stroke:#181818;stroke-width:0.5;" x1="173" x2="173" y1="230.7969" y2="236.7969"/><line style="stroke:#181818;stroke-width:0.5;" x1="179" x2="173" y1="236.7969" y2="236.7969"/><text fill="#000000" font-family="sans-serif" font-size="14" lengthAdjust="spacing" textLength="132" x="32" y="251.792">Svelte &amp; SvelteKit</text></g><!--entity NodeJS--><g id="elem_NodeJS"><rect fill="#F1F1F1" height="39.2969" rx="2.5" ry="2.5" style="stroke:#181818;stroke-width:0.5;" width="83" x="219.5" y="225.7969"/><polygon fill="#F1F1F1" points="285.5,230.7969,285.5,244.7969,297.5,244.7969,297.5,236.7969,291.5,230.7969,285.5,230.7969" style="stroke:#181818;stroke-width:0.5;"/><line style="stroke:#181818;stroke-width:0.5;" x1="291.5" x2="291.5" y1="230.7969" y2="236.7969"/><line style="stroke:#181818;stroke-width:0.5;" x1="297.5" x2="291.5" y1="236.7969" y2="236.7969"/><text fill="#000000" font-family="sans-serif" font-size="14" lengthAdjust="spacing" textLength="53" x="229.5" y="251.792">Node.js</text></g><!--entity Vite--><g id="elem_Vite"><rect fill="#F1F1F1" height="39.2969" rx="2.5" ry="2.5" style="stroke:#181818;stroke-width:0.5;" width="60" x="338" y="225.7969"/><polygon fill="#F1F1F1" points="381,230.7969,381,244.7969,393,244.7969,393,236.7969,387,230.7969,381,230.7969" style="stroke:#181818;stroke-width:0.5;"/><line style="stroke:#181818;stroke-width:0.5;" x1="387" x2="387" y1="230.7969" y2="236.7969"/><line style="stroke:#181818;stroke-width:0.5;" x1="393" x2="387" y1="236.7969" y2="236.7969"/><text fill="#000000" font-family="sans-serif" font-size="14" lengthAdjust="spacing" textLength="30" x="348" y="251.792">Vite</text></g><!--entity Vercel Platform--><g id="elem_Vercel Platform"><rect fill="#F1F1F1" height="46.2969" rx="2.5" ry="2.5" style="stroke:#181818;stroke-width:0.5;" width="153" x="456.5" y="222.2969"/><rect fill="#F1F1F1" height="10" style="stroke:#181818;stroke-width:0.5;" width="15" x="589.5" y="227.2969"/><rect fill="#F1F1F1" height="2" style="stroke:#181818;stroke-width:0.5;" width="4" x="587.5" y="229.2969"/><rect fill="#F1F1F1" height="2" style="stroke:#181818;stroke-width:0.5;" width="4" x="587.5" y="233.2969"/><text fill="#000000" font-family="sans-serif" font-size="14" lengthAdjust="spacing" textLength="113" x="471.5" y="255.292">Vercel Platform</text></g><!--entity DeployedSvelteKit--><g id="elem_DeployedSvelteKit"><rect fill="#F1F1F1" height="39.2969" rx="2.5" ry="2.5" style="stroke:#181818;stroke-width:0.5;" width="162" x="454" y="345.2969"/><polygon fill="#F1F1F1" points="599,350.2969,599,364.2969,611,364.2969,611,356.2969,605,350.2969,599,350.2969" style="stroke:#181818;stroke-width:0.5;"/><line style="stroke:#181818;stroke-width:0.5;" x1="605" x2="605" y1="350.2969" y2="356.2969"/><line style="stroke:#181818;stroke-width:0.5;" x1="611" x2="605" y1="356.2969" y2="356.2969"/><text fill="#000000" font-family="sans-serif" font-size="14" lengthAdjust="spacing" textLength="132" x="464" y="371.292">Svelte &amp; SvelteKit</text></g><!--link Developer's Machine to SvelteKit--><g id="link_Developer's Machine_SvelteKit"><path d="M252.005,124.4069 C237.586,133.2319 221.221,143.7849 207,154.2969 C177.897,175.8089 146.8,203.3959 126.272,222.3239 " fill="none" id="Developer's Machine-to-SvelteKit" style="stroke:#181818;stroke-width:1.0;"/><polygon fill="#181818" points="122.564,225.7539,131.8866,222.5776,126.234,222.3581,126.4534,216.7055,122.564,225.7539" style="stroke:#181818;stroke-width:1.0;"/><text fill="#000000" font-family="sans-serif" font-size="13" lengthAdjust="spacing" textLength="60" x="208" y="167.3638">Develops</text></g><!--link Developer's Machine to NodeJS--><g id="link_Developer's Machine_NodeJS"><path d="M285.469,124.4849 C280.152,150.5179 271.37,193.5219 265.899,220.3089 " fill="none" id="Developer's Machine-to-NodeJS" style="stroke:#181818;stroke-width:1.0;"/><polygon fill="#181818" points="264.851,225.4399,270.5726,217.4234,265.8525,220.5412,262.7347,215.8211,264.851,225.4399" style="stroke:#181818;stroke-width:1.0;"/><text fill="#000000" font-family="sans-serif" font-size="13" lengthAdjust="spacing" textLength="31" x="280" y="167.3638">Uses</text></g><!--link Developer's Machine to Vite--><g id="link_Developer's Machine_Vite"><path d="M302.188,124.4849 C316.607,150.7349 340.504,194.2389 355.19,220.9749 " fill="none" id="Developer's Machine-to-Vite" style="stroke:#181818;stroke-width:1.0;"/><polygon fill="#181818" points="357.642,225.4399,356.8155,215.6258,355.235,221.0573,349.8034,219.4769,357.642,225.4399" style="stroke:#181818;stroke-width:1.0;"/><text fill="#000000" font-family="sans-serif" font-size="13" lengthAdjust="spacing" textLength="31" x="328" y="167.3638">Uses</text></g><!--link Developer's Machine to Vercel Platform--><g id="link_Developer's Machine_Vercel Platform"><path d="M327.702,124.3289 C371.869,150.1379 444.84,192.7799 490.844,219.6619 " fill="none" id="Developer's Machine-to-Vercel Platform" style="stroke:#181818;stroke-width:1.0;"/><polygon fill="#181818" points="495.209,222.2139,489.4567,214.2194,490.8921,219.6911,485.4204,221.1265,495.209,222.2139" style="stroke:#181818;stroke-width:1.0;"/><text fill="#000000" font-family="sans-serif" font-size="13" lengthAdjust="spacing" textLength="52" x="406" y="167.3638">Deploys</text></g><!--link Vercel Platform to DeployedSvelteKit--><g id="link_Vercel Platform_DeployedSvelteKit"><path d="M533.376,268.3979 C533.725,288.8669 534.241,319.2183 534.598,340.1633 " fill="none" id="Vercel Platform-to-DeployedSvelteKit" style="stroke:#181818;stroke-width:1.0;"/><polygon fill="#181818" points="534.685,345.2739,538.5311,336.2071,534.5998,340.2746,530.5323,336.3433,534.685,345.2739" style="stroke:#181818;stroke-width:1.0;"/><text fill="#000000" font-family="sans-serif" font-size="13" lengthAdjust="spacing" textLength="36" x="535" y="311.3638">Hosts</text></g><!--SRC=[ZP3DJiCm48JlVeh51pYL1-30XKJYjo0AlI0Ebhqf1iUExAK88TwTTLoQI2aLDtjcTlsDoP93gB1puRD5Jr1PjOgg5UB0O6Czmlosga7EWy7ZroItylBYWUMb9HnfzVrPVSqgHerE2j4f_QPM2BB2DRhGzI_KVcrZyFaiuKi0F6rSZ4S9RfH-uLtFhAj8jb6QG2xO9uH3A8ShovCg3RTnkETbCnDVBiPEZynEXXRVGcWNtisMjg2K2zmvHKs8xRymok-X6N1u-SvIC9kT3iDm0fjGsXClFJZxc71VBhVwJVqLC-73StJIiYV99VY1YPUNJohon7b8b7u0]--></g></svg>