<?xml version="1.0" encoding="us-ascii" standalone="no"?><svg xmlns="http://www.w3.org/2000/svg" xmlns:xlink="http://www.w3.org/1999/xlink" contentStyleType="text/css" height="576px" preserveAspectRatio="none" style="width:1765px;height:576px;background:#FFFFFF;" version="1.1" viewBox="0 0 1765 576" width="1765px" zoomAndPan="magnify"><defs/><g><!--cluster WebUI--><g id="cluster_WebUI"><path d="M547.5,231 L598.5,231 A3.75,3.75 0 0 1 601,233.5 L608,253.2969 L776.5,253.2969 A2.5,2.5 0 0 1 779,255.7969 L779,448.5 A2.5,2.5 0 0 1 776.5,451 L547.5,451 A2.5,2.5 0 0 1 545,448.5 L545,233.5 A2.5,2.5 0 0 1 547.5,231 " fill="none" style="stroke:#000000;stroke-width:1.5;"/><line style="stroke:#000000;stroke-width:1.5;" x1="545" x2="608" y1="253.2969" y2="253.2969"/><text fill="#000000" font-family="sans-serif" font-size="14" font-weight="bold" lengthAdjust="spacing" textLength="50" x="549" y="245.9951">WebUI</text></g><!--entity User Interface--><g id="elem_User Interface"><rect fill="#F1F1F1" height="46.2969" rx="2.5" ry="2.5" style="stroke:#181818;stroke-width:0.5;" width="141" x="613.5" y="266"/><rect fill="#F1F1F1" height="10" style="stroke:#181818;stroke-width:0.5;" width="15" x="734.5" y="271"/><rect fill="#F1F1F1" height="2" style="stroke:#181818;stroke-width:0.5;" width="4" x="732.5" y="273"/><rect fill="#F1F1F1" height="2" style="stroke:#181818;stroke-width:0.5;" width="4" x="732.5" y="277"/><text fill="#000000" font-family="sans-serif" font-size="14" lengthAdjust="spacing" textLength="101" x="628.5" y="298.9951">User Interface</text></g><!--entity Carbon Token Balance--><g id="elem_Carbon Token Balance"><rect fill="#F1F1F1" height="46.2969" rx="2.5" ry="2.5" style="stroke:#181818;stroke-width:0.5;" width="201" x="561.5" y="389"/><rect fill="#F1F1F1" height="10" style="stroke:#181818;stroke-width:0.5;" width="15" x="742.5" y="394"/><rect fill="#F1F1F1" height="2" style="stroke:#181818;stroke-width:0.5;" width="4" x="740.5" y="396"/><rect fill="#F1F1F1" height="2" style="stroke:#181818;stroke-width:0.5;" width="4" x="740.5" y="400"/><text fill="#000000" font-family="sans-serif" font-size="14" lengthAdjust="spacing" textLength="161" x="576.5" y="421.9951">Carbon Token Balance</text></g><!--entity User--><g id="elem_User"><ellipse cx="684" cy="100.5" fill="#F1F1F1" rx="8" ry="8" style="stroke:#181818;stroke-width:0.5;"/><path d="M684,108.5 L684,135.5 M671,116.5 L697,116.5 M684,135.5 L671,150.5 M684,135.5 L697,150.5 " fill="none" style="stroke:#181818;stroke-width:0.5;"/><text fill="#000000" font-family="sans-serif" font-size="14" lengthAdjust="spacing" textLength="31" x="668.5" y="164.9951">User</text></g><!--entity Blockchain--><g id="elem_Blockchain"><path d="M980,524 C980,514 1029,514 1029,514 C1029,514 1078,514 1078,524 L1078,549.2969 C1078,559.2969 1029,559.2969 1029,559.2969 C1029,559.2969 980,559.2969 980,549.2969 L980,524 " fill="#F1F1F1" style="stroke:#181818;stroke-width:0.5;"/><path d="M980,524 C980,534 1029,534 1029,534 C1029,534 1078,534 1078,524 " fill="none" style="stroke:#181818;stroke-width:0.5;"/><text fill="#000000" font-family="sans-serif" font-size="14" lengthAdjust="spacing" textLength="78" x="990" y="550.9951">Blockchain</text></g><!--entity SC--><g id="elem_SC"><rect fill="#F1F1F1" height="46.2969" rx="2.5" ry="2.5" style="stroke:#181818;stroke-width:0.5;" width="159" x="949.5" y="389"/><rect fill="#F1F1F1" height="10" style="stroke:#181818;stroke-width:0.5;" width="15" x="1088.5" y="394"/><rect fill="#F1F1F1" height="2" style="stroke:#181818;stroke-width:0.5;" width="4" x="1086.5" y="396"/><rect fill="#F1F1F1" height="2" style="stroke:#181818;stroke-width:0.5;" width="4" x="1086.5" y="400"/><text fill="#000000" font-family="sans-serif" font-size="14" lengthAdjust="spacing" textLength="119" x="964.5" y="421.9951">Smart Contracts</text></g><!--entity AI--><g id="elem_AI"><rect fill="#F1F1F1" height="46.2969" rx="2.5" ry="2.5" style="stroke:#181818;stroke-width:0.5;" width="179" x="77.5" y="107"/><rect fill="#F1F1F1" height="10" style="stroke:#181818;stroke-width:0.5;" width="15" x="236.5" y="112"/><rect fill="#F1F1F1" height="2" style="stroke:#181818;stroke-width:0.5;" width="4" x="234.5" y="114"/><rect fill="#F1F1F1" height="2" style="stroke:#181818;stroke-width:0.5;" width="4" x="234.5" y="118"/><text fill="#000000" font-family="sans-serif" font-size="14" lengthAdjust="spacing" textLength="139" x="92.5" y="139.9951">AI-based Algorithm</text></g><!--entity DA--><g id="elem_DA"><rect fill="#F1F1F1" height="46.2969" rx="2.5" ry="2.5" style="stroke:#181818;stroke-width:0.5;" width="143" x="385.5" y="266"/><rect fill="#F1F1F1" height="10" style="stroke:#181818;stroke-width:0.5;" width="15" x="508.5" y="271"/><rect fill="#F1F1F1" height="2" style="stroke:#181818;stroke-width:0.5;" width="4" x="506.5" y="273"/><rect fill="#F1F1F1" height="2" style="stroke:#181818;stroke-width:0.5;" width="4" x="506.5" y="277"/><text fill="#000000" font-family="sans-serif" font-size="14" lengthAdjust="spacing" textLength="103" x="400.5" y="298.9951">Data Analytics</text></g><g id="elem_GMN16"><path d="M1297.5,276.5 L1297.5,301.6328 A0,0 0 0 0 1297.5,301.6328 L1476.15,301.6328 L1108.93,391.619 L1484.15,301.6328 L1758.5,301.6328 A0,0 0 0 0 1758.5,301.6328 L1758.5,286.5 L1748.5,276.5 L1297.5,276.5 A0,0 0 0 0 1297.5,276.5 " fill="#FEFFDD" style="stroke:#181818;stroke-width:0.5;"/><path d="M1748.5,276.5 L1748.5,286.5 L1758.5,286.5 L1748.5,276.5 " fill="#FEFFDD" style="stroke:#181818;stroke-width:0.5;"/><text fill="#000000" font-family="sans-serif" font-size="13" lengthAdjust="spacing" textLength="440" x="1303.5" y="293.5669">Phase 1: Preliminary project planning and overall architecture design</text></g><g id="elem_GMN19"><path d="M795.5,276.5 L795.5,301.6328 A0,0 0 0 0 795.5,301.6328 L1025,301.6328 L1029,388.611 L1033,301.6328 L1262.5,301.6328 A0,0 0 0 0 1262.5,301.6328 L1262.5,286.5 L1252.5,276.5 L795.5,276.5 A0,0 0 0 0 795.5,276.5 " fill="#FEFFDD" style="stroke:#181818;stroke-width:0.5;"/><path d="M1252.5,276.5 L1252.5,286.5 L1262.5,286.5 L1252.5,276.5 " fill="#FEFFDD" style="stroke:#181818;stroke-width:0.5;"/><text fill="#000000" font-family="sans-serif" font-size="13" lengthAdjust="spacing" textLength="446" x="801.5" y="293.5669">Phase 2: Blockchain component and development of platform till MVP</text></g><g id="elem_GMN22"><path d="M6,6 L6,31.1328 A0,0 0 0 0 6,31.1328 L163,31.1328 L167,106.783 L171,31.1328 L328,31.1328 A0,0 0 0 0 328,31.1328 L328,16 L318,6 L6,6 A0,0 0 0 0 6,6 " fill="#FEFFDD" style="stroke:#181818;stroke-width:0.5;"/><path d="M318,6 L318,16 L328,16 L318,6 " fill="#FEFFDD" style="stroke:#181818;stroke-width:0.5;"/><text fill="#000000" font-family="sans-serif" font-size="13" lengthAdjust="spacing" textLength="301" x="12" y="23.0669">Phase 3: Complete development of the project</text></g><g id="elem_GMN25"><path d="M292,117.5 L292,142.6328 A0,0 0 0 0 292,142.6328 L456.706,142.6328 L457.564,265.863 L464.706,142.6328 L630,142.6328 A0,0 0 0 0 630,142.6328 L630,127.5 L620,117.5 L292,117.5 A0,0 0 0 0 292,117.5 " fill="#FEFFDD" style="stroke:#181818;stroke-width:0.5;"/><path d="M620,117.5 L620,127.5 L630,127.5 L620,117.5 " fill="#FEFFDD" style="stroke:#181818;stroke-width:0.5;"/><text fill="#000000" font-family="sans-serif" font-size="13" lengthAdjust="spacing" textLength="317" x="298" y="134.5669">Phase 4: Maintenance of the platform - long term</text></g><!--link User to User Interface--><g id="link_User_User Interface"><path d="M684,168.207 C684,196.482 684,234.749 684,260.35 " fill="none" id="User-to-User Interface" style="stroke:#181818;stroke-width:1.0;"/><polygon fill="#181818" points="684,265.613,688,256.613,684,260.613,680,256.613,684,265.613" style="stroke:#181818;stroke-width:1.0;"/><text fill="#000000" font-family="sans-serif" font-size="13" lengthAdjust="spacing" textLength="49" x="685" y="211.0669">Interact</text></g><!--link User Interface to Carbon Token Balance--><g id="link_User Interface_Carbon Token Balance"><path d="M679.965,312.193 C676.29,332.405 670.853,362.307 666.924,383.919 " fill="none" id="User Interface-to-Carbon Token Balance" style="stroke:#181818;stroke-width:1.0;"/><polygon fill="#181818" points="666.01,388.947,671.555,380.8074,666.9042,384.0276,663.684,379.3767,666.01,388.947" style="stroke:#181818;stroke-width:1.0;"/><text fill="#000000" font-family="sans-serif" font-size="13" lengthAdjust="spacing" textLength="85" x="676" y="355.0669">View balance</text></g><!--link User Interface to SC--><g id="link_User Interface_SC"><path d="M746.877,312.053 C807.586,333.345 899.227,365.485 961.461,387.312 " fill="none" id="User Interface-to-SC" style="stroke:#181818;stroke-width:1.0;"/><polygon fill="#181818" points="966.264,388.997,959.0949,382.244,961.5457,387.3423,956.4474,389.7932,966.264,388.997" style="stroke:#181818;stroke-width:1.0;"/><text fill="#000000" font-family="sans-serif" font-size="13" lengthAdjust="spacing" textLength="106" x="879" y="355.0669">Purchase tokens</text></g><!--link SC to Blockchain--><g id="link_SC_Blockchain"><path d="M1029,435.184 C1029,455.865 1029,486.7442 1029,508.7744 " fill="none" id="SC-to-Blockchain" style="stroke:#181818;stroke-width:1.0;"/><polygon fill="#181818" points="1029,513.8924,1033,504.8924,1029,508.8924,1025,504.8924,1029,513.8924" style="stroke:#181818;stroke-width:1.0;"/><text fill="#000000" font-family="sans-serif" font-size="13" lengthAdjust="spacing" textLength="128" x="1030" y="480.0669">Record transactions</text></g><!--link AI to DA--><g id="link_AI_DA"><path d="M207.935,153.161 C261.694,182.265 355.788,233.206 411.654,263.451 " fill="none" id="AI-to-DA" style="stroke:#181818;stroke-width:1.0;"/><polygon fill="#181818" points="416.273,265.951,410.264,258.1477,411.8764,263.5699,406.4542,265.1822,416.273,265.951" style="stroke:#181818;stroke-width:1.0;"/><text fill="#000000" font-family="sans-serif" font-size="13" lengthAdjust="spacing" textLength="93" x="322" y="211.0669">Generate data</text></g><!--link DA to Carbon Token Balance--><g id="link_DA_Carbon Token Balance"><path d="M488.633,312.001 C509.201,326 536.787,344.212 562,359 C578.2,368.502 596.308,378.188 612.618,386.584 " fill="none" id="DA-to-Carbon Token Balance" style="stroke:#181818;stroke-width:1.0;"/><polygon fill="#181818" points="617.167,388.917,610.9831,381.2516,612.7177,386.6359,607.3333,388.3705,617.167,388.917" style="stroke:#181818;stroke-width:1.0;"/><text fill="#000000" font-family="sans-serif" font-size="13" lengthAdjust="spacing" textLength="100" x="563" y="355.0669">Update balance</text></g><!--SRC=[VL8zJoD13EtdLrXfg59mTrKAf2MHq1QHeWlX2aGncNMIkSpQgna3GkZ-EtPM-U1OKOxz_FpUyrp133UH40At7HEI5EU3S8PLmUmw7_P-Yp3wW-jLFO9tzsXrg4amRtp09_SuzNdD1FUyHu9RdpnP-PzhlFYrBmYtYSC-x7maTze2esNhiy2KIR8kB2Fm1PRJIqHLZss-WIfjEKVPjGTGLL-2Phe5AlBfJMBeMMQLSrV6J1ZaqjX1-dXy0_-RW4d_K25V3FO3WoPrx27YAwpxz_3eSggmnNFM03GBCOBYj6YzSpAA-Os1SmCQ1nKL4bbnLNt0pIhjto6fGa6mO9sMlXMswXh37gLf85NJG9VvhuNIcPZYYCKaTS0Rotvna7YjSZEcs4Ro-UqyeaGKQGkU6k0NbP8IUBKLHTlFMNLXYLjog7qZ7cR_CRbqVJwaiJRuWecxrjuwenjbmxa5YRfg_h0OfjR_q5F_dEZHsowXPVIPIdPuD39Ced-c9_arWRag4oJBxJHxb3A6n9g1NhWz4Nq0]--></g></svg>