<?xml version="1.0" encoding="us-ascii" standalone="no"?><svg xmlns="http://www.w3.org/2000/svg" xmlns:xlink="http://www.w3.org/1999/xlink" contentStyleType="text/css" height="1145px" preserveAspectRatio="none" style="width:330px;height:1145px;background:#FFFFFF;" version="1.1" viewBox="0 0 330 1145" width="330px" zoomAndPan="magnify"><defs/><g><rect fill="none" height="159.2344" style="stroke:#000000;stroke-width:1.5;" width="204" x="63" y="11"/><text fill="#000000" font-family="sans-serif" font-size="14" lengthAdjust="spacing" textLength="184" x="73" y="25.9951">1. Secure Communication</text><rect fill="#F1F1F1" height="33.9688" rx="12.5" ry="12.5" style="stroke:#181818;stroke-width:0.5;" width="128" x="101" y="47.2969"/><text fill="#000000" font-family="sans-serif" font-size="12" lengthAdjust="spacing" textLength="104" x="115" y="68.4355">Implement HTTPS</text><rect fill="#F1F1F1" height="33.9688" rx="12.5" ry="12.5" style="stroke:#181818;stroke-width:0.5;" width="170" x="80" y="116.2656"/><text fill="#000000" font-family="sans-serif" font-size="12" lengthAdjust="spacing" textLength="146" x="94" y="137.4043">Use SSL/TLS certificates</text><rect fill="none" height="228.2031" style="stroke:#000000;stroke-width:1.5;" width="231" x="49.5" y="180.2344"/><text fill="#000000" font-family="sans-serif" font-size="14" lengthAdjust="spacing" textLength="132" x="99" y="195.2295">2. Data Protection</text><rect fill="#F1F1F1" height="33.9688" rx="12.5" ry="12.5" style="stroke:#181818;stroke-width:0.5;" width="211" x="59.5" y="216.5313"/><text fill="#000000" font-family="sans-serif" font-size="12" lengthAdjust="spacing" textLength="187" x="73.5" y="237.6699">Store sensitive data encrypted</text><rect fill="#F1F1F1" height="33.9688" rx="12.5" ry="12.5" style="stroke:#181818;stroke-width:0.5;" width="209" x="60.5" y="285.5"/><text fill="#000000" font-family="sans-serif" font-size="12" lengthAdjust="spacing" textLength="185" x="74.5" y="306.6387">Secure hashing for passwords</text><rect fill="#F1F1F1" height="33.9688" rx="12.5" ry="12.5" style="stroke:#181818;stroke-width:0.5;" width="161" x="84.5" y="354.4688"/><text fill="#000000" font-family="sans-serif" font-size="12" lengthAdjust="spacing" textLength="137" x="98.5" y="375.6074">Regularly back up data</text><rect fill="none" height="175.5313" style="stroke:#000000;stroke-width:1.5;" width="271" x="29.5" y="418.4375"/><text fill="#000000" font-family="sans-serif" font-size="14" lengthAdjust="spacing" textLength="125" x="96" y="433.4326">3. Access Control</text><text fill="#000000" font-family="sans-serif" font-size="14" lengthAdjust="spacing" textLength="138" x="96" y="449.7295">and Authentication</text><rect fill="#F1F1F1" height="33.9688" rx="12.5" ry="12.5" style="stroke:#181818;stroke-width:0.5;" width="251" x="39.5" y="471.0313"/><text fill="#000000" font-family="sans-serif" font-size="12" lengthAdjust="spacing" textLength="227" x="53.5" y="492.1699">Implement role-based access control</text><rect fill="#F1F1F1" height="33.9688" rx="12.5" ry="12.5" style="stroke:#181818;stroke-width:0.5;" width="238" x="46" y="540"/><text fill="#000000" font-family="sans-serif" font-size="12" lengthAdjust="spacing" textLength="214" x="60" y="561.1387">Use secure authentication methods</text><rect fill="none" height="175.5313" style="stroke:#000000;stroke-width:1.5;" width="243" x="43.5" y="603.9688"/><text fill="#000000" font-family="sans-serif" font-size="14" lengthAdjust="spacing" textLength="131" x="99.5" y="618.9639">4. Input Validation</text><text fill="#000000" font-family="sans-serif" font-size="14" lengthAdjust="spacing" textLength="116" x="99.5" y="635.2607">and Sanitization</text><rect fill="#F1F1F1" height="33.9688" rx="12.5" ry="12.5" style="stroke:#181818;stroke-width:0.5;" width="219" x="55.5" y="656.5625"/><text fill="#000000" font-family="sans-serif" font-size="12" lengthAdjust="spacing" textLength="195" x="69.5" y="677.7012">Validate and sanitize user inputs</text><rect fill="#F1F1F1" height="33.9688" rx="12.5" ry="12.5" style="stroke:#181818;stroke-width:0.5;" width="223" x="53.5" y="725.5313"/><text fill="#000000" font-family="sans-serif" font-size="12" lengthAdjust="spacing" textLength="199" x="67.5" y="746.6699">Implement server-side validation</text><rect fill="none" height="175.5313" style="stroke:#000000;stroke-width:1.5;" width="230" x="50" y="789.5"/><text fill="#000000" font-family="sans-serif" font-size="14" lengthAdjust="spacing" textLength="184" x="70" y="804.4951">5. Regular Security Audits</text><text fill="#000000" font-family="sans-serif" font-size="14" lengthAdjust="spacing" textLength="190" x="70" y="820.792">and Vulnerability Scanning</text><rect fill="#F1F1F1" height="33.9688" rx="12.5" ry="12.5" style="stroke:#181818;stroke-width:0.5;" width="210" x="60" y="842.0938"/><text fill="#000000" font-family="sans-serif" font-size="12" lengthAdjust="spacing" textLength="186" x="74" y="863.2324">Perform regular security audits</text><rect fill="#F1F1F1" height="33.9688" rx="12.5" ry="12.5" style="stroke:#181818;stroke-width:0.5;" width="175" x="77.5" y="911.0625"/><text fill="#000000" font-family="sans-serif" font-size="12" lengthAdjust="spacing" textLength="151" x="91.5" y="932.2012">Remediate vulnerabilities</text><rect fill="none" height="159.2344" style="stroke:#000000;stroke-width:1.5;" width="308" x="11" y="975.0313"/><text fill="#000000" font-family="sans-serif" font-size="14" lengthAdjust="spacing" textLength="187" x="71.5" y="990.0264">6. Monitoring and Logging</text><rect fill="#F1F1F1" height="33.9688" rx="12.5" ry="12.5" style="stroke:#181818;stroke-width:0.5;" width="288" x="21" y="1011.3281"/><text fill="#000000" font-family="sans-serif" font-size="12" lengthAdjust="spacing" textLength="264" x="35" y="1032.4668">Implement monitoring and logging solutions</text><rect fill="#F1F1F1" height="33.9688" rx="12.5" ry="12.5" style="stroke:#181818;stroke-width:0.5;" width="154" x="88" y="1080.2969"/><text fill="#000000" font-family="sans-serif" font-size="12" lengthAdjust="spacing" textLength="130" x="102" y="1101.4355">Regularly review logs</text><line style="stroke:#181818;stroke-width:1.0;" x1="165" x2="165" y1="81.2656" y2="116.2656"/><polygon fill="#181818" points="161,106.2656,165,116.2656,169,106.2656,165,110.2656" style="stroke:#181818;stroke-width:1.0;"/><line style="stroke:#181818;stroke-width:1.0;" x1="165" x2="165" y1="250.5" y2="285.5"/><polygon fill="#181818" points="161,275.5,165,285.5,169,275.5,165,279.5" style="stroke:#181818;stroke-width:1.0;"/><line style="stroke:#181818;stroke-width:1.0;" x1="165" x2="165" y1="319.4688" y2="354.4688"/><polygon fill="#181818" points="161,344.4688,165,354.4688,169,344.4688,165,348.4688" style="stroke:#181818;stroke-width:1.0;"/><line style="stroke:#181818;stroke-width:1.0;" x1="165" x2="165" y1="150.2344" y2="216.5313"/><polygon fill="#181818" points="161,206.5313,165,216.5313,169,206.5313,165,210.5313" style="stroke:#181818;stroke-width:1.0;"/><line style="stroke:#181818;stroke-width:1.0;" x1="165" x2="165" y1="505" y2="540"/><polygon fill="#181818" points="161,530,165,540,169,530,165,534" style="stroke:#181818;stroke-width:1.0;"/><line style="stroke:#181818;stroke-width:1.0;" x1="165" x2="165" y1="388.4375" y2="471.0313"/><polygon fill="#181818" points="161,461.0313,165,471.0313,169,461.0313,165,465.0313" style="stroke:#181818;stroke-width:1.0;"/><line style="stroke:#181818;stroke-width:1.0;" x1="165" x2="165" y1="690.5313" y2="725.5313"/><polygon fill="#181818" points="161,715.5313,165,725.5313,169,715.5313,165,719.5313" style="stroke:#181818;stroke-width:1.0;"/><line style="stroke:#181818;stroke-width:1.0;" x1="165" x2="165" y1="573.9688" y2="656.5625"/><polygon fill="#181818" points="161,646.5625,165,656.5625,169,646.5625,165,650.5625" style="stroke:#181818;stroke-width:1.0;"/><line style="stroke:#181818;stroke-width:1.0;" x1="165" x2="165" y1="876.0625" y2="911.0625"/><polygon fill="#181818" points="161,901.0625,165,911.0625,169,901.0625,165,905.0625" style="stroke:#181818;stroke-width:1.0;"/><line style="stroke:#181818;stroke-width:1.0;" x1="165" x2="165" y1="759.5" y2="842.0938"/><polygon fill="#181818" points="161,832.0938,165,842.0938,169,832.0938,165,836.0938" style="stroke:#181818;stroke-width:1.0;"/><line style="stroke:#181818;stroke-width:1.0;" x1="165" x2="165" y1="1045.2969" y2="1080.2969"/><polygon fill="#181818" points="161,1070.2969,165,1080.2969,169,1070.2969,165,1074.2969" style="stroke:#181818;stroke-width:1.0;"/><line style="stroke:#181818;stroke-width:1.0;" x1="165" x2="165" y1="945.0313" y2="1011.3281"/><polygon fill="#181818" points="161,1001.3281,165,1011.3281,169,1001.3281,165,1005.3281" style="stroke:#181818;stroke-width:1.0;"/><!--SRC=[TPBDJiCm48JlVOfLxmtYzuxWGAKYLQHmuhArbzJ2iQDTErL1l3jsN4eRnDMU_NPcR2OLq3MMO7fUGKqgCi6TRzleZC9Wl9i2V4u0PZ1lEqijkG0FgzMo7iwUXQ2k5sUhHGsAE9YtF4Ko-PfC-1TzKS4z1eGb-v1EZwbry6cZa1CJJ4-WiuwSubqNI1T9SRL1sHZNm9jdw51awrdB87YY9bfakuCrgdU8tK0PURYiu5Of4adnN61lNnqw3RSnR5Ac_yCc9StMAAG1oxmgyuS2fFZ34nAq53PUZvkugc3kkXZW1QtHWxBugD6b0ZxsBeg9lIQXaq2AW20ACPWCaP7LTD4JpyHeWlx07pcuhdxwAiMQi4ibQ1Ea67c9rX7ZsjXyKojqBhL-A6P9d1wW1Tupv8U10sF_7YrfauttHp3pvrlSLF3eKohF-LtpyeLlckDjlzdQKw4jGX1lOmuv_WXClQ5jbgMbtm00]--></g></svg>