<?xml version="1.0" encoding="us-ascii" standalone="no"?><svg xmlns="http://www.w3.org/2000/svg" xmlns:xlink="http://www.w3.org/1999/xlink" contentStyleType="text/css" height="1992px" preserveAspectRatio="none" style="width:717px;height:1992px;background:#FFFFFF;" version="1.1" viewBox="0 0 717 1992" width="717px" zoomAndPan="magnify"><defs/><g><rect fill="#F1F1F1" height="36.2969" rx="12.5" ry="12.5" style="stroke:#181818;stroke-width:1.5;" width="241" x="10" y="132.5938"/><text fill="#000000" font-family="sans-serif" font-size="14" lengthAdjust="spacing" textLength="221" x="20" y="155.5889">3.1. Stakeholder Identification</text><rect fill="#F1F1F1" height="36.2969" rx="12.5" ry="12.5" style="stroke:#181818;stroke-width:1.5;" width="132" x="301" y="20"/><text fill="#000000" font-family="sans-serif" font-size="14" lengthAdjust="spacing" textLength="112" x="311" y="42.9951">Project experts</text><path d="M251,150.7422 L261,150.7422 C276,150.7422 276,38.1484 291,38.1484 L301,38.1484 " fill="none" style="stroke:#181818;stroke-width:1.0;"/><rect fill="#F1F1F1" height="36.2969" rx="12.5" ry="12.5" style="stroke:#181818;stroke-width:1.5;" width="191" x="301" y="76.2969"/><text fill="#000000" font-family="sans-serif" font-size="14" lengthAdjust="spacing" textLength="171" x="311" y="99.292">Carbon credit providers</text><path d="M251,150.7422 L261,150.7422 C276,150.7422 276,94.4453 291,94.4453 L301,94.4453 " fill="none" style="stroke:#181818;stroke-width:1.0;"/><rect fill="#F1F1F1" height="36.2969" rx="12.5" ry="12.5" style="stroke:#181818;stroke-width:1.5;" width="171" x="301" y="132.5938"/><text fill="#000000" font-family="sans-serif" font-size="14" lengthAdjust="spacing" textLength="151" x="311" y="155.5889">Carbon credit buyers</text><path d="M251,150.7422 L261,150.7422 C276,150.7422 276,150.7422 291,150.7422 L301,150.7422 " fill="none" style="stroke:#181818;stroke-width:1.0;"/><rect fill="#F1F1F1" height="36.2969" rx="12.5" ry="12.5" style="stroke:#181818;stroke-width:1.5;" width="272" x="301" y="188.8906"/><text fill="#000000" font-family="sans-serif" font-size="14" lengthAdjust="spacing" textLength="252" x="311" y="211.8857">Regulators and certification bodies</text><path d="M251,150.7422 L261,150.7422 C276,150.7422 276,207.0391 291,207.0391 L301,207.0391 " fill="none" style="stroke:#181818;stroke-width:1.0;"/><rect fill="#F1F1F1" height="36.2969" rx="12.5" ry="12.5" style="stroke:#181818;stroke-width:1.5;" width="86" x="301" y="245.1875"/><text fill="#000000" font-family="sans-serif" font-size="14" lengthAdjust="spacing" textLength="66" x="311" y="268.1826">Investors</text><path d="M251,150.7422 L261,150.7422 C276,150.7422 276,263.3359 291,263.3359 L301,263.3359 " fill="none" style="stroke:#181818;stroke-width:1.0;"/><rect fill="#F1F1F1" height="36.2969" rx="12.5" ry="12.5" style="stroke:#181818;stroke-width:1.5;" width="162" x="10" y="582.9688"/><text fill="#000000" font-family="sans-serif" font-size="14" lengthAdjust="spacing" textLength="142" x="20" y="605.9639">3.1.1. Project Team</text><rect fill="#F1F1F1" height="36.2969" rx="12.5" ry="12.5" style="stroke:#181818;stroke-width:1.5;" width="137" x="222" y="301.4844"/><text fill="#000000" font-family="sans-serif" font-size="14" lengthAdjust="spacing" textLength="117" x="232" y="324.4795">Project Manager</text><path d="M172,601.1172 L182,601.1172 C197,601.1172 197,319.6328 212,319.6328 L222,319.6328 " fill="none" style="stroke:#181818;stroke-width:1.0;"/><rect fill="#F1F1F1" height="36.2969" rx="12.5" ry="12.5" style="stroke:#181818;stroke-width:1.5;" width="184" x="222" y="357.7813"/><text fill="#000000" font-family="sans-serif" font-size="14" lengthAdjust="spacing" textLength="164" x="232" y="380.7764">Blockchain Developers</text><rect fill="#F1F1F1" height="36.2969" rx="12.5" ry="12.5" style="stroke:#181818;stroke-width:1.5;" width="127" x="456" y="357.7813"/><text fill="#000000" font-family="sans-serif" font-size="14" lengthAdjust="spacing" textLength="107" x="466" y="380.7764">Core and dApp</text><path d="M406,375.9297 L416,375.9297 C431,375.9297 431,375.9297 446,375.9297 L456,375.9297 " fill="none" style="stroke:#181818;stroke-width:1.0;"/><path d="M172,601.1172 L182,601.1172 C197,601.1172 197,375.9297 212,375.9297 L222,375.9297 " fill="none" style="stroke:#181818;stroke-width:1.0;"/><rect fill="#F1F1F1" height="36.2969" rx="12.5" ry="12.5" style="stroke:#181818;stroke-width:1.5;" width="178" x="222" y="414.0781"/><text fill="#000000" font-family="sans-serif" font-size="14" lengthAdjust="spacing" textLength="158" x="232" y="437.0732">Front-end Developers</text><path d="M172,601.1172 L182,601.1172 C197,601.1172 197,432.2266 212,432.2266 L222,432.2266 " fill="none" style="stroke:#181818;stroke-width:1.0;"/><rect fill="#F1F1F1" height="36.2969" rx="12.5" ry="12.5" style="stroke:#181818;stroke-width:1.5;" width="132" x="222" y="470.375"/><text fill="#000000" font-family="sans-serif" font-size="14" lengthAdjust="spacing" textLength="112" x="232" y="493.3701">UX/UI Designers</text><path d="M172,601.1172 L182,601.1172 C197,601.1172 197,488.5234 212,488.5234 L222,488.5234 " fill="none" style="stroke:#181818;stroke-width:1.0;"/><rect fill="#F1F1F1" height="36.2969" rx="12.5" ry="12.5" style="stroke:#181818;stroke-width:1.5;" width="174" x="222" y="526.6719"/><text fill="#000000" font-family="sans-serif" font-size="14" lengthAdjust="spacing" textLength="154" x="232" y="549.667">Back-end Developers</text><rect fill="#F1F1F1" height="36.2969" rx="12.5" ry="12.5" style="stroke:#181818;stroke-width:1.5;" width="179" x="446" y="526.6719"/><text fill="#000000" font-family="sans-serif" font-size="14" lengthAdjust="spacing" textLength="159" x="456" y="549.667">DevOps and Full Stack</text><path d="M396,544.8203 L406,544.8203 C421,544.8203 421,544.8203 436,544.8203 L446,544.8203 " fill="none" style="stroke:#181818;stroke-width:1.0;"/><path d="M172,601.1172 L182,601.1172 C197,601.1172 197,544.8203 212,544.8203 L222,544.8203 " fill="none" style="stroke:#181818;stroke-width:1.0;"/><rect fill="#F1F1F1" height="36.2969" rx="12.5" ry="12.5" style="stroke:#181818;stroke-width:1.5;" width="99" x="222" y="611.1172"/><text fill="#000000" font-family="sans-serif" font-size="14" lengthAdjust="spacing" textLength="79" x="232" y="634.1123">QA Testers</text><rect fill="#F1F1F1" height="36.2969" rx="12.5" ry="12.5" style="stroke:#181818;stroke-width:1.5;" width="246" x="371" y="582.9688"/><text fill="#000000" font-family="sans-serif" font-size="14" lengthAdjust="spacing" textLength="226" x="381" y="605.9639">Blockchain testing and auditing</text><path d="M321,629.2656 L331,629.2656 C346,629.2656 346,601.1172 361,601.1172 L371,601.1172 " fill="none" style="stroke:#181818;stroke-width:1.0;"/><rect fill="#F1F1F1" height="36.2969" rx="12.5" ry="12.5" style="stroke:#181818;stroke-width:1.5;" width="194" x="371" y="639.2656"/><text fill="#000000" font-family="sans-serif" font-size="14" lengthAdjust="spacing" textLength="174" x="381" y="662.2607">Overall platform testing</text><path d="M321,629.2656 L331,629.2656 C346,629.2656 346,657.4141 361,657.4141 L371,657.4141 " fill="none" style="stroke:#181818;stroke-width:1.0;"/><path d="M172,601.1172 L182,601.1172 C197,601.1172 197,629.2656 212,629.2656 L222,629.2656 " fill="none" style="stroke:#181818;stroke-width:1.0;"/><rect fill="#F1F1F1" height="36.2969" rx="12.5" ry="12.5" style="stroke:#181818;stroke-width:1.5;" width="213" x="222" y="695.5625"/><text fill="#000000" font-family="sans-serif" font-size="14" lengthAdjust="spacing" textLength="193" x="232" y="718.5576">Python Drone Programmer</text><path d="M172,601.1172 L182,601.1172 C197,601.1172 197,713.7109 212,713.7109 L222,713.7109 " fill="none" style="stroke:#181818;stroke-width:1.0;"/><rect fill="#F1F1F1" height="36.2969" rx="12.5" ry="12.5" style="stroke:#181818;stroke-width:1.5;" width="321" x="222" y="751.8594"/><text fill="#000000" font-family="sans-serif" font-size="14" lengthAdjust="spacing" textLength="301" x="232" y="774.8545">Marketing and Communication Specialists</text><path d="M172,601.1172 L182,601.1172 C197,601.1172 197,770.0078 212,770.0078 L222,770.0078 " fill="none" style="stroke:#181818;stroke-width:1.0;"/><rect fill="#F1F1F1" height="36.2969" rx="12.5" ry="12.5" style="stroke:#181818;stroke-width:1.5;" width="237" x="222" y="808.1563"/><text fill="#000000" font-family="sans-serif" font-size="14" lengthAdjust="spacing" textLength="217" x="232" y="831.1514">Legal and Compliance Experts</text><path d="M172,601.1172 L182,601.1172 C197,601.1172 197,826.3047 212,826.3047 L222,826.3047 " fill="none" style="stroke:#181818;stroke-width:1.0;"/><rect fill="#F1F1F1" height="36.2969" rx="12.5" ry="12.5" style="stroke:#181818;stroke-width:1.5;" width="146" x="222" y="864.4531"/><text fill="#000000" font-family="sans-serif" font-size="14" lengthAdjust="spacing" textLength="126" x="232" y="887.4482">Financial Analysts</text><path d="M172,601.1172 L182,601.1172 C197,601.1172 197,882.6016 212,882.6016 L222,882.6016 " fill="none" style="stroke:#181818;stroke-width:1.0;"/><rect fill="#F1F1F1" height="36.2969" rx="12.5" ry="12.5" style="stroke:#181818;stroke-width:1.5;" width="134" x="10" y="1061.4922"/><text fill="#000000" font-family="sans-serif" font-size="14" lengthAdjust="spacing" textLength="114" x="20" y="1084.4873">3.1.2. End Users</text><rect fill="#F1F1F1" height="36.2969" rx="12.5" ry="12.5" style="stroke:#181818;stroke-width:1.5;" width="94" x="194" y="920.75"/><text fill="#000000" font-family="sans-serif" font-size="14" lengthAdjust="spacing" textLength="74" x="204" y="943.7451">Individuals</text><path d="M144,1079.6406 L154,1079.6406 C169,1079.6406 169,938.8984 184,938.8984 L194,938.8984 " fill="none" style="stroke:#181818;stroke-width:1.0;"/><rect fill="#F1F1F1" height="36.2969" rx="12.5" ry="12.5" style="stroke:#181818;stroke-width:1.5;" width="233" x="194" y="977.0469"/><text fill="#000000" font-family="sans-serif" font-size="14" lengthAdjust="spacing" textLength="213" x="204" y="1000.042">Companies and Organizations</text><path d="M144,1079.6406 L154,1079.6406 C169,1079.6406 169,995.1953 184,995.1953 L194,995.1953 " fill="none" style="stroke:#181818;stroke-width:1.0;"/><rect fill="#F1F1F1" height="36.2969" rx="12.5" ry="12.5" style="stroke:#181818;stroke-width:1.5;" width="422" x="194" y="1033.3438"/><text fill="#000000" font-family="sans-serif" font-size="14" lengthAdjust="spacing" textLength="402" x="204" y="1056.3389">Non-governmental Organizations (NGOs) and Nonprofits</text><path d="M144,1079.6406 L154,1079.6406 C169,1079.6406 169,1051.4922 184,1051.4922 L194,1051.4922 " fill="none" style="stroke:#181818;stroke-width:1.0;"/><rect fill="#F1F1F1" height="36.2969" rx="12.5" ry="12.5" style="stroke:#181818;stroke-width:1.5;" width="180" x="194" y="1089.6406"/><text fill="#000000" font-family="sans-serif" font-size="14" lengthAdjust="spacing" textLength="160" x="204" y="1112.6357">Government Agencies</text><path d="M144,1079.6406 L154,1079.6406 C169,1079.6406 169,1107.7891 184,1107.7891 L194,1107.7891 " fill="none" style="stroke:#181818;stroke-width:1.0;"/><rect fill="#F1F1F1" height="36.2969" rx="12.5" ry="12.5" style="stroke:#181818;stroke-width:1.5;" width="189" x="194" y="1145.9375"/><text fill="#000000" font-family="sans-serif" font-size="14" lengthAdjust="spacing" textLength="169" x="204" y="1168.9326">Educational Institutions</text><path d="M144,1079.6406 L154,1079.6406 C169,1079.6406 169,1164.0859 184,1164.0859 L194,1164.0859 " fill="none" style="stroke:#181818;stroke-width:1.0;"/><rect fill="#F1F1F1" height="36.2969" rx="12.5" ry="12.5" style="stroke:#181818;stroke-width:1.5;" width="174" x="194" y="1202.2344"/><text fill="#000000" font-family="sans-serif" font-size="14" lengthAdjust="spacing" textLength="154" x="204" y="1225.2295">Investors and Traders</text><path d="M144,1079.6406 L154,1079.6406 C169,1079.6406 169,1220.3828 184,1220.3828 L194,1220.3828 " fill="none" style="stroke:#181818;stroke-width:1.0;"/><rect fill="#F1F1F1" height="36.2969" rx="12.5" ry="12.5" style="stroke:#181818;stroke-width:1.5;" width="320" x="10" y="1371.125"/><text fill="#000000" font-family="sans-serif" font-size="14" lengthAdjust="spacing" textLength="300" x="20" y="1394.1201">3.1.3. Regulators and Certification Bodies</text><rect fill="#F1F1F1" height="36.2969" rx="12.5" ry="12.5" style="stroke:#181818;stroke-width:1.5;" width="257" x="380" y="1258.5313"/><text fill="#000000" font-family="sans-serif" font-size="14" lengthAdjust="spacing" textLength="237" x="390" y="1281.5264">National Environmental Agencies</text><path d="M330,1389.2734 L340,1389.2734 C355,1389.2734 355,1276.6797 370,1276.6797 L380,1276.6797 " fill="none" style="stroke:#181818;stroke-width:1.0;"/><rect fill="#F1F1F1" height="36.2969" rx="12.5" ry="12.5" style="stroke:#181818;stroke-width:1.5;" width="325" x="380" y="1314.8281"/><text fill="#000000" font-family="sans-serif" font-size="14" lengthAdjust="spacing" textLength="305" x="390" y="1337.8232">International Environmental Organizations</text><path d="M330,1389.2734 L340,1389.2734 C355,1389.2734 355,1332.9766 370,1332.9766 L380,1332.9766 " fill="none" style="stroke:#181818;stroke-width:1.0;"/><rect fill="#F1F1F1" height="36.2969" rx="12.5" ry="12.5" style="stroke:#181818;stroke-width:1.5;" width="271" x="380" y="1371.125"/><text fill="#000000" font-family="sans-serif" font-size="14" lengthAdjust="spacing" textLength="251" x="390" y="1394.1201">Voluntary Carbon Offset Standards</text><path d="M330,1389.2734 L340,1389.2734 C355,1389.2734 355,1389.2734 370,1389.2734 L380,1389.2734 " fill="none" style="stroke:#181818;stroke-width:1.0;"/><rect fill="#F1F1F1" height="36.2969" rx="12.5" ry="12.5" style="stroke:#181818;stroke-width:1.5;" width="197" x="380" y="1427.4219"/><text fill="#000000" font-family="sans-serif" font-size="14" lengthAdjust="spacing" textLength="177" x="390" y="1450.417">Carbon Credit Registries</text><path d="M330,1389.2734 L340,1389.2734 C355,1389.2734 355,1445.5703 370,1445.5703 L380,1445.5703 " fill="none" style="stroke:#181818;stroke-width:1.0;"/><rect fill="#F1F1F1" height="36.2969" rx="12.5" ry="12.5" style="stroke:#181818;stroke-width:1.5;" width="258" x="380" y="1483.7188"/><text fill="#000000" font-family="sans-serif" font-size="14" lengthAdjust="spacing" textLength="238" x="390" y="1506.7139">Third-Party Verification Agencies</text><path d="M330,1389.2734 L340,1389.2734 C355,1389.2734 355,1501.8672 370,1501.8672 L380,1501.8672 " fill="none" style="stroke:#181818;stroke-width:1.0;"/><rect fill="#F1F1F1" height="36.2969" rx="12.5" ry="12.5" style="stroke:#181818;stroke-width:1.5;" width="274" x="10" y="1737.0547"/><text fill="#000000" font-family="sans-serif" font-size="14" lengthAdjust="spacing" textLength="254" x="20" y="1760.0498">3.1.4. Third-Party Service Providers</text><rect fill="#F1F1F1" height="36.2969" rx="12.5" ry="12.5" style="stroke:#181818;stroke-width:1.5;" width="285" x="334" y="1540.0156"/><text fill="#000000" font-family="sans-serif" font-size="14" lengthAdjust="spacing" textLength="265" x="344" y="1563.0107">Blockchain Development Companies</text><path d="M284,1755.2031 L294,1755.2031 C309,1755.2031 309,1558.1641 324,1558.1641 L334,1558.1641 " fill="none" style="stroke:#181818;stroke-width:1.0;"/><rect fill="#F1F1F1" height="36.2969" rx="12.5" ry="12.5" style="stroke:#181818;stroke-width:1.5;" width="308" x="334" y="1596.3125"/><text fill="#000000" font-family="sans-serif" font-size="14" lengthAdjust="spacing" textLength="288" x="344" y="1619.3076">Web Development and Design Agencies</text><path d="M284,1755.2031 L294,1755.2031 C309,1755.2031 309,1614.4609 324,1614.4609 L334,1614.4609 " fill="none" style="stroke:#181818;stroke-width:1.0;"/><rect fill="#F1F1F1" height="36.2969" rx="12.5" ry="12.5" style="stroke:#181818;stroke-width:1.5;" width="221" x="334" y="1652.6094"/><text fill="#000000" font-family="sans-serif" font-size="14" lengthAdjust="spacing" textLength="201" x="344" y="1675.6045">Payment Gateway Providers</text><path d="M284,1755.2031 L294,1755.2031 C309,1755.2031 309,1670.7578 324,1670.7578 L334,1670.7578 " fill="none" style="stroke:#181818;stroke-width:1.0;"/><rect fill="#F1F1F1" height="36.2969" rx="12.5" ry="12.5" style="stroke:#181818;stroke-width:1.5;" width="255" x="334" y="1708.9063"/><text fill="#000000" font-family="sans-serif" font-size="14" lengthAdjust="spacing" textLength="235" x="344" y="1731.9014">AI and Data Analytics Companies</text><path d="M284,1755.2031 L294,1755.2031 C309,1755.2031 309,1727.0547 324,1727.0547 L334,1727.0547 " fill="none" style="stroke:#181818;stroke-width:1.0;"/><rect fill="#F1F1F1" height="36.2969" rx="12.5" ry="12.5" style="stroke:#181818;stroke-width:1.5;" width="222" x="334" y="1765.2031"/><text fill="#000000" font-family="sans-serif" font-size="14" lengthAdjust="spacing" textLength="202" x="344" y="1788.1982">Drone Technology Providers</text><path d="M284,1755.2031 L294,1755.2031 C309,1755.2031 309,1783.3516 324,1783.3516 L334,1783.3516 " fill="none" style="stroke:#181818;stroke-width:1.0;"/><rect fill="#F1F1F1" height="36.2969" rx="12.5" ry="12.5" style="stroke:#181818;stroke-width:1.5;" width="215" x="334" y="1821.5"/><text fill="#000000" font-family="sans-serif" font-size="14" lengthAdjust="spacing" textLength="195" x="344" y="1844.4951">Marketing and PR Agencies</text><path d="M284,1755.2031 L294,1755.2031 C309,1755.2031 309,1839.6484 324,1839.6484 L334,1839.6484 " fill="none" style="stroke:#181818;stroke-width:1.0;"/><rect fill="#F1F1F1" height="36.2969" rx="12.5" ry="12.5" style="stroke:#181818;stroke-width:1.5;" width="266" x="334" y="1877.7969"/><text fill="#000000" font-family="sans-serif" font-size="14" lengthAdjust="spacing" textLength="246" x="344" y="1900.792">Legal and Compliance Consultants</text><path d="M284,1755.2031 L294,1755.2031 C309,1755.2031 309,1895.9453 324,1895.9453 L334,1895.9453 " fill="none" style="stroke:#181818;stroke-width:1.0;"/><rect fill="#F1F1F1" height="36.2969" rx="12.5" ry="12.5" style="stroke:#181818;stroke-width:1.5;" width="163" x="334" y="1934.0938"/><text fill="#000000" font-family="sans-serif" font-size="14" lengthAdjust="spacing" textLength="143" x="344" y="1957.0889">Cybersecurity Firms</text><path d="M284,1755.2031 L294,1755.2031 C309,1755.2031 309,1952.2422 324,1952.2422 L334,1952.2422 " fill="none" style="stroke:#181818;stroke-width:1.0;"/><!--SRC=[RLHDSzem4BtxL-WOc86sIThfv1GWGCb0eE6ZlIxsObJabKUMITrVtvNy4PpagDNRtRTldtIVMJ0saHGba0PTSTF_qXTh2oSyQXMX4RC8oSg33C5AJK6tArP6_y7G2loReh6P2ut0x3M9q60ahKYDFalE_U1gdnTL_1dZN87L9XD0aGYvLDD5x7KaqSDcTCRCeOAA7DEh2MmGaaj22o28qRZGKEdm51v1adZ0CogTbcsPZpReEqQ3D7NGYT5aUyYH5b9iVt_QpZYMoPYgq132qtjarnsNQJd795VAwHUUNCBF0PFCR8sxO6KvB2dsEP2pD7pmcEKP3N2DbCKvQ9FKI3zeOO-ipWCpHZTrR219oe4NO4xOL1pf9CcfLdETOYX1oQnSrXnZK3KiLH8eH35-NUP44eSuGGm8LE6oAksl-sBCQTkiqcD6aUHDvw3ALNCv85wSBxuqCH_-UGh- -abJBzOy7YLiAIxVGeYhf-aow_XKHhA73hBaCsron216PbOwOnpbvNnSQKQiaSsRLerhVBcD0U_6QegR_blpZLhc6pRcUwhhZ-aiMVIAzoMB6V5swMFSEmLsMkLyOuhwLImFXmojymj5OABB1pCg7mmpvRsPgjlcA4tKM_6BBSGEpIldXb8russ_XLsZESlGU-RrPRv_8rxZPeiEymlthKlmvdTFegN22Wf_FGMBBr2q-mncPHfOA1rbPPYrsvIEtc1u9Arq_AP0szkhvrRh3zqyOi5pnQfMtrEnvr8OvaQo61DfaYouvtTSVtl1IZ5qkvWBTbhcz6IlVxw-wN_TeuLlLriwaNxXJumxI8N2oWGxmTLqDHUPpWqtZFoIzjw1dU0HpY2UUTMCknFkTBLPTCHwN0SlZH8yxXObIFpGTfrgwy7VRdj3th_R7F_2kqNmW0VWcJWrP8DIV2UscqdlUp07YdF-z-u4KZ3ItC0KVBV-3m00]--></g></svg>