<?xml version="1.0" encoding="us-ascii" standalone="no"?><svg xmlns="http://www.w3.org/2000/svg" xmlns:xlink="http://www.w3.org/1999/xlink" contentStyleType="text/css" height="641px" preserveAspectRatio="none" style="width:591px;height:641px;background:#FFFFFF;" version="1.1" viewBox="0 0 591 641" width="591px" zoomAndPan="magnify"><defs/><g><rect fill="#F1F1F1" height="36.2969" rx="12.5" ry="12.5" style="stroke:#181818;stroke-width:1.5;" width="116" x="10" y="301.4844"/><text fill="#000000" font-family="sans-serif" font-size="14" lengthAdjust="spacing" textLength="96" x="20" y="324.4795">Project Team</text><rect fill="#F1F1F1" height="36.2969" rx="12.5" ry="12.5" style="stroke:#181818;stroke-width:1.5;" width="137" x="176" y="20"/><text fill="#000000" font-family="sans-serif" font-size="14" lengthAdjust="spacing" textLength="117" x="186" y="42.9951">Project Manager</text><path d="M126,319.6328 L136,319.6328 C151,319.6328 151,38.1484 166,38.1484 L176,38.1484 " fill="none" style="stroke:#181818;stroke-width:1.0;"/><rect fill="#F1F1F1" height="36.2969" rx="12.5" ry="12.5" style="stroke:#181818;stroke-width:1.5;" width="184" x="176" y="76.2969"/><text fill="#000000" font-family="sans-serif" font-size="14" lengthAdjust="spacing" textLength="164" x="186" y="99.292">Blockchain Developers</text><rect fill="#F1F1F1" height="36.2969" rx="12.5" ry="12.5" style="stroke:#181818;stroke-width:1.5;" width="127" x="410" y="76.2969"/><text fill="#000000" font-family="sans-serif" font-size="14" lengthAdjust="spacing" textLength="107" x="420" y="99.292">Core and dApp</text><path d="M360,94.4453 L370,94.4453 C385,94.4453 385,94.4453 400,94.4453 L410,94.4453 " fill="none" style="stroke:#181818;stroke-width:1.0;"/><path d="M126,319.6328 L136,319.6328 C151,319.6328 151,94.4453 166,94.4453 L176,94.4453 " fill="none" style="stroke:#181818;stroke-width:1.0;"/><rect fill="#F1F1F1" height="36.2969" rx="12.5" ry="12.5" style="stroke:#181818;stroke-width:1.5;" width="178" x="176" y="132.5938"/><text fill="#000000" font-family="sans-serif" font-size="14" lengthAdjust="spacing" textLength="158" x="186" y="155.5889">Front-end Developers</text><path d="M126,319.6328 L136,319.6328 C151,319.6328 151,150.7422 166,150.7422 L176,150.7422 " fill="none" style="stroke:#181818;stroke-width:1.0;"/><rect fill="#F1F1F1" height="36.2969" rx="12.5" ry="12.5" style="stroke:#181818;stroke-width:1.5;" width="132" x="176" y="188.8906"/><text fill="#000000" font-family="sans-serif" font-size="14" lengthAdjust="spacing" textLength="112" x="186" y="211.8857">UX/UI Designers</text><path d="M126,319.6328 L136,319.6328 C151,319.6328 151,207.0391 166,207.0391 L176,207.0391 " fill="none" style="stroke:#181818;stroke-width:1.0;"/><rect fill="#F1F1F1" height="36.2969" rx="12.5" ry="12.5" style="stroke:#181818;stroke-width:1.5;" width="174" x="176" y="245.1875"/><text fill="#000000" font-family="sans-serif" font-size="14" lengthAdjust="spacing" textLength="154" x="186" y="268.1826">Back-end Developers</text><rect fill="#F1F1F1" height="36.2969" rx="12.5" ry="12.5" style="stroke:#181818;stroke-width:1.5;" width="179" x="400" y="245.1875"/><text fill="#000000" font-family="sans-serif" font-size="14" lengthAdjust="spacing" textLength="159" x="410" y="268.1826">DevOps and Full Stack</text><path d="M350,263.3359 L360,263.3359 C375,263.3359 375,263.3359 390,263.3359 L400,263.3359 " fill="none" style="stroke:#181818;stroke-width:1.0;"/><path d="M126,319.6328 L136,319.6328 C151,319.6328 151,263.3359 166,263.3359 L176,263.3359 " fill="none" style="stroke:#181818;stroke-width:1.0;"/><rect fill="#F1F1F1" height="36.2969" rx="12.5" ry="12.5" style="stroke:#181818;stroke-width:1.5;" width="99" x="176" y="329.6328"/><text fill="#000000" font-family="sans-serif" font-size="14" lengthAdjust="spacing" textLength="79" x="186" y="352.6279">QA Testers</text><rect fill="#F1F1F1" height="36.2969" rx="12.5" ry="12.5" style="stroke:#181818;stroke-width:1.5;" width="246" x="325" y="301.4844"/><text fill="#000000" font-family="sans-serif" font-size="14" lengthAdjust="spacing" textLength="226" x="335" y="324.4795">Blockchain testing and auditing</text><path d="M275,347.7813 L285,347.7813 C300,347.7813 300,319.6328 315,319.6328 L325,319.6328 " fill="none" style="stroke:#181818;stroke-width:1.0;"/><rect fill="#F1F1F1" height="36.2969" rx="12.5" ry="12.5" style="stroke:#181818;stroke-width:1.5;" width="194" x="325" y="357.7813"/><text fill="#000000" font-family="sans-serif" font-size="14" lengthAdjust="spacing" textLength="174" x="335" y="380.7764">Overall platform testing</text><path d="M275,347.7813 L285,347.7813 C300,347.7813 300,375.9297 315,375.9297 L325,375.9297 " fill="none" style="stroke:#181818;stroke-width:1.0;"/><path d="M126,319.6328 L136,319.6328 C151,319.6328 151,347.7813 166,347.7813 L176,347.7813 " fill="none" style="stroke:#181818;stroke-width:1.0;"/><rect fill="#F1F1F1" height="36.2969" rx="12.5" ry="12.5" style="stroke:#181818;stroke-width:1.5;" width="213" x="176" y="414.0781"/><text fill="#000000" font-family="sans-serif" font-size="14" lengthAdjust="spacing" textLength="193" x="186" y="437.0732">Python Drone Programmer</text><path d="M126,319.6328 L136,319.6328 C151,319.6328 151,432.2266 166,432.2266 L176,432.2266 " fill="none" style="stroke:#181818;stroke-width:1.0;"/><rect fill="#F1F1F1" height="36.2969" rx="12.5" ry="12.5" style="stroke:#181818;stroke-width:1.5;" width="321" x="176" y="470.375"/><text fill="#000000" font-family="sans-serif" font-size="14" lengthAdjust="spacing" textLength="301" x="186" y="493.3701">Marketing and Communication Specialists</text><path d="M126,319.6328 L136,319.6328 C151,319.6328 151,488.5234 166,488.5234 L176,488.5234 " fill="none" style="stroke:#181818;stroke-width:1.0;"/><rect fill="#F1F1F1" height="36.2969" rx="12.5" ry="12.5" style="stroke:#181818;stroke-width:1.5;" width="237" x="176" y="526.6719"/><text fill="#000000" font-family="sans-serif" font-size="14" lengthAdjust="spacing" textLength="217" x="186" y="549.667">Legal and Compliance Experts</text><path d="M126,319.6328 L136,319.6328 C151,319.6328 151,544.8203 166,544.8203 L176,544.8203 " fill="none" style="stroke:#181818;stroke-width:1.0;"/><rect fill="#F1F1F1" height="36.2969" rx="12.5" ry="12.5" style="stroke:#181818;stroke-width:1.5;" width="146" x="176" y="582.9688"/><text fill="#000000" font-family="sans-serif" font-size="14" lengthAdjust="spacing" textLength="126" x="186" y="605.9639">Financial Analysts</text><path d="M126,319.6328 L136,319.6328 C151,319.6328 151,601.1172 166,601.1172 L176,601.1172 " fill="none" style="stroke:#181818;stroke-width:1.0;"/><!--SRC=[PP9FRzim3CNl-XGy9W7IhTrG33arIPDjHOocSrpiojgigqMY19dEccy_ocds1ployKVoFTatdM0IRxdn6E7L63E1RGe_g1RO4Nep-LCNoDXIojB2XNfVlw1bkAK3kH0fTTgOm38a0kG6cdcC6Lsdm38bLVuXeVh-hlggMcTRVfCMME__9oUvl8_Ti7NTEmUbA9W77kPgifCpzvShKTboEynWtzXS3CpzWHBgZkXGdaFoPt88UfINe8dKCUNKRKBlJu4BJ7lwlN4PlE_PrYXM-J9IRT7PJeOK6shHdR7eB79Di7hLDAV-sh9AEW1pHdVCK-P6Kxzz16Es3bcgOWDgjSi7BY-ktbzzkBX-8i7BKSLx3ZyPQjrk7O5OJsCp-hpTG1VwfCSQjPBiKv_TZSqT7X2-zPov6UHgj2l6KAxE8gpuO3Mp9nPpzrYS8FWIf8n11lZwutHX1KfAwWaU2tDBpzWxqT4wDFeiCwXsw-adiq5kU_rBPa1iba4FfAFsoby0]--></g></svg>