<?xml version="1.0" encoding="us-ascii" standalone="no"?><svg xmlns="http://www.w3.org/2000/svg" xmlns:xlink="http://www.w3.org/1999/xlink" contentStyleType="text/css" height="483px" preserveAspectRatio="none" style="width:603px;height:483px;background:#FFFFFF;" version="1.1" viewBox="0 0 603 483" width="603px" zoomAndPan="magnify"><defs/><g><text fill="#000000" font-family="sans-serif" font-size="14" font-weight="bold" lengthAdjust="spacing" textLength="281" x="154" y="22.9951">Eco30 Project Component Diagram</text><!--cluster Front End Framework--><g id="cluster_Front End Framework"><path d="M20.5,354.2969 L193.5,354.2969 A3.75,3.75 0 0 1 196,356.7969 L203,376.5938 L586.5,376.5938 A2.5,2.5 0 0 1 589,379.0938 L589,473.7969 A2.5,2.5 0 0 1 586.5,476.2969 L20.5,476.2969 A2.5,2.5 0 0 1 18,473.7969 L18,356.7969 A2.5,2.5 0 0 1 20.5,354.2969 " fill="none" style="stroke:#000000;stroke-width:1.5;"/><line style="stroke:#000000;stroke-width:1.5;" x1="18" x2="203" y1="376.5938" y2="376.5938"/><text fill="#000000" font-family="sans-serif" font-size="14" font-weight="bold" lengthAdjust="spacing" textLength="172" x="22" y="369.292">Front End Framework</text></g><!--cluster Application Framework--><g id="cluster_Application Framework"><path d="M9.5,153.2969 L197.5,153.2969 A3.75,3.75 0 0 1 200,155.7969 L207,175.5938 L593.5,175.5938 A2.5,2.5 0 0 1 596,178.0938 L596,302.7969 A2.5,2.5 0 0 1 593.5,305.2969 L9.5,305.2969 A2.5,2.5 0 0 1 7,302.7969 L7,155.7969 A2.5,2.5 0 0 1 9.5,153.2969 " fill="none" style="stroke:#000000;stroke-width:1.5;"/><line style="stroke:#000000;stroke-width:1.5;" x1="7" x2="207" y1="175.5938" y2="175.5938"/><text fill="#000000" font-family="sans-serif" font-size="14" font-weight="bold" lengthAdjust="spacing" textLength="187" x="11" y="168.292">Application Framework</text></g><!--entity Svelte--><g id="elem_Svelte"><rect fill="#F1F1F1" height="46.2969" rx="2.5" ry="2.5" style="stroke:#181818;stroke-width:0.5;" width="86" x="34" y="401.7969"/><rect fill="#F1F1F1" height="10" style="stroke:#181818;stroke-width:0.5;" width="15" x="100" y="406.7969"/><rect fill="#F1F1F1" height="2" style="stroke:#181818;stroke-width:0.5;" width="4" x="98" y="408.7969"/><rect fill="#F1F1F1" height="2" style="stroke:#181818;stroke-width:0.5;" width="4" x="98" y="412.7969"/><text fill="#000000" font-family="sans-serif" font-size="14" lengthAdjust="spacing" textLength="46" x="49" y="434.792">Svelte</text></g><g id="elem_GMN4"><path d="M155,389.2969 L155,420.7969 L120.162,424.7969 L155,428.7969 L155,459.8281 A0,0 0 0 0 155,459.8281 L573,459.8281 A0,0 0 0 0 573,459.8281 L573,399.2969 L563,389.2969 L155,389.2969 A0,0 0 0 0 155,389.2969 " fill="#FEFFDD" style="stroke:#181818;stroke-width:0.5;"/><path d="M563,389.2969 L563,399.2969 L573,399.2969 L563,389.2969 " fill="#FEFFDD" style="stroke:#181818;stroke-width:0.5;"/><text fill="#000000" font-family="sans-serif" font-size="13" lengthAdjust="spacing" textLength="225" x="161" y="406.3638">- Cutting-edge frontend framework</text><text fill="#000000" font-family="sans-serif" font-size="13" lengthAdjust="spacing" textLength="397" x="161" y="421.4966">- Compiler converts components into efficient JavaScript code</text><text fill="#000000" font-family="sans-serif" font-size="13" lengthAdjust="spacing" textLength="374" x="161" y="436.6294">- Smaller bundle sizes and improved runtime performance</text><text fill="#000000" font-family="sans-serif" font-size="13" lengthAdjust="spacing" textLength="351" x="161" y="451.7622">- Reactive components with HTML, CSS, and JavaScript</text></g><!--entity SvelteKit--><g id="elem_SvelteKit"><rect fill="#F1F1F1" height="46.2969" rx="2.5" ry="2.5" style="stroke:#181818;stroke-width:0.5;" width="107" x="23.5" y="215.7969"/><rect fill="#F1F1F1" height="10" style="stroke:#181818;stroke-width:0.5;" width="15" x="110.5" y="220.7969"/><rect fill="#F1F1F1" height="2" style="stroke:#181818;stroke-width:0.5;" width="4" x="108.5" y="222.7969"/><rect fill="#F1F1F1" height="2" style="stroke:#181818;stroke-width:0.5;" width="4" x="108.5" y="226.7969"/><text fill="#000000" font-family="sans-serif" font-size="14" lengthAdjust="spacing" textLength="67" x="38.5" y="248.792">SvelteKit</text></g><g id="elem_GMN9"><path d="M166,188.2969 L166,234.7969 L130.766,238.7969 L166,242.7969 L166,289.0938 A0,0 0 0 0 166,289.0938 L580,289.0938 A0,0 0 0 0 580,289.0938 L580,198.2969 L570,188.2969 L166,188.2969 A0,0 0 0 0 166,188.2969 " fill="#FEFFDD" style="stroke:#181818;stroke-width:0.5;"/><path d="M570,188.2969 L570,198.2969 L580,198.2969 L570,188.2969 " fill="#FEFFDD" style="stroke:#181818;stroke-width:0.5;"/><text fill="#000000" font-family="sans-serif" font-size="13" lengthAdjust="spacing" textLength="241" x="172" y="205.3638">- Full framework built on top of Svelte</text><text fill="#000000" font-family="sans-serif" font-size="13" lengthAdjust="spacing" textLength="163" x="172" y="220.4966">- Unified project structure</text><text fill="#000000" font-family="sans-serif" font-size="13" lengthAdjust="spacing" textLength="393" x="172" y="235.6294">- Server-side rendering (SSR) and static site generation (SSG)</text><text fill="#000000" font-family="sans-serif" font-size="13" lengthAdjust="spacing" textLength="362" x="172" y="250.7622">- Integrated build system (Vite) and development server</text><text fill="#000000" font-family="sans-serif" font-size="13" lengthAdjust="spacing" textLength="289" x="172" y="265.895">- Simplified deployment with adapter system</text><text fill="#000000" font-family="sans-serif" font-size="13" lengthAdjust="spacing" textLength="311" x="172" y="281.0278">- Extensibility with other tools, libraries, and APIs</text></g><!--entity Eco30--><g id="elem_Eco30"><rect fill="#F1F1F1" height="46.2969" rx="2.5" ry="2.5" style="stroke:#181818;stroke-width:0.5;" width="140" x="7" y="44.2969"/><rect fill="#F1F1F1" height="10" style="stroke:#181818;stroke-width:0.5;" width="15" x="127" y="49.2969"/><rect fill="#F1F1F1" height="2" style="stroke:#181818;stroke-width:0.5;" width="4" x="125" y="51.2969"/><rect fill="#F1F1F1" height="2" style="stroke:#181818;stroke-width:0.5;" width="4" x="125" y="55.2969"/><text fill="#000000" font-family="sans-serif" font-size="14" lengthAdjust="spacing" textLength="100" x="22" y="77.292">Eco30 Project</text></g><!--link Eco30 to SvelteKit--><g id="link_Eco30_SvelteKit"><path d="M77,90.4559 C77,121.2909 77,177.1019 77,210.4759 " fill="none" id="Eco30-to-SvelteKit" style="stroke:#181818;stroke-width:1.0;"/><polygon fill="#181818" points="77,215.6319,81,206.6319,77,210.6319,73,206.6319,77,215.6319" style="stroke:#181818;stroke-width:1.0;"/><text fill="#000000" font-family="sans-serif" font-size="13" lengthAdjust="spacing" textLength="31" x="78" y="133.3638">Uses</text></g><!--link SvelteKit to Svelte--><g id="link_SvelteKit_Svelte"><path d="M77,261.9919 C77,295.6999 77,359.7359 77,396.3304 " fill="none" id="SvelteKit-to-Svelte" style="stroke:#181818;stroke-width:1.0;"/><polygon fill="#181818" points="77,401.5235,81,392.5235,77,396.5235,73,392.5235,77,401.5235" style="stroke:#181818;stroke-width:1.0;"/><text fill="#000000" font-family="sans-serif" font-size="13" lengthAdjust="spacing" textLength="89" x="78" y="334.3638">Built on top of</text></g><!--SRC=[TL9DRzim3BtxLn0vjK0C3DXjXm5TbhJT1r3Kwov33ufCErnbKP1eTzcm_pxATbftG6-2-FZu-1w5n25iBRzz0pUHVw8Ls70NsACN-4YcZQOhYc3iWsaHLhl8-h_rDUoqW8yS7rRmfm3uKGte1E_rwLaG8hK70MwM1O0IDhq8-RR4MkcQp8PArfp8JYYLG0uZMFO3Hadwc4Kb82yCs3HaAOlyP0PJsKX155JZp51rncM2VUzhtJ3HRqnWT1Hr8VA0DSJU2tK80MF3iJFUddflqLYX0PT37qaESFNjwvSrRAfgFL8zJzR6l4RUlFYxiEiY14VM2B5_nR3F9AzwDjUof5tltBDBkXKvHNeG3hbXmi_OEqyDwO9XpZD9xAtqySaQZEffcQZMaIeRemO2PrLrUpwkbKG5MxLC9RNeCKxw5N1vFbDSQsnw6Q9JiXJjEIR13iw-QzF4KgDguj3bYD8uyJHU4t2JmXg3u-C86VqrjGcYeKriCtxxIqyaqPuSoN72iHmK9SmkhS7HFff8cAPGBcwkqtznFCK8gnUNlWAJfjilYgbGbk-NviCxk4kOYkNN0fBh7rucyGy0]--></g></svg>